Roman_opsz9_wght700.ufo
<glyph name="exclam" format="2">
	<unicode hex="0021"/>
	<advance width="720"/>
	<outline>
		<contour>
			<point x="358" y="452" type="curve" smooth="yes"/>
			<point x="406" y="452"/>
			<point x="406" y="462"/>
			<point x="412" y="502" type="curve" smooth="yes"/>
			<point x="516" y="1216"/>
			<point x="516" y="1260"/>
			<point x="516" y="1268" type="curve"/>
			<point x="516" y="1364"/>
			<point x="430" y="1412"/>
			<point x="360" y="1412" type="curve" smooth="yes"/>
			<point x="282" y="1412"/>
			<point x="202" y="1360"/>
			<point x="202" y="1268" type="curve"/>
			<point x="202" y="1260"/>
			<point x="204" y="1238"/>
			<point x="304" y="502" type="curve" smooth="yes"/>
			<point x="310" y="456"/>
			<point x="322" y="452"/>
		</contour>
		<contour>
			<point x="358" y="0" type="curve" smooth="yes"/>
			<point x="448" y="0"/>
			<point x="516" y="74"/>
			<point x="516" y="156" type="curve" smooth="yes"/>
			<point x="516" y="248"/>
			<point x="442" y="314"/>
			<point x="360" y="314" type="curve" smooth="yes"/>
			<point x="270" y="314"/>
			<point x="202" y="240"/>
			<point x="202" y="158" type="curve" smooth="yes"/>
			<point x="202" y="66"/>
			<point x="276" y="0"/>
		</contour>
	</outline>
</glyph>
<glyph name="numbersign" format="2">
	<unicode hex="0023"/>
	<advance width="1972"/>
	<outline>
		<contour>
			<point x="458" y="-388" type="curve" smooth="yes"/>
			<point x="504" y="-388"/>
			<point x="514" y="-354"/>
			<point x="522" y="-330" type="curve" smooth="yes"/>
			<point x="692" y="204" type="line"/>
			<point x="1086" y="204" type="line"/>
			<point x="1034" y="41"/>
			<point x="982" y="-122"/>
			<point x="930" y="-286" type="curve"/>
			<point x="926" y="-302"/>
			<point x="922" y="-318"/>
			<point x="922" y="-324" type="curve" smooth="yes"/>
			<point x="922" y="-362"/>
			<point x="952" y="-388"/>
			<point x="986" y="-388" type="curve" smooth="yes"/>
			<point x="1032" y="-388"/>
			<point x="1042" y="-354"/>
			<point x="1050" y="-330" type="curve" smooth="yes"/>
			<point x="1220" y="204" type="line"/>
			<point x="1750" y="204" type="line" smooth="yes"/>
			<point x="1776" y="204"/>
			<point x="1838" y="204"/>
			<point x="1838" y="268" type="curve" smooth="yes"/>
			<point x="1838" y="332"/>
			<point x="1774" y="332"/>
			<point x="1748" y="332" type="curve" smooth="yes"/>
			<point x="1264" y="332" type="line"/>
			<point x="1368" y="668" type="line"/>
			<point x="1748" y="668" type="line" smooth="yes"/>
			<point x="1776" y="668"/>
			<point x="1838" y="668"/>
			<point x="1838" y="732" type="curve" smooth="yes"/>
			<point x="1838" y="796"/>
			<point x="1776" y="796"/>
			<point x="1750" y="796" type="curve" smooth="yes"/>
			<point x="1412" y="796" type="line"/>
			<point x="1568" y="1286" type="line"/>
			<point x="1572" y="1302"/>
			<point x="1576" y="1318"/>
			<point x="1576" y="1324" type="curve" smooth="yes"/>
			<point x="1576" y="1362"/>
			<point x="1546" y="1388"/>
			<point x="1512" y="1388" type="curve" smooth="yes"/>
			<point x="1466" y="1388"/>
			<point x="1456" y="1354"/>
			<point x="1448" y="1330" type="curve" smooth="yes"/>
			<point x="1278" y="796" type="line"/>
			<point x="884" y="796" type="line"/>
			<point x="1040" y="1286" type="line"/>
			<point x="1044" y="1302"/>
			<point x="1048" y="1318"/>
			<point x="1048" y="1324" type="curve" smooth="yes"/>
			<point x="1048" y="1362"/>
			<point x="1018" y="1388"/>
			<point x="984" y="1388" type="curve" smooth="yes"/>
			<point x="938" y="1388"/>
			<point x="928" y="1354"/>
			<point x="920" y="1330" type="curve" smooth="yes"/>
			<point x="750" y="796" type="line"/>
			<point x="220" y="796" type="line" smooth="yes"/>
			<point x="194" y="796"/>
			<point x="132" y="796"/>
			<point x="132" y="732" type="curve" smooth="yes"/>
			<point x="132" y="668"/>
			<point x="196" y="668"/>
			<point x="222" y="668" type="curve" smooth="yes"/>
			<point x="706" y="668" type="line"/>
			<point x="602" y="332" type="line"/>
			<point x="222" y="332" type="line" smooth="yes"/>
			<point x="196" y="332"/>
			<point x="132" y="332"/>
			<point x="132" y="268" type="curve" smooth="yes"/>
			<point x="132" y="204"/>
			<point x="194" y="204"/>
			<point x="220" y="204" type="curve" smooth="yes"/>
			<point x="558" y="204" type="line"/>
			<point x="506" y="41"/>
			<point x="454" y="-122"/>
			<point x="402" y="-286" type="curve"/>
			<point x="398" y="-302"/>
			<point x="394" y="-318"/>
			<point x="394" y="-324" type="curve" smooth="yes"/>
			<point x="394" y="-362"/>
			<point x="424" y="-388"/>
		</contour>
		<contour>
			<point x="736" y="332" type="line"/>
			<point x="840" y="668" type="line"/>
			<point x="1234" y="668" type="line"/>
			<point x="1130" y="332" type="line"/>
		</contour>
	</outline>
</glyph>
<glyph name="dollar" format="2">
	<unicode hex="0024"/>
	<advance width="1182"/>
	<outline>
		<contour>
			<point x="542" y="-112" type="line"/>
			<point x="640" y="-112" type="line"/>
			<point x="640" y="-10" type="line"/>
			<point x="958" y="18"/>
			<point x="1050" y="250"/>
			<point x="1050" y="422" type="curve" smooth="yes"/>
			<point x="1050" y="594"/>
			<point x="948" y="698"/>
			<point x="936" y="710" type="curve" smooth="yes"/>
			<point x="834" y="816"/>
			<point x="742" y="840"/>
			<point x="640" y="860" type="curve"/>
			<point x="640" y="1300" type="line"/>
			<point x="682" y="1296"/>
			<point x="846" y="1286"/>
			<point x="914" y="1166" type="curve"/>
			<point x="914" y="1166"/>
			<point x="914" y="1166"/>
			<point x="914" y="1166" type="curve"/>
			<point x="822" y="1158"/>
			<point x="790" y="1092"/>
			<point x="790" y="1036" type="curve" smooth="yes"/>
			<point x="790" y="950"/>
			<point x="858" y="906"/>
			<point x="920" y="906" type="curve" smooth="yes"/>
			<point x="946" y="906"/>
			<point x="1050" y="920"/>
			<point x="1050" y="1044" type="curve" smooth="yes"/>
			<point x="1050" y="1220"/>
			<point x="926" y="1382"/>
			<point x="640" y="1398" type="curve"/>
			<point x="640" y="1500" type="line"/>
			<point x="542" y="1500" type="line"/>
			<point x="542" y="1398" type="line"/>
			<point x="260" y="1378"/>
			<point x="132" y="1190"/>
			<point x="132" y="994" type="curve" smooth="yes"/>
			<point x="132" y="836"/>
			<point x="230" y="738"/>
			<point x="256" y="712" type="curve"/>
			<point x="358" y="620"/>
			<point x="456" y="602"/>
			<point x="542" y="584" type="curve"/>
			<point x="542" y="88" type="line"/>
			<point x="460" y="96"/>
			<point x="322" y="122"/>
			<point x="262" y="250" type="curve"/>
			<point x="262" y="250"/>
			<point x="262" y="250"/>
			<point x="262" y="250" type="curve"/>
			<point x="362" y="254"/>
			<point x="392" y="326"/>
			<point x="392" y="380" type="curve" smooth="yes"/>
			<point x="392" y="460"/>
			<point x="330" y="510"/>
			<point x="262" y="510" type="curve" smooth="yes"/>
			<point x="224" y="510"/>
			<point x="132" y="488"/>
			<point x="132" y="372" type="curve" smooth="yes"/>
			<point x="132" y="208"/>
			<point x="234" y="10"/>
			<point x="542" y="-10" type="curve"/>
		</contour>
		<contour>
			<point x="542" y="880" type="line"/>
			<point x="350" y="916"/>
			<point x="298" y="1016"/>
			<point x="298" y="1092" type="curve" smooth="yes"/>
			<point x="298" y="1170"/>
			<point x="352" y="1282"/>
			<point x="542" y="1300" type="curve"/>
		</contour>
		<contour>
			<point x="640" y="88" type="curve"/>
			<point x="640" y="247"/>
			<point x="640" y="405"/>
			<point x="640" y="564" type="curve"/>
			<point x="780" y="540"/>
			<point x="884" y="448"/>
			<point x="884" y="324" type="curve" smooth="yes"/>
			<point x="884" y="212"/>
			<point x="808" y="106"/>
		</contour>
	</outline>
</glyph>
<glyph name="percent" format="2">
	<unicode hex="0025"/>
	<advance width="1972"/>
	<outline>
		<contour>
			<point x="1618" y="1384" type="line" smooth="yes"/>
			<point x="1636" y="1406"/>
			<point x="1642" y="1414"/>
			<point x="1642" y="1436" type="curve" smooth="yes"/>
			<point x="1642" y="1474"/>
			<point x="1612" y="1500"/>
			<point x="1578" y="1500" type="curve" smooth="yes"/>
			<point x="1560" y="1500"/>
			<point x="1540" y="1490"/>
			<point x="1528" y="1476" type="curve" smooth="yes"/>
			<point x="1484" y="1426"/>
			<point x="1364" y="1286"/>
			<point x="1112" y="1286" type="curve" smooth="yes"/>
			<point x="1004" y="1286"/>
			<point x="838" y="1314"/>
			<point x="656" y="1440" type="curve" smooth="yes"/>
			<point x="622" y="1466"/>
			<point x="572" y="1500"/>
			<point x="484" y="1500" type="curve" smooth="yes"/>
			<point x="306" y="1500"/>
			<point x="132" y="1370"/>
			<point x="132" y="1098" type="curve" smooth="yes"/>
			<point x="132" y="814"/>
			<point x="314" y="694"/>
			<point x="484" y="694" type="curve" smooth="yes"/>
			<point x="644" y="694"/>
			<point x="788" y="822"/>
			<point x="788" y="1096" type="curve" smooth="yes"/>
			<point x="788" y="1124"/>
			<point x="788" y="1210"/>
			<point x="758" y="1290" type="curve"/>
			<point x="834" y="1254"/>
			<point x="962" y="1208"/>
			<point x="1114" y="1208" type="curve" smooth="yes"/>
			<point x="1174" y="1208"/>
			<point x="1242" y="1212"/>
			<point x="1342" y="1246" type="curve"/>
			<point x="1342" y="1246" type="line"/>
			<point x="354" y="8" type="line" smooth="yes"/>
			<point x="340" y="-10"/>
			<point x="328" y="-26"/>
			<point x="328" y="-48" type="curve" smooth="yes"/>
			<point x="328" y="-84"/>
			<point x="358" y="-112"/>
			<point x="392" y="-112" type="curve" smooth="yes"/>
			<point x="412" y="-112"/>
			<point x="432" y="-102"/>
			<point x="452" y="-78" type="curve" smooth="yes"/>
		</contour>
		<contour>
			<point x="490" y="774" type="curve" smooth="yes"/>
			<point x="344" y="774"/>
			<point x="344" y="972"/>
			<point x="344" y="1096" type="curve" smooth="yes"/>
			<point x="344" y="1224"/>
			<point x="344" y="1420"/>
			<point x="490" y="1420" type="curve" smooth="yes"/>
			<point x="566" y="1420"/>
			<point x="686" y="1350"/>
			<point x="686" y="1098" type="curve" smooth="yes"/>
			<point x="686" y="834"/>
			<point x="558" y="774"/>
		</contour>
		<contour>
			<point x="1540" y="-32" type="curve" smooth="yes"/>
			<point x="1394" y="-32"/>
			<point x="1394" y="166"/>
			<point x="1394" y="290" type="curve" smooth="yes"/>
			<point x="1394" y="418"/>
			<point x="1394" y="614"/>
			<point x="1540" y="614" type="curve" smooth="yes"/>
			<point x="1616" y="614"/>
			<point x="1736" y="544"/>
			<point x="1736" y="292" type="curve" smooth="yes"/>
			<point x="1736" y="28"/>
			<point x="1608" y="-32"/>
		</contour>
		<contour>
			<point x="1838" y="290" type="curve" smooth="yes"/>
			<point x="1838" y="576"/>
			<point x="1688" y="694"/>
			<point x="1534" y="694" type="curve" smooth="yes"/>
			<point x="1356" y="694"/>
			<point x="1182" y="564"/>
			<point x="1182" y="292" type="curve" smooth="yes"/>
			<point x="1182" y="8"/>
			<point x="1364" y="-112"/>
			<point x="1534" y="-112" type="curve" smooth="yes"/>
			<point x="1694" y="-112"/>
			<point x="1838" y="16"/>
		</contour>
	</outline>
</glyph>
<glyph name="ampersand" format="2">
	<unicode hex="0026"/>
	<advance width="1840"/>
	<outline>
		<contour>
			<point x="1518" y="882" type="curve" smooth="yes"/>
			<point x="1450" y="882"/>
			<point x="1400" y="884"/>
			<point x="1278" y="888" type="curve"/>
			<point x="1278" y="790" type="line"/>
			<point x="1330" y="790"/>
			<point x="1366" y="790"/>
			<point x="1414" y="770" type="curve"/>
			<point x="1414" y="770"/>
			<point x="1414" y="770"/>
			<point x="1414" y="770" type="curve"/>
			<point x="1214" y="466"/>
			<point x="1104" y="362"/>
			<point x="1020" y="282" type="curve"/>
			<point x="894" y="416"/>
			<point x="728" y="598"/>
			<point x="660" y="752" type="curve"/>
			<point x="864" y="926"/>
			<point x="956" y="1040"/>
			<point x="956" y="1144" type="curve" smooth="yes"/>
			<point x="956" y="1254"/>
			<point x="886" y="1412"/>
			<point x="724" y="1412" type="curve" smooth="yes"/>
			<point x="564" y="1412"/>
			<point x="354" y="1294"/>
			<point x="354" y="1052" type="curve" smooth="yes"/>
			<point x="354" y="944"/>
			<point x="376" y="828"/>
			<point x="438" y="672" type="curve"/>
			<point x="368" y="615"/>
			<point x="298" y="559"/>
			<point x="228" y="502" type="curve" smooth="yes"/>
			<point x="174" y="456"/>
			<point x="98" y="394"/>
			<point x="98" y="278" type="curve" smooth="yes"/>
			<point x="98" y="92"/>
			<point x="292" y="-24"/>
			<point x="528" y="-24" type="curve" smooth="yes"/>
			<point x="656" y="-24"/>
			<point x="788" y="10"/>
			<point x="934" y="100" type="curve"/>
			<point x="1020" y="50"/>
			<point x="1184" y="-24"/>
			<point x="1372" y="-24" type="curve" smooth="yes"/>
			<point x="1538" y="-24"/>
			<point x="1700" y="64"/>
			<point x="1706" y="234" type="curve"/>
			<point x="1604" y="234" type="line"/>
			<point x="1594" y="86"/>
			<point x="1416" y="74"/>
			<point x="1382" y="74" type="curve" smooth="yes"/>
			<point x="1310" y="74"/>
			<point x="1220" y="100"/>
			<point x="1090" y="216" type="curve"/>
			<point x="1236" y="356"/>
			<point x="1268" y="390"/>
			<point x="1468" y="672" type="curve" smooth="yes"/>
			<point x="1488" y="700"/>
			<point x="1508" y="728"/>
			<point x="1528" y="756" type="curve" smooth="yes"/>
			<point x="1552" y="790"/>
			<point x="1632" y="790"/>
			<point x="1720" y="790" type="curve"/>
			<point x="1720" y="888" type="line"/>
			<point x="1650" y="882"/>
			<point x="1586" y="882"/>
		</contour>
		<contour>
			<point x="476" y="600" type="curve"/>
			<point x="524" y="504"/>
			<point x="654" y="298"/>
			<point x="848" y="158" type="curve"/>
			<point x="800" y="132"/>
			<point x="690" y="74"/>
			<point x="548" y="74" type="curve" smooth="yes"/>
			<point x="394" y="74"/>
			<point x="364" y="264"/>
			<point x="364" y="346" type="curve" smooth="yes"/>
			<point x="364" y="438"/>
			<point x="390" y="540"/>
		</contour>
		<contour>
			<point x="626" y="830" type="curve"/>
			<point x="620" y="848"/>
			<point x="568" y="980"/>
			<point x="568" y="1128" type="curve" smooth="yes"/>
			<point x="568" y="1284"/>
			<point x="670" y="1332"/>
			<point x="726" y="1332" type="curve" smooth="yes"/>
			<point x="828" y="1332"/>
			<point x="854" y="1202"/>
			<point x="854" y="1144" type="curve" smooth="yes"/>
			<point x="854" y="1014"/>
			<point x="642" y="844"/>
		</contour>
	</outline>
</glyph>
<glyph name="parenleft" format="2">
	<unicode hex="0028"/>
	<advance width="920"/>
	<outline>
		<contour>
			<point x="220" y="500" type="curve" smooth="yes"/>
			<point x="220" y="18"/>
			<point x="464" y="-276"/>
			<point x="568" y="-374" type="curve" smooth="yes"/>
			<point x="584" y="-388"/>
			<point x="702" y="-500"/>
			<point x="746" y="-500" type="curve" smooth="yes"/>
			<point x="754" y="-500"/>
			<point x="786" y="-500"/>
			<point x="786" y="-468" type="curve" smooth="yes"/>
			<point x="786" y="-456"/>
			<point x="780" y="-450"/>
			<point x="756" y="-426" type="curve" smooth="yes"/>
			<point x="494" y="-180"/>
			<point x="422" y="176"/>
			<point x="422" y="500" type="curve" smooth="yes"/>
			<point x="422" y="834"/>
			<point x="500" y="1182"/>
			<point x="748" y="1422" type="curve" smooth="yes"/>
			<point x="784" y="1456"/>
			<point x="786" y="1458"/>
			<point x="786" y="1470" type="curve" smooth="yes"/>
			<point x="786" y="1494"/>
			<point x="764" y="1500"/>
			<point x="746" y="1500" type="curve" smooth="yes"/>
			<point x="704" y="1500"/>
			<point x="598" y="1400"/>
			<point x="576" y="1378" type="curve" smooth="yes"/>
			<point x="376" y="1190"/>
			<point x="220" y="880"/>
		</contour>
	</outline>
</glyph>
<glyph name="parenright" format="2">
  <advance width="460"/>
  <unicode hex="0029"/>
  <outline>
    <contour>
      <point x="349" y="250" type="curve" smooth="yes"/>
      <point x="349" y="491"/>
      <point x="227" y="638"/>
      <point x="175" y="687" type="curve" smooth="yes"/>
      <point x="167" y="694"/>
      <point x="108" y="750"/>
      <point x="86" y="750" type="curve" smooth="yes"/>
      <point x="79" y="750"/>
      <point x="66" y="748"/>
      <point x="66" y="734" type="curve" smooth="yes"/>
      <point x="66" y="728"/>
      <point x="70" y="724"/>
      <point x="80" y="714" type="curve" smooth="yes"/>
      <point x="202" y="596"/>
      <point x="248" y="437"/>
      <point x="248" y="250" type="curve" smooth="yes"/>
      <point x="248" y="83"/>
      <point x="209" y="-91"/>
      <point x="85" y="-211" type="curve" smooth="yes"/>
      <point x="67" y="-228"/>
      <point x="66" y="-229"/>
      <point x="66" y="-234" type="curve" smooth="yes"/>
      <point x="66" y="-248"/>
      <point x="78" y="-250"/>
      <point x="86" y="-250" type="curve" smooth="yes"/>
      <point x="107" y="-250"/>
      <point x="160" y="-200"/>
      <point x="171" y="-189" type="curve" smooth="yes"/>
      <point x="271" y="-95"/>
      <point x="349" y="60"/>
    </contour>
  </outline>
</glyph>
<glyph name="asterisk" format="2">
	<unicode hex="002A"/>
	<advance width="1182"/>
	<outline>
		<contour>
			<point x="592" y="612" type="curve" smooth="yes"/>
			<point x="634" y="612"/>
			<point x="682" y="640"/>
			<point x="682" y="692" type="curve" smooth="yes"/>
			<point x="682" y="694"/>
			<point x="679" y="716"/>
			<point x="634" y="986" type="curve"/>
			<point x="882" y="806" type="line" smooth="yes"/>
			<point x="910" y="786"/>
			<point x="914" y="782"/>
			<point x="938" y="782" type="curve" smooth="yes"/>
			<point x="992" y="782"/>
			<point x="1030" y="836"/>
			<point x="1030" y="880" type="curve" smooth="yes"/>
			<point x="1030" y="938"/>
			<point x="988" y="954"/>
			<point x="966" y="962" type="curve" smooth="yes"/>
			<point x="686" y="1056" type="line"/>
			<point x="964" y="1150" type="line" smooth="yes"/>
			<point x="986" y="1158"/>
			<point x="1030" y="1172"/>
			<point x="1030" y="1232" type="curve" smooth="yes"/>
			<point x="1030" y="1276"/>
			<point x="994" y="1330"/>
			<point x="938" y="1330" type="curve" smooth="yes"/>
			<point x="926" y="1330"/>
			<point x="912" y="1330"/>
			<point x="882" y="1308" type="curve" smooth="yes"/>
			<point x="634" y="1126" type="line"/>
			<point x="682" y="1408"/>
			<point x="682" y="1416"/>
			<point x="682" y="1420" type="curve" smooth="yes"/>
			<point x="682" y="1468"/>
			<point x="638" y="1500"/>
			<point x="590" y="1500" type="curve" smooth="yes"/>
			<point x="548" y="1500"/>
			<point x="500" y="1472"/>
			<point x="500" y="1420" type="curve" smooth="yes"/>
			<point x="500" y="1418"/>
			<point x="503" y="1396"/>
			<point x="548" y="1126" type="curve"/>
			<point x="300" y="1306" type="line" smooth="yes"/>
			<point x="272" y="1326"/>
			<point x="268" y="1330"/>
			<point x="244" y="1330" type="curve" smooth="yes"/>
			<point x="190" y="1330"/>
			<point x="152" y="1276"/>
			<point x="152" y="1232" type="curve" smooth="yes"/>
			<point x="152" y="1174"/>
			<point x="194" y="1158"/>
			<point x="216" y="1150" type="curve" smooth="yes"/>
			<point x="496" y="1056" type="line"/>
			<point x="218" y="962" type="line" smooth="yes"/>
			<point x="196" y="954"/>
			<point x="152" y="940"/>
			<point x="152" y="880" type="curve" smooth="yes"/>
			<point x="152" y="836"/>
			<point x="188" y="782"/>
			<point x="244" y="782" type="curve" smooth="yes"/>
			<point x="256" y="782"/>
			<point x="270" y="782"/>
			<point x="300" y="804" type="curve" smooth="yes"/>
			<point x="548" y="986" type="line"/>
			<point x="500" y="704"/>
			<point x="500" y="696"/>
			<point x="500" y="692" type="curve" smooth="yes"/>
			<point x="500" y="644"/>
			<point x="544" y="612"/>
		</contour>
	</outline>
</glyph>
<glyph name="plus" format="2">
	<unicode hex="002B"/>
	<advance width="1840"/>
	<outline>
		<contour>
			<point x="984" y="436" type="line"/>
			<point x="1618" y="436" type="line" smooth="yes"/>
			<point x="1644" y="436"/>
			<point x="1706" y="436"/>
			<point x="1706" y="500" type="curve" smooth="yes"/>
			<point x="1706" y="564"/>
			<point x="1644" y="564"/>
			<point x="1618" y="564" type="curve" smooth="yes"/>
			<point x="984" y="564" type="line"/>
			<point x="984" y="1200" type="line" smooth="yes"/>
			<point x="984" y="1226"/>
			<point x="984" y="1288"/>
			<point x="920" y="1288" type="curve" smooth="yes"/>
			<point x="856" y="1288"/>
			<point x="856" y="1226"/>
			<point x="856" y="1200" type="curve" smooth="yes"/>
			<point x="856" y="564" type="line"/>
			<point x="220" y="564" type="line" smooth="yes"/>
			<point x="194" y="564"/>
			<point x="132" y="564"/>
			<point x="132" y="500" type="curve" smooth="yes"/>
			<point x="132" y="436"/>
			<point x="194" y="436"/>
			<point x="220" y="436" type="curve" smooth="yes"/>
			<point x="856" y="436" type="line"/>
			<point x="856" y="-200" type="line" smooth="yes"/>
			<point x="856" y="-226"/>
			<point x="856" y="-288"/>
			<point x="920" y="-288" type="curve" smooth="yes"/>
			<point x="984" y="-288"/>
			<point x="984" y="-226"/>
			<point x="984" y="-200" type="curve" smooth="yes"/>
		</contour>
	</outline>
</glyph>
<glyph name="comma" format="2">
	<unicode hex="002C"/>
	<advance width="656"/>
	<outline>
		<contour>
			<point x="172" y="158" type="curve" smooth="yes"/>
			<point x="172" y="78"/>
			<point x="226" y="0"/>
			<point x="330" y="0" type="curve" smooth="yes"/>
			<point x="372" y="0"/>
			<point x="408" y="16"/>
			<point x="430" y="34" type="curve"/>
			<point x="420" y="-126"/>
			<point x="342" y="-238"/>
			<point x="246" y="-314" type="curve" smooth="yes"/>
			<point x="236" y="-322"/>
			<point x="226" y="-328"/>
			<point x="226" y="-344" type="curve" smooth="yes"/>
			<point x="226" y="-364"/>
			<point x="250" y="-388"/>
			<point x="270" y="-388" type="curve" smooth="yes"/>
			<point x="300" y="-388"/>
			<point x="512" y="-216"/>
			<point x="512" y="62" type="curve" smooth="yes"/>
			<point x="512" y="200"/>
			<point x="442" y="314"/>
			<point x="328" y="314" type="curve" smooth="yes"/>
			<point x="228" y="314"/>
			<point x="172" y="236"/>
		</contour>
	</outline>
</glyph>
<glyph name="hyphen" format="2">
	<unicode hex="002D"/>
	<advance width="394"/>
	<outline>
		<contour>
			<point x="327" y="172" type="line"/>
			<point x="327" y="272" type="line"/>
			<point x="13" y="272" type="line"/>
			<point x="13" y="172" type="line"/>
		</contour>
	</outline>
</glyph>
<glyph name="period" format="2">
	<unicode hex="002E"/>
	<advance width="656"/>
	<outline>
		<contour>
			<point x="486" y="156" type="curve" smooth="yes"/>
			<point x="486" y="248"/>
			<point x="412" y="314"/>
			<point x="330" y="314" type="curve" smooth="yes"/>
			<point x="238" y="314"/>
			<point x="172" y="240"/>
			<point x="172" y="158" type="curve" smooth="yes"/>
			<point x="172" y="66"/>
			<point x="246" y="0"/>
			<point x="328" y="0" type="curve" smooth="yes"/>
			<point x="420" y="0"/>
			<point x="486" y="74"/>
		</contour>
	</outline>
</glyph>
<glyph name="slash" format="2">
	<unicode hex="002F"/>
	<advance width="1182"/>
	<outline>
		<contour>
			<point x="1038" y="1392" type="line" smooth="yes"/>
			<point x="1050" y="1420"/>
			<point x="1050" y="1432"/>
			<point x="1050" y="1436" type="curve" smooth="yes"/>
			<point x="1050" y="1474"/>
			<point x="1020" y="1500"/>
			<point x="986" y="1500" type="curve" smooth="yes"/>
			<point x="944" y="1500"/>
			<point x="932" y="1472"/>
			<point x="920" y="1442" type="curve" smooth="yes"/>
			<point x="144" y="-392" type="line" smooth="yes"/>
			<point x="132" y="-420"/>
			<point x="132" y="-432"/>
			<point x="132" y="-436" type="curve" smooth="yes"/>
			<point x="132" y="-474"/>
			<point x="162" y="-500"/>
			<point x="196" y="-500" type="curve" smooth="yes"/>
			<point x="238" y="-500"/>
			<point x="250" y="-472"/>
			<point x="262" y="-442" type="curve" smooth="yes"/>
		</contour>
	</outline>
</glyph>
<glyph name="zero" format="2">
	<unicode hex="0030"/>
	<advance width="591"/>
	<outline>
		<contour>
			<point x="295" y="-12" type="curve" smooth="yes"/>
			<point x="376.984" y="-12"/>
			<point x="432.098752" y="12.83712"/>
			<point x="469.144724992" y="50.031384576" type="curve" smooth="yes"/>
			<point x="542.354624" y="123.534336"/>
			<point x="545" y="245.296"/>
			<point x="545" y="319" type="curve" smooth="yes"/>
			<point x="545" y="388.22842"/>
			<point x="543.6180582077" y="518.7229261253"/>
			<point x="465.8191575149" y="595.4298254767" type="curve" smooth="yes"/>
			<point x="428.9904548237" y="631.7415929365"/>
			<point x="375" y="656"/>
			<point x="296" y="656" type="curve" smooth="yes"/>
			<point x="215" y="656"/>
			<point x="160.217312" y="630.979152"/>
			<point x="123.186042624" y="593.525918592" type="curve" smooth="yes"/>
			<point x="48.677344" y="518.168208"/>
			<point x="46" y="392"/>
			<point x="46" y="319" type="curve" smooth="yes"/>
			<point x="46" y="249"/>
			<point x="47.3494349872" y="124.1717255248"/>
			<point x="122.4514295388" y="49.3552265829" type="curve" smooth="yes"/>
			<point x="159.3283139632" y="12.6185273648"/>
			<point x="213.98728" y="-12"/>
		</contour>
		<contour>
			<point x="296" y="28" type="curve" smooth="yes"/>
			<point x="269" y="28"/>
			<point x="200" y="40"/>
			<point x="187" y="132" type="curve" smooth="yes"/>
			<point x="179" y="185"/>
			<point x="179" y="276"/>
			<point x="179" y="331" type="curve" smooth="yes"/>
			<point x="179" y="394"/>
			<point x="179" y="478"/>
			<point x="187" y="525" type="curve" smooth="yes"/>
			<point x="202" y="605"/>
			<point x="269" y="616"/>
			<point x="295" y="616" type="curve" smooth="yes"/>
			<point x="328" y="616"/>
			<point x="391" y="600"/>
			<point x="404" y="522" type="curve" smooth="yes"/>
			<point x="412" y="474"/>
			<point x="412" y="388"/>
			<point x="412" y="331" type="curve" smooth="yes"/>
			<point x="412" y="253"/>
			<point x="412" y="134"/>
			<point x="396" y="95" type="curve" smooth="yes"/>
			<point x="374" y="46"/>
			<point x="329" y="28"/>
		</contour>
	</outline>
</glyph>
<glyph name="one" format="2">
	<unicode hex="0031"/>
	<advance width="591"/>
	<outline>
		<contour>
			<point x="242" y="563" type="curve"/>
			<point x="242" y="49" type="line"/>
			<point x="242" y="49"/>
			<point x="242" y="49"/>
			<point x="242" y="49" type="curve"/>
			<point x="99" y="49" type="line"/>
			<point x="99" y="0" type="line"/>
			<point x="137" y="3"/>
			<point x="258" y="3"/>
			<point x="303" y="3" type="curve" smooth="yes"/>
			<point x="350" y="3"/>
			<point x="468" y="3"/>
			<point x="509" y="0" type="curve"/>
			<point x="509" y="49" type="line"/>
			<point x="364" y="49" type="line"/>
			<point x="364" y="49"/>
			<point x="364" y="49"/>
			<point x="364" y="49" type="curve"/>
			<point x="364" y="623" type="line" smooth="yes"/>
			<point x="364" y="645"/>
			<point x="364" y="656"/>
			<point x="335" y="656" type="curve" smooth="yes"/>
			<point x="323" y="656"/>
			<point x="321" y="656"/>
			<point x="312" y="649" type="curve" smooth="yes"/>
			<point x="235" y="592"/>
			<point x="128" y="592"/>
			<point x="108" y="592" type="curve" smooth="yes"/>
			<point x="101.34" y="592"/>
			<point x="94.68" y="592"/>
			<point x="88" y="592" type="curve"/>
			<point x="88" y="575.683"/>
			<point x="88" y="559.366"/>
			<point x="88" y="543" type="curve"/>
			<point x="108" y="543" type="line" smooth="yes"/>
			<point x="132" y="543"/>
			<point x="186" y="546"/>
		</contour>
	</outline>
</glyph>
<glyph name="two" format="2">
	<unicode hex="0032"/>
	<advance width="1182"/>
	<outline>
		<contour>
			<point x="778" y="926" type="curve" smooth="yes"/>
			<point x="778" y="782"/>
			<point x="692" y="650"/>
			<point x="586" y="542" type="curve" smooth="yes"/>
			<point x="140" y="102" type="line" smooth="yes"/>
			<point x="118" y="80"/>
			<point x="118" y="78"/>
			<point x="118" y="38" type="curve" smooth="yes"/>
			<point x="118" y="0" type="line"/>
			<point x="1002" y="0" type="line"/>
			<point x="1064" y="450" type="line"/>
			<point x="962" y="450" type="line"/>
			<point x="958" y="422"/>
			<point x="940" y="280"/>
			<point x="910" y="266" type="curve"/>
			<point x="884" y="256"/>
			<point x="736" y="256"/>
			<point x="702" y="256" type="curve" smooth="yes"/>
			<point x="416" y="256" type="line"/>
			<point x="522" y="342"/>
			<point x="642" y="436"/>
			<point x="742" y="506" type="curve" smooth="yes"/>
			<point x="910" y="624"/>
			<point x="1064" y="732"/>
			<point x="1064" y="928" type="curve" smooth="yes"/>
			<point x="1064" y="1162"/>
			<point x="850" y="1312"/>
			<point x="560" y="1312" type="curve" smooth="yes"/>
			<point x="312" y="1312"/>
			<point x="118" y="1194"/>
			<point x="118" y="1010" type="curve" smooth="yes"/>
			<point x="118" y="906"/>
			<point x="198" y="858"/>
			<point x="268" y="858" type="curve" smooth="yes"/>
			<point x="332" y="858"/>
			<point x="416" y="904"/>
			<point x="416" y="1008" type="curve" smooth="yes"/>
			<point x="416" y="1052"/>
			<point x="398" y="1126"/>
			<point x="310" y="1150" type="curve"/>
			<point x="380" y="1206"/>
			<point x="470" y="1214"/>
			<point x="510" y="1214" type="curve" smooth="yes"/>
			<point x="674" y="1214"/>
			<point x="778" y="1092"/>
		</contour>
	</outline>
</glyph>
<glyph name="three" format="2">
  <advance width="591"/>
  <unicode hex="0033"/>
  <outline>
    <contour>
      <point x="283" y="-12" type="curve" smooth="yes"/>
      <point x="466" y="-12"/>
      <point x="542" y="88"/>
      <point x="542" y="180" type="curve" smooth="yes"/>
      <point x="542" y="259"/>
      <point x="482" y="328"/>
      <point x="369" y="352" type="curve"/>
      <point x="470" y="387"/>
      <point x="509" y="456"/>
      <point x="509" y="517" type="curve" smooth="yes"/>
      <point x="509" y="592"/>
      <point x="434" y="656"/>
      <point x="285" y="656" type="curve" smooth="yes"/>
      <point x="162" y="656"/>
      <point x="82" y="590"/>
      <point x="82" y="509" type="curve" smooth="yes"/>
      <point x="82" y="464"/>
      <point x="114" y="436"/>
      <point x="154" y="436" type="curve" smooth="yes"/>
      <point x="197" y="436"/>
      <point x="226" y="467"/>
      <point x="226" y="508" type="curve" smooth="yes"/>
      <point x="226" y="541"/>
      <point x="207" y="570"/>
      <point x="167" y="579" type="curve"/>
      <point x="175" y="586"/>
      <point x="216" y="616"/>
      <point x="280" y="616" type="curve" smooth="yes"/>
      <point x="367" y="616"/>
      <point x="367" y="551"/>
      <point x="367" y="519" type="curve" smooth="yes"/>
      <point x="367" y="463"/>
      <point x="346" y="376"/>
      <point x="260" y="371" type="curve"/>
      <point x="257" y="371"/>
      <point x="224" y="369"/>
      <point x="213" y="368" type="curve" smooth="yes"/>
      <point x="197" y="366"/>
      <point x="197" y="355"/>
      <point x="197" y="348" type="curve" smooth="yes"/>
      <point x="197" y="328"/>
      <point x="208" y="328"/>
      <point x="226" y="328" type="curve" smooth="yes"/>
      <point x="273" y="328" type="line" smooth="yes"/>
      <point x="385" y="328"/>
      <point x="385" y="230"/>
      <point x="385" y="180" type="curve" smooth="yes"/>
      <point x="385" y="135"/>
      <point x="385" y="33"/>
      <point x="278" y="33" type="curve" smooth="yes"/>
      <point x="266" y="33"/>
      <point x="197" y="35"/>
      <point x="151" y="68" type="curve"/>
      <point x="197" y="81"/>
      <point x="207" y="120"/>
      <point x="207" y="143" type="curve" smooth="yes"/>
      <point x="207" y="190"/>
      <point x="174" y="222"/>
      <point x="128" y="222" type="curve" smooth="yes"/>
      <point x="85" y="222"/>
      <point x="49" y="193"/>
      <point x="49" y="142" type="curve" smooth="yes"/>
      <point x="49" y="48"/>
      <point x="149" y="-12"/>
    </contour>
  </outline>
</glyph>
<glyph name="four" format="2">
	<unicode hex="0034"/>
	<advance width="1182"/>
	<outline>
		<contour>
			<point x="660" y="310" type="line"/>
			<point x="660" y="98" type="line"/>
			<point x="660" y="98"/>
			<point x="660" y="98"/>
			<point x="660" y="98" type="curve"/>
			<point x="430" y="98" type="line"/>
			<point x="430" y="0" type="line"/>
			<point x="500" y="6"/>
			<point x="700" y="6"/>
			<point x="782" y="6" type="curve" smooth="yes"/>
			<point x="864" y="6"/>
			<point x="1042" y="6"/>
			<point x="1116" y="0" type="curve"/>
			<point x="1116" y="98" type="line"/>
			<point x="916" y="98" type="line"/>
			<point x="916" y="98"/>
			<point x="916" y="98"/>
			<point x="916" y="98" type="curve"/>
			<point x="916" y="310" type="line"/>
			<point x="1116" y="310" type="line"/>
			<point x="1116" y="408" type="line"/>
			<point x="916" y="408" type="line"/>
			<point x="916" y="1248" type="line" smooth="yes"/>
			<point x="916" y="1306"/>
			<point x="910" y="1316"/>
			<point x="850" y="1316" type="curve" smooth="yes"/>
			<point x="802" y="1316"/>
			<point x="798" y="1312"/>
			<point x="778" y="1286" type="curve" smooth="yes"/>
			<point x="66" y="408" type="line"/>
			<point x="66" y="310" type="line"/>
		</contour>
		<contour>
			<point x="180" y="408" type="line"/>
			<point x="684" y="1030" type="line"/>
			<point x="684" y="408" type="line"/>
		</contour>
	</outline>
</glyph>
<glyph name="five" format="2">
	<unicode hex="0035"/>
	<advance width="1182"/>
	<outline>
		<contour>
			<point x="532" y="-24" type="curve" smooth="yes"/>
			<point x="874" y="-24"/>
			<point x="1064" y="166"/>
			<point x="1064" y="402" type="curve" smooth="yes"/>
			<point x="1064" y="630"/>
			<point x="902" y="820"/>
			<point x="598" y="820" type="curve" smooth="yes"/>
			<point x="506" y="820"/>
			<point x="420" y="804"/>
			<point x="336" y="752" type="curve"/>
			<point x="336" y="1006" type="line"/>
			<point x="404" y="994"/>
			<point x="436" y="994"/>
			<point x="478" y="994" type="curve" smooth="yes"/>
			<point x="534" y="994"/>
			<point x="662" y="994"/>
			<point x="812" y="1094" type="curve" smooth="yes"/>
			<point x="856" y="1122"/>
			<point x="972" y="1220"/>
			<point x="972" y="1272" type="curve" smooth="yes"/>
			<point x="972" y="1280"/>
			<point x="972" y="1312"/>
			<point x="940" y="1312" type="curve" smooth="yes"/>
			<point x="936" y="1312"/>
			<point x="932" y="1310"/>
			<point x="910" y="1302" type="curve" smooth="yes"/>
			<point x="808" y="1264"/>
			<point x="698" y="1248"/>
			<point x="594" y="1248" type="curve" smooth="yes"/>
			<point x="470" y="1248"/>
			<point x="368" y="1272"/>
			<point x="282" y="1302" type="curve" smooth="yes"/>
			<point x="256" y="1312"/>
			<point x="252" y="1312"/>
			<point x="248" y="1312" type="curve" smooth="yes"/>
			<point x="218" y="1312"/>
			<point x="218" y="1286"/>
			<point x="218" y="1256" type="curve" smooth="yes"/>
			<point x="218" y="666" type="line" smooth="yes"/>
			<point x="218" y="630"/>
			<point x="218" y="602"/>
			<point x="266" y="602" type="curve" smooth="yes"/>
			<point x="292" y="602"/>
			<point x="296" y="604"/>
			<point x="318" y="630" type="curve" smooth="yes"/>
			<point x="400" y="724"/>
			<point x="510" y="740"/>
			<point x="588" y="740" type="curve" smooth="yes"/>
			<point x="644" y="740"/>
			<point x="683" y="724"/>
			<point x="710" y="698" type="curve" smooth="yes"/>
			<point x="774" y="637"/>
			<point x="774" y="518"/>
			<point x="774" y="408" type="curve" smooth="yes"/>
			<point x="774" y="314"/>
			<point x="774" y="196"/>
			<point x="703" y="126" type="curve" smooth="yes"/>
			<point x="666" y="89"/>
			<point x="610" y="66"/>
			<point x="524" y="66" type="curve" smooth="yes"/>
			<point x="414" y="66"/>
			<point x="318" y="118"/>
			<point x="268" y="182" type="curve"/>
			<point x="352" y="190"/>
			<point x="396" y="248"/>
			<point x="396" y="320" type="curve" smooth="yes"/>
			<point x="396" y="418"/>
			<point x="322" y="460"/>
			<point x="258" y="460" type="curve" smooth="yes"/>
			<point x="196" y="460"/>
			<point x="118" y="422"/>
			<point x="118" y="316" type="curve" smooth="yes"/>
			<point x="118" y="142"/>
			<point x="280" y="-24"/>
		</contour>
	</outline>
</glyph>
<glyph name="six" format="2">
  <advance width="591"/>
  <unicode hex="0036"/>
  <outline>
    <contour>
      <point x="49" y="317" type="curve" smooth="yes"/>
      <point x="49" y="268"/>
      <point x="52" y="171"/>
      <point x="95" y="99" type="curve" smooth="yes"/>
      <point x="139" y="23"/>
      <point x="209" y="-12"/>
      <point x="300" y="-12" type="curve" smooth="yes"/>
      <point x="362.19884" y="-12.0"/>
      <point x="416.3394961432" y="3.732644672800001"/>
      <point x="457.54769580599475" y="32.76079770659737" type="curve" smooth="yes"/>
      <point x="510.41784796" y="70.0039405812"/>
      <point x="542.0" y="129.1327"/>
      <point x="542" y="205" type="curve" smooth="yes"/>
      <point x="542" y="259"/>
      <point x="532" y="314"/>
      <point x="473" y="366" type="curve" smooth="yes"/>
      <point x="422" y="410"/>
      <point x="370" y="420"/>
      <point x="308" y="420" type="curve" smooth="yes"/>
      <point x="244" y="420"/>
      <point x="206" y="374"/>
      <point x="190" y="344" type="curve"/>
      <point x="188" y="483"/>
      <point x="215" y="526"/>
      <point x="225" y="543" type="curve" smooth="yes"/>
      <point x="254" y="589"/>
      <point x="307" y="616"/>
      <point x="361" y="616" type="curve" smooth="yes"/>
      <point x="379" y="616"/>
      <point x="411" y="614"/>
      <point x="435" y="591" type="curve"/>
      <point x="395" y="582"/>
      <point x="382" y="552"/>
      <point x="382" y="527" type="curve" smooth="yes"/>
      <point x="382" y="485"/>
      <point x="414" y="462"/>
      <point x="447" y="462" type="curve" smooth="yes"/>
      <point x="474" y="462"/>
      <point x="512" y="479"/>
      <point x="512" y="529" type="curve" smooth="yes"/>
      <point x="512" y="591"/>
      <point x="471" y="656"/>
      <point x="359" y="656" type="curve" smooth="yes"/>
      <point x="214" y="656"/>
      <point x="49" y="565"/>
    </contour>
    <contour>
      <point x="298" y="33" type="curve" smooth="yes"/>
      <point x="239" y="33"/>
      <point x="212" y="78"/>
      <point x="205" y="95" type="curve" smooth="yes"/>
      <point x="192" y="127"/>
      <point x="192" y="207"/>
      <point x="192" y="210" type="curve" smooth="yes"/>
      <point x="192" y="314"/>
      <point x="235" y="379"/>
      <point x="305" y="379" type="curve" smooth="yes"/>
      <point x="339" y="379"/>
      <point x="360.95874666559996" y="369.9685799992"/>
      <point x="375.1401573590444" y="353.8604754552954" type="curve" smooth="yes"/>
      <point x="401.0" y="324.4873011108"/>
      <point x="401" y="272"/>
      <point x="401" y="207" type="curve" smooth="yes"/>
      <point x="401" y="140"/>
      <point x="401.0" y="85.84544341079999"/>
      <point x="371.36233056105954" y="56.522396589218644" type="curve" smooth="yes"/>
      <point x="356.1073638817" y="41.42937103530001"/>
      <point x="333.00043" y="33.000000000000014"/>
    </contour>
  </outline>
</glyph>
<glyph name="seven" format="2">
	<unicode hex="0037"/>
	<advance width="1182"/>
	<outline>
		<contour>
			<point x="526" y="-24" type="curve" smooth="yes"/>
			<point x="580" y="-24"/>
			<point x="616" y="8"/>
			<point x="626" y="18" type="curve"/>
			<point x="656" y="60"/>
			<point x="656" y="70"/>
			<point x="656" y="184" type="curve" smooth="yes"/>
			<point x="656" y="442"/>
			<point x="680" y="684"/>
			<point x="810" y="830" type="curve" smooth="yes"/>
			<point x="917" y="950"/>
			<point x="1023" y="1070"/>
			<point x="1130" y="1190" type="curve" smooth="yes"/>
			<point x="1148" y="1212"/>
			<point x="1150" y="1224"/>
			<point x="1150" y="1230" type="curve" smooth="yes"/>
			<point x="1150" y="1288" type="line"/>
			<point x="694" y="1288" type="line" smooth="yes"/>
			<point x="652" y="1288"/>
			<point x="372" y="1300"/>
			<point x="350" y="1306" type="curve" smooth="yes"/>
			<point x="310" y="1316"/>
			<point x="308" y="1330"/>
			<point x="304" y="1352" type="curve"/>
			<point x="202" y="1352" type="line"/>
			<point x="132" y="838" type="line"/>
			<point x="234" y="838" type="line"/>
			<point x="256" y="1008"/>
			<point x="286" y="1020"/>
			<point x="288" y="1020" type="curve"/>
			<point x="318" y="1032"/>
			<point x="470" y="1032"/>
			<point x="510" y="1032" type="curve" smooth="yes"/>
			<point x="842" y="1032" type="line"/>
			<point x="638" y="798"/>
			<point x="638" y="794"/>
			<point x="596" y="732" type="curve" smooth="yes"/>
			<point x="432" y="484"/>
			<point x="396" y="256"/>
			<point x="396" y="120" type="curve" smooth="yes"/>
			<point x="396" y="-20"/>
			<point x="506" y="-24"/>
		</contour>
	</outline>
</glyph>
<glyph name="eight" format="2">
	<unicode hex="0038"/>
	<advance width="1182"/>
	<outline>
		<contour>
			<point x="588" y="-24" type="curve" smooth="yes"/>
			<point x="912" y="-24"/>
			<point x="1084" y="146"/>
			<point x="1084" y="374" type="curve" smooth="yes"/>
			<point x="1084" y="586"/>
			<point x="920" y="680"/>
			<point x="814" y="740" type="curve"/>
			<point x="958" y="810"/>
			<point x="1018" y="906"/>
			<point x="1018" y="1018" type="curve" smooth="yes"/>
			<point x="1018" y="1210"/>
			<point x="850" y="1312"/>
			<point x="596" y="1312" type="curve" smooth="yes"/>
			<point x="308" y="1312"/>
			<point x="164" y="1154"/>
			<point x="164" y="958" type="curve" smooth="yes"/>
			<point x="164" y="880"/>
			<point x="195" y="797"/>
			<point x="262" y="729" type="curve" smooth="yes"/>
			<point x="287" y="704"/>
			<point x="318" y="680"/>
			<point x="354" y="660" type="curve"/>
			<point x="248" y="604"/>
			<point x="98" y="524"/>
			<point x="98" y="322" type="curve" smooth="yes"/>
			<point x="98" y="74"/>
			<point x="322" y="-24"/>
		</contour>
		<contour>
			<point x="594" y="66" type="curve" smooth="yes"/>
			<point x="416" y="66"/>
			<point x="278" y="148"/>
			<point x="278" y="324" type="curve" smooth="yes"/>
			<point x="278" y="416"/>
			<point x="316" y="520"/>
			<point x="458" y="602" type="curve"/>
			<point x="528" y="566"/>
			<point x="688" y="478"/>
			<point x="724" y="458" type="curve" smooth="yes"/>
			<point x="832" y="398"/>
			<point x="904" y="360"/>
			<point x="904" y="264" type="curve" smooth="yes"/>
			<point x="904" y="78"/>
			<point x="670" y="66"/>
		</contour>
		<contour>
			<point x="716" y="794" type="curve"/>
			<point x="613" y="849"/>
			<point x="510" y="905"/>
			<point x="406" y="960" type="curve" smooth="yes"/>
			<point x="396" y="966"/>
			<point x="320" y="1008"/>
			<point x="320" y="1078" type="curve" smooth="yes"/>
			<point x="320" y="1210"/>
			<point x="476" y="1232"/>
			<point x="586" y="1232" type="curve" smooth="yes"/>
			<point x="764" y="1232"/>
			<point x="862" y="1148"/>
			<point x="862" y="1016" type="curve" smooth="yes"/>
			<point x="862" y="912"/>
			<point x="798" y="838"/>
		</contour>
	</outline>
</glyph>
<glyph name="nine" format="2">
	<unicode hex="0039"/>
	<advance width="1182"/>
	<outline>
		<contour>
			<point x="492" y="-24" type="curve" smooth="yes"/>
			<point x="770" y="-24"/>
			<point x="1084" y="154"/>
			<point x="1084" y="658" type="curve" smooth="yes"/>
			<point x="1084" y="828"/>
			<point x="1070" y="1312"/>
			<point x="594" y="1312" type="curve" smooth="yes"/>
			<point x="459" y="1312"/>
			<point x="342" y="1277"/>
			<point x="255" y="1212" type="curve" smooth="yes"/>
			<point x="157" y="1138"/>
			<point x="98" y="1025"/>
			<point x="98" y="880" type="curve" smooth="yes"/>
			<point x="98" y="735"/>
			<point x="155" y="613"/>
			<point x="262" y="537" type="curve" smooth="yes"/>
			<point x="339" y="482"/>
			<point x="441" y="450"/>
			<point x="566" y="450" type="curve" smooth="yes"/>
			<point x="654" y="450"/>
			<point x="740" y="494"/>
			<point x="802" y="602" type="curve"/>
			<point x="804" y="434"/>
			<point x="788" y="308"/>
			<point x="750" y="224" type="curve" smooth="yes"/>
			<point x="724" y="172"/>
			<point x="644" y="66"/>
			<point x="488" y="66" type="curve" smooth="yes"/>
			<point x="472" y="66"/>
			<point x="386" y="66"/>
			<point x="324" y="108" type="curve"/>
			<point x="392" y="130"/>
			<point x="418" y="182"/>
			<point x="418" y="234" type="curve" smooth="yes"/>
			<point x="418" y="318"/>
			<point x="354" y="364"/>
			<point x="288" y="364" type="curve" smooth="yes"/>
			<point x="234" y="364"/>
			<point x="158" y="330"/>
			<point x="158" y="230" type="curve" smooth="yes"/>
			<point x="158" y="94"/>
			<point x="260" y="-24"/>
		</contour>
		<contour>
			<point x="572" y="532" type="curve" smooth="yes"/>
			<point x="506" y="532"/>
			<point x="463" y="549"/>
			<point x="434" y="580" type="curve" smooth="yes"/>
			<point x="380" y="639"/>
			<point x="380" y="746"/>
			<point x="380" y="876" type="curve" smooth="yes"/>
			<point x="380" y="1001"/>
			<point x="380" y="1112"/>
			<point x="438" y="1176" type="curve" smooth="yes"/>
			<point x="470" y="1211"/>
			<point x="520" y="1232"/>
			<point x="598" y="1232" type="curve" smooth="yes"/>
			<point x="724" y="1232"/>
			<point x="770" y="1120"/>
			<point x="776" y="1102" type="curve" smooth="yes"/>
			<point x="800" y="1036"/>
			<point x="800" y="926"/>
			<point x="800" y="858" type="curve" smooth="yes"/>
			<point x="800" y="766"/>
			<point x="764" y="532"/>
		</contour>
	</outline>
</glyph>
<glyph name="colon" format="2">
	<unicode hex="003A"/>
	<advance width="656"/>
	<outline>
		<contour>
			<point x="486" y="730" type="curve" smooth="yes"/>
			<point x="486" y="822"/>
			<point x="412" y="888"/>
			<point x="330" y="888" type="curve" smooth="yes"/>
			<point x="238" y="888"/>
			<point x="172" y="814"/>
			<point x="172" y="732" type="curve" smooth="yes"/>
			<point x="172" y="644"/>
			<point x="242" y="574"/>
			<point x="330" y="574" type="curve" smooth="yes"/>
			<point x="416" y="574"/>
			<point x="486" y="644"/>
		</contour>
		<contour>
			<point x="486" y="156" type="curve" smooth="yes"/>
			<point x="486" y="248"/>
			<point x="412" y="314"/>
			<point x="330" y="314" type="curve" smooth="yes"/>
			<point x="238" y="314"/>
			<point x="172" y="240"/>
			<point x="172" y="158" type="curve" smooth="yes"/>
			<point x="172" y="66"/>
			<point x="246" y="0"/>
			<point x="328" y="0" type="curve" smooth="yes"/>
			<point x="420" y="0"/>
			<point x="486" y="74"/>
		</contour>
	</outline>
</glyph>
<glyph name="semicolon" format="2">
	<unicode hex="003B"/>
	<advance width="656"/>
	<outline>
		<contour>
			<point x="330" y="574" type="curve" smooth="yes"/>
			<point x="416" y="574"/>
			<point x="486" y="644"/>
			<point x="486" y="730" type="curve" smooth="yes"/>
			<point x="486" y="822"/>
			<point x="412" y="888"/>
			<point x="330" y="888" type="curve" smooth="yes"/>
			<point x="238" y="888"/>
			<point x="172" y="814"/>
			<point x="172" y="732" type="curve" smooth="yes"/>
			<point x="172" y="644"/>
			<point x="242" y="574"/>
		</contour>
		<contour>
			<point x="270" y="-388" type="curve" smooth="yes"/>
			<point x="300" y="-388"/>
			<point x="492" y="-208"/>
			<point x="492" y="64" type="curve" smooth="yes"/>
			<point x="492" y="204"/>
			<point x="436" y="314"/>
			<point x="328" y="314" type="curve" smooth="yes"/>
			<point x="228" y="314"/>
			<point x="172" y="236"/>
			<point x="172" y="158" type="curve" smooth="yes"/>
			<point x="172" y="78"/>
			<point x="226" y="0"/>
			<point x="330" y="0" type="curve" smooth="yes"/>
			<point x="360" y="0"/>
			<point x="390" y="8"/>
			<point x="410" y="20" type="curve"/>
			<point x="392" y="-178"/>
			<point x="276" y="-284"/>
			<point x="238" y="-320" type="curve" smooth="yes"/>
			<point x="232" y="-326"/>
			<point x="226" y="-336"/>
			<point x="226" y="-344" type="curve" smooth="yes"/>
			<point x="226" y="-364"/>
			<point x="250" y="-388"/>
		</contour>
	</outline>
</glyph>
<glyph name="equal" format="2">
	<unicode hex="003D"/>
	<advance width="1840"/>
	<outline>
		<contour>
			<point x="1616" y="668" type="line" smooth="yes"/>
			<point x="1644" y="668"/>
			<point x="1706" y="668"/>
			<point x="1706" y="732" type="curve" smooth="yes"/>
			<point x="1706" y="796"/>
			<point x="1644" y="796"/>
			<point x="1618" y="796" type="curve" smooth="yes"/>
			<point x="220" y="796" type="line" smooth="yes"/>
			<point x="194" y="796"/>
			<point x="132" y="796"/>
			<point x="132" y="732" type="curve" smooth="yes"/>
			<point x="132" y="668"/>
			<point x="196" y="668"/>
			<point x="222" y="668" type="curve" smooth="yes"/>
		</contour>
		<contour>
			<point x="1618" y="204" type="line" smooth="yes"/>
			<point x="1644" y="204"/>
			<point x="1706" y="204"/>
			<point x="1706" y="268" type="curve" smooth="yes"/>
			<point x="1706" y="332"/>
			<point x="1642" y="332"/>
			<point x="1616" y="332" type="curve" smooth="yes"/>
			<point x="222" y="332" type="line" smooth="yes"/>
			<point x="196" y="332"/>
			<point x="132" y="332"/>
			<point x="132" y="268" type="curve" smooth="yes"/>
			<point x="132" y="204"/>
			<point x="194" y="204"/>
			<point x="220" y="204" type="curve" smooth="yes"/>
		</contour>
	</outline>
</glyph>
<glyph name="question" format="2">
	<unicode hex="003F"/>
	<advance width="1116"/>
	<outline>
		<contour>
			<point x="984" y="1140" type="curve" smooth="yes"/>
			<point x="984" y="1400"/>
			<point x="616" y="1400"/>
			<point x="540" y="1400" type="curve" smooth="yes"/>
			<point x="252" y="1400"/>
			<point x="132" y="1272"/>
			<point x="132" y="1144" type="curve" smooth="yes"/>
			<point x="132" y="1042"/>
			<point x="214" y="1010"/>
			<point x="262" y="1010" type="curve" smooth="yes"/>
			<point x="324" y="1010"/>
			<point x="392" y="1056"/>
			<point x="392" y="1140" type="curve" smooth="yes"/>
			<point x="392" y="1216"/>
			<point x="342" y="1252"/>
			<point x="308" y="1264" type="curve"/>
			<point x="388" y="1318"/>
			<point x="492" y="1320"/>
			<point x="528" y="1320" type="curve" smooth="yes"/>
			<point x="714" y="1320"/>
			<point x="718" y="1250"/>
			<point x="718" y="1154" type="curve" smooth="yes"/>
			<point x="718" y="1054"/>
			<point x="696" y="1030"/>
			<point x="654" y="988" type="curve" smooth="yes"/>
			<point x="474" y="808"/>
			<point x="474" y="618"/>
			<point x="474" y="542" type="curve" smooth="yes"/>
			<point x="474" y="530"/>
			<point x="474" y="518"/>
			<point x="474" y="506" type="curve" smooth="yes"/>
			<point x="474" y="456"/>
			<point x="482" y="452"/>
			<point x="526" y="452" type="curve" smooth="yes"/>
			<point x="576" y="452"/>
			<point x="576" y="468"/>
			<point x="576" y="512" type="curve" smooth="yes"/>
			<point x="576" y="558" type="line" smooth="yes"/>
			<point x="576" y="714"/>
			<point x="664" y="834"/>
			<point x="858" y="942" type="curve" smooth="yes"/>
			<point x="954" y="996"/>
			<point x="984" y="1076"/>
		</contour>
		<contour>
			<point x="682" y="156" type="curve" smooth="yes"/>
			<point x="682" y="248"/>
			<point x="608" y="314"/>
			<point x="526" y="314" type="curve" smooth="yes"/>
			<point x="436" y="314"/>
			<point x="368" y="240"/>
			<point x="368" y="158" type="curve" smooth="yes"/>
			<point x="368" y="66"/>
			<point x="442" y="0"/>
			<point x="524" y="0" type="curve" smooth="yes"/>
			<point x="614" y="0"/>
			<point x="682" y="74"/>
		</contour>
	</outline>
</glyph>
<glyph name="at" format="2">
	<unicode hex="0040"/>
	<advance width="1840"/>
	<outline>
		<contour>
			<point x="928" y="-12" type="curve" smooth="yes"/>
			<point x="1172" y="-12"/>
			<point x="1414" y="36"/>
			<point x="1614" y="106" type="curve" smooth="yes"/>
			<point x="1642" y="116"/>
			<point x="1684" y="130"/>
			<point x="1694" y="136" type="curve"/>
			<point x="1698" y="140"/>
			<point x="1706" y="148"/>
			<point x="1706" y="160" type="curve" smooth="yes"/>
			<point x="1706" y="192"/>
			<point x="1678" y="192"/>
			<point x="1648" y="192" type="curve" smooth="yes"/>
			<point x="1594" y="192" type="line" smooth="yes"/>
			<point x="1564" y="192"/>
			<point x="1560" y="192"/>
			<point x="1516" y="174" type="curve" smooth="yes"/>
			<point x="1282" y="88"/>
			<point x="1070" y="68"/>
			<point x="926" y="68" type="curve" smooth="yes"/>
			<point x="444" y="68"/>
			<point x="234" y="368"/>
			<point x="234" y="694" type="curve" smooth="yes"/>
			<point x="234" y="1054"/>
			<point x="482" y="1320"/>
			<point x="918" y="1320" type="curve" smooth="yes"/>
			<point x="1312" y="1320"/>
			<point x="1604" y="1100"/>
			<point x="1604" y="682" type="curve" smooth="yes"/>
			<point x="1604" y="492"/>
			<point x="1570" y="334"/>
			<point x="1454" y="334" type="curve" smooth="yes"/>
			<point x="1390" y="334"/>
			<point x="1390" y="424"/>
			<point x="1390" y="448" type="curve" smooth="yes"/>
			<point x="1390" y="906" type="line" smooth="yes"/>
			<point x="1390" y="958"/>
			<point x="1388" y="966"/>
			<point x="1326" y="966" type="curve" smooth="yes"/>
			<point x="1301" y="966"/>
			<point x="1275" y="966"/>
			<point x="1250" y="966" type="curve"/>
			<point x="1156" y="1104"/>
			<point x="1020" y="1134"/>
			<point x="916" y="1134" type="curve" smooth="yes"/>
			<point x="634" y="1134"/>
			<point x="448" y="956"/>
			<point x="448" y="694" type="curve" smooth="yes"/>
			<point x="448" y="432"/>
			<point x="634" y="254"/>
			<point x="916" y="254" type="curve" smooth="yes"/>
			<point x="1050" y="254"/>
			<point x="1142" y="310"/>
			<point x="1184" y="344" type="curve"/>
			<point x="1252" y="254"/>
			<point x="1398" y="254"/>
			<point x="1434" y="254" type="curve" smooth="yes"/>
			<point x="1698" y="254"/>
			<point x="1706" y="614"/>
			<point x="1706" y="690" type="curve" smooth="yes"/>
			<point x="1706" y="1104"/>
			<point x="1412" y="1400"/>
			<point x="920" y="1400" type="curve" smooth="yes"/>
			<point x="404" y="1400"/>
			<point x="132" y="1082"/>
			<point x="132" y="694" type="curve" smooth="yes"/>
			<point x="132" y="338"/>
			<point x="368" y="-12"/>
		</contour>
		<contour>
			<point x="922" y="334" type="curve" smooth="yes"/>
			<point x="798" y="334"/>
			<point x="682" y="442"/>
			<point x="682" y="694" type="curve" smooth="yes"/>
			<point x="682" y="948"/>
			<point x="798" y="1054"/>
			<point x="922" y="1054" type="curve" smooth="yes"/>
			<point x="966" y="1054"/>
			<point x="1078" y="1042"/>
			<point x="1156" y="936" type="curve"/>
			<point x="1156" y="936"/>
			<point x="1156" y="936"/>
			<point x="1156" y="936" type="curve"/>
			<point x="1156" y="452" type="line"/>
			<point x="1080" y="346"/>
			<point x="968" y="334"/>
		</contour>
	</outline>
</glyph>
<glyph name="A" format="2">
	<unicode hex="0041"/>
	<advance width="1784"/>
	<outline>
		<contour>
			<point x="892" y="1400" type="curve" smooth="yes"/>
			<point x="856" y="1400"/>
			<point x="826" y="1400"/>
			<point x="804" y="1346" type="curve" smooth="yes"/>
			<point x="290" y="126" type="line" smooth="yes"/>
			<point x="278" y="98"/>
			<point x="190" y="98"/>
			<point x="86" y="98" type="curve"/>
			<point x="86" y="0" type="line"/>
			<point x="198" y="4"/>
			<point x="224" y="6"/>
			<point x="330" y="6" type="curve" smooth="yes"/>
			<point x="408" y="6"/>
			<point x="472" y="6"/>
			<point x="596" y="0" type="curve"/>
			<point x="596" y="98" type="line"/>
			<point x="542" y="98"/>
			<point x="474" y="98"/>
			<point x="418" y="120" type="curve"/>
			<point x="418" y="120"/>
			<point x="418" y="120"/>
			<point x="418" y="120" type="curve"/>
			<point x="528" y="384" type="line"/>
			<point x="1082" y="384" type="line"/>
			<point x="1202" y="98" type="line"/>
			<point x="1202" y="98"/>
			<point x="1202" y="98"/>
			<point x="1202" y="98" type="curve"/>
			<point x="1139" y="98"/>
			<point x="1077" y="98"/>
			<point x="1014" y="98" type="curve"/>
			<point x="1014" y="0" type="line"/>
			<point x="1084" y="6"/>
			<point x="1286" y="6"/>
			<point x="1368" y="6" type="curve" smooth="yes"/>
			<point x="1452" y="6"/>
			<point x="1622" y="6"/>
			<point x="1698" y="0" type="curve"/>
			<point x="1698" y="98" type="line"/>
			<point x="1698" y="98" type="line"/>
			<point x="1633" y="98"/>
			<point x="1569" y="98"/>
			<point x="1504" y="98" type="curve"/>
			<point x="980" y="1346" type="line" smooth="yes"/>
			<point x="958" y="1400"/>
			<point x="928" y="1400"/>
		</contour>
		<contour>
			<point x="806" y="1042" type="line"/>
			<point x="1040" y="482" type="line"/>
			<point x="570" y="482" type="line"/>
		</contour>
	</outline>
</glyph>
<glyph name="C" format="2">
	<unicode hex="0043"/>
	<advance width="1708"/>
	<outline>
		<contour>
			<point x="132" y="686" type="curve" smooth="yes"/>
			<point x="132" y="290"/>
			<point x="428" y="-24"/>
			<point x="958" y="-24" type="curve" smooth="yes"/>
			<point x="1334" y="-24"/>
			<point x="1576" y="216"/>
			<point x="1576" y="456" type="curve" smooth="yes"/>
			<point x="1576" y="500"/>
			<point x="1556" y="500"/>
			<point x="1524" y="500" type="curve" smooth="yes"/>
			<point x="1502" y="500"/>
			<point x="1476" y="500"/>
			<point x="1474" y="468" type="curve" smooth="yes"/>
			<point x="1458" y="178"/>
			<point x="1192" y="74"/>
			<point x="1002" y="74" type="curve" smooth="yes"/>
			<point x="894" y="74"/>
			<point x="700" y="96"/>
			<point x="566" y="244" type="curve" smooth="yes"/>
			<point x="460" y="364"/>
			<point x="446" y="550"/>
			<point x="446" y="686" type="curve" smooth="yes"/>
			<point x="446" y="926"/>
			<point x="494" y="1046"/>
			<point x="576" y="1138" type="curve" smooth="yes"/>
			<point x="670" y="1244"/>
			<point x="832" y="1298"/>
			<point x="998" y="1298" type="curve" smooth="yes"/>
			<point x="1174" y="1298"/>
			<point x="1406" y="1192"/>
			<point x="1458" y="874" type="curve" smooth="yes"/>
			<point x="1462" y="848"/>
			<point x="1486" y="848"/>
			<point x="1516" y="848" type="curve" smooth="yes"/>
			<point x="1570" y="848"/>
			<point x="1576" y="852"/>
			<point x="1576" y="906" type="curve" smooth="yes"/>
			<point x="1576" y="1338" type="line" smooth="yes"/>
			<point x="1576" y="1374"/>
			<point x="1576" y="1396"/>
			<point x="1536" y="1396" type="curve" smooth="yes"/>
			<point x="1516" y="1396"/>
			<point x="1512" y="1392"/>
			<point x="1494" y="1376" type="curve" smooth="yes"/>
			<point x="1362" y="1260" type="line"/>
			<point x="1248" y="1352"/>
			<point x="1102" y="1396"/>
			<point x="956" y="1396" type="curve" smooth="yes"/>
			<point x="440" y="1396"/>
			<point x="132" y="1092"/>
		</contour>
	</outline>
</glyph>
<glyph name="D" format="2">
	<unicode hex="0044"/>
	<advance width="1812"/>
	<outline>
		<contour>
			<point x="1680" y="676" type="curve" smooth="yes"/>
			<point x="1680" y="1100"/>
			<point x="1386" y="1372"/>
			<point x="966" y="1372" type="curve" smooth="yes"/>
			<point x="84" y="1372" type="line"/>
			<point x="84" y="1274" type="line"/>
			<point x="156" y="1274"/>
			<point x="228" y="1274"/>
			<point x="300" y="1274" type="curve"/>
			<point x="300" y="1274"/>
			<point x="300" y="1274"/>
			<point x="300" y="1274" type="curve"/>
			<point x="300" y="98" type="line"/>
			<point x="300" y="98"/>
			<point x="300" y="98"/>
			<point x="300" y="98" type="curve"/>
			<point x="228" y="98"/>
			<point x="156" y="98"/>
			<point x="84" y="98" type="curve"/>
			<point x="84" y="0" type="line"/>
			<point x="968" y="0" type="line" smooth="yes"/>
			<point x="1366" y="0"/>
			<point x="1680" y="242"/>
		</contour>
		<contour>
			<point x="578" y="98" type="line"/>
			<point x="578" y="98"/>
			<point x="578" y="98"/>
			<point x="578" y="98" type="curve"/>
			<point x="578" y="1274" type="line"/>
			<point x="578" y="1274"/>
			<point x="578" y="1274"/>
			<point x="578" y="1274" type="curve"/>
			<point x="882" y="1274" type="line" smooth="yes"/>
			<point x="1040" y="1274"/>
			<point x="1188" y="1224"/>
			<point x="1276" y="1114" type="curve" smooth="yes"/>
			<point x="1364" y="1002"/>
			<point x="1378" y="860"/>
			<point x="1378" y="676" type="curve" smooth="yes"/>
			<point x="1378" y="552"/>
			<point x="1378" y="350"/>
			<point x="1249" y="221" type="curve" smooth="yes"/>
			<point x="1176" y="148"/>
			<point x="1062" y="98"/>
			<point x="884" y="98" type="curve" smooth="yes"/>
		</contour>
	</outline>
</glyph>
<glyph name="E" format="2">
	<unicode hex="0045"/>
	<advance width="1552"/>
	<outline>
		<contour>
			<point x="1486" y="552" type="line"/>
			<point x="1384" y="552" type="line"/>
			<point x="1340" y="296"/>
			<point x="1296" y="98"/>
			<point x="908" y="98" type="curve" smooth="yes"/>
			<point x="590" y="98" type="line"/>
			<point x="590" y="98"/>
			<point x="590" y="98"/>
			<point x="590" y="98" type="curve"/>
			<point x="590" y="656" type="line"/>
			<point x="706" y="656" type="line" smooth="yes"/>
			<point x="902" y="656"/>
			<point x="922" y="568"/>
			<point x="922" y="422" type="curve"/>
			<point x="1024" y="422" type="line"/>
			<point x="1024" y="988" type="line"/>
			<point x="922" y="988" type="line"/>
			<point x="922" y="842"/>
			<point x="904" y="754"/>
			<point x="706" y="754" type="curve" smooth="yes"/>
			<point x="590" y="754" type="line"/>
			<point x="590" y="1262" type="line"/>
			<point x="590" y="1262"/>
			<point x="590" y="1262"/>
			<point x="590" y="1262" type="curve"/>
			<point x="906" y="1262" type="line" smooth="yes"/>
			<point x="1224" y="1262"/>
			<point x="1286" y="1124"/>
			<point x="1318" y="874" type="curve"/>
			<point x="1420" y="874" type="line"/>
			<point x="1358" y="1360" type="line"/>
			<point x="84" y="1360" type="line"/>
			<point x="84" y="1262" type="line"/>
			<point x="300" y="1262" type="line"/>
			<point x="300" y="1262"/>
			<point x="300" y="1262"/>
			<point x="300" y="1262" type="curve"/>
			<point x="300" y="98" type="line"/>
			<point x="300" y="98"/>
			<point x="300" y="98"/>
			<point x="300" y="98" type="curve"/>
			<point x="84" y="98" type="line"/>
			<point x="84" y="0" type="line"/>
			<point x="1392" y="0" type="line"/>
		</contour>
	</outline>
</glyph>
<glyph name="F" format="2">
	<unicode hex="0046"/>
	<advance width="1486"/>
	<outline>
		<contour>
			<point x="1326" y="1360" type="line"/>
			<point x="84" y="1360" type="line"/>
			<point x="84" y="1262" type="line"/>
			<point x="300" y="1262" type="line"/>
			<point x="300" y="1262"/>
			<point x="300" y="1262"/>
			<point x="300" y="1262" type="curve"/>
			<point x="300" y="98" type="line"/>
			<point x="300" y="98"/>
			<point x="300" y="98"/>
			<point x="300" y="98" type="curve"/>
			<point x="84" y="98" type="line"/>
			<point x="84" y="0" type="line"/>
			<point x="154" y="6"/>
			<point x="372" y="6"/>
			<point x="456" y="6" type="curve" smooth="yes"/>
			<point x="550" y="6"/>
			<point x="778" y="6"/>
			<point x="860" y="0" type="curve"/>
			<point x="860" y="98" type="line"/>
			<point x="590" y="98" type="line"/>
			<point x="590" y="98"/>
			<point x="590" y="98"/>
			<point x="590" y="98" type="curve"/>
			<point x="590" y="632" type="line"/>
			<point x="698" y="632" type="line" smooth="yes"/>
			<point x="892" y="632"/>
			<point x="910" y="546"/>
			<point x="910" y="398" type="curve"/>
			<point x="1012" y="398" type="line"/>
			<point x="1012" y="964" type="line"/>
			<point x="910" y="964" type="line"/>
			<point x="910" y="816"/>
			<point x="892" y="730"/>
			<point x="698" y="730" type="curve" smooth="yes"/>
			<point x="590" y="730" type="line"/>
			<point x="590" y="1262" type="line"/>
			<point x="590" y="1262"/>
			<point x="590" y="1262"/>
			<point x="590" y="1262" type="curve"/>
			<point x="884" y="1262" type="line" smooth="yes"/>
			<point x="1206" y="1262"/>
			<point x="1256" y="1112"/>
			<point x="1286" y="874" type="curve"/>
			<point x="1388" y="874" type="line"/>
		</contour>
	</outline>
</glyph>
<glyph name="G" format="2">
	<unicode hex="0047"/>
	<advance width="1858"/>
	<outline>
		<contour>
			<point x="960" y="-24" type="curve" smooth="yes"/>
			<point x="1022" y="-24"/>
			<point x="1130" y="-22"/>
			<point x="1226" y="16" type="curve" smooth="yes"/>
			<point x="1272" y="34"/>
			<point x="1318" y="60"/>
			<point x="1352" y="98" type="curve"/>
			<point x="1408" y="56"/>
			<point x="1530" y="0"/>
			<point x="1546" y="0" type="curve" smooth="yes"/>
			<point x="1576" y="0"/>
			<point x="1576" y="30"/>
			<point x="1576" y="58" type="curve" smooth="yes"/>
			<point x="1576" y="191"/>
			<point x="1576" y="323"/>
			<point x="1576" y="456" type="curve"/>
			<point x="1576" y="456"/>
			<point x="1576" y="456"/>
			<point x="1576" y="456" type="curve"/>
			<point x="1631" y="456"/>
			<point x="1685" y="456"/>
			<point x="1740" y="456" type="curve"/>
			<point x="1740" y="489"/>
			<point x="1740" y="521"/>
			<point x="1740" y="554" type="curve"/>
			<point x="1662" y="548"/>
			<point x="1488" y="548"/>
			<point x="1402" y="548" type="curve" smooth="yes"/>
			<point x="1302" y="548"/>
			<point x="1078" y="548"/>
			<point x="990" y="554" type="curve"/>
			<point x="990" y="521"/>
			<point x="990" y="489"/>
			<point x="990" y="456" type="curve"/>
			<point x="1089" y="456"/>
			<point x="1187" y="456"/>
			<point x="1286" y="456" type="curve"/>
			<point x="1286" y="456"/>
			<point x="1286" y="456"/>
			<point x="1286" y="456" type="curve"/>
			<point x="1286" y="389"/>
			<point x="1286" y="323"/>
			<point x="1286" y="256" type="curve" smooth="yes"/>
			<point x="1286" y="214"/>
			<point x="1286" y="156"/>
			<point x="1200" y="112" type="curve" smooth="yes"/>
			<point x="1148" y="86"/>
			<point x="1080" y="74"/>
			<point x="1014" y="74" type="curve" smooth="yes"/>
			<point x="906" y="74"/>
			<point x="706" y="94"/>
			<point x="566" y="248" type="curve" smooth="yes"/>
			<point x="448" y="380"/>
			<point x="446" y="602"/>
			<point x="446" y="688" type="curve" smooth="yes"/>
			<point x="446" y="838"/>
			<point x="464" y="1026"/>
			<point x="584" y="1148" type="curve" smooth="yes"/>
			<point x="720" y="1284"/>
			<point x="912" y="1298"/>
			<point x="998" y="1298" type="curve" smooth="yes"/>
			<point x="1174" y="1298"/>
			<point x="1406" y="1192"/>
			<point x="1458" y="874" type="curve" smooth="yes"/>
			<point x="1462" y="848"/>
			<point x="1486" y="848"/>
			<point x="1516" y="848" type="curve" smooth="yes"/>
			<point x="1570" y="848"/>
			<point x="1576" y="852"/>
			<point x="1576" y="906" type="curve" smooth="yes"/>
			<point x="1576" y="1050"/>
			<point x="1576" y="1194"/>
			<point x="1576" y="1338" type="curve" smooth="yes"/>
			<point x="1576" y="1374"/>
			<point x="1576" y="1396"/>
			<point x="1536" y="1396" type="curve" smooth="yes"/>
			<point x="1516" y="1396"/>
			<point x="1512" y="1392"/>
			<point x="1494" y="1376" type="curve" smooth="yes"/>
			<point x="1450" y="1337"/>
			<point x="1406" y="1299"/>
			<point x="1362" y="1260" type="curve"/>
			<point x="1248" y="1352"/>
			<point x="1102" y="1396"/>
			<point x="956" y="1396" type="curve" smooth="yes"/>
			<point x="440" y="1396"/>
			<point x="132" y="1092"/>
			<point x="132" y="686" type="curve" smooth="yes"/>
			<point x="132" y="298"/>
			<point x="420" y="-24"/>
		</contour>
	</outline>
</glyph>
<glyph name="H" format="2">
	<unicode hex="0048"/>
	<advance width="1848"/>
	<outline>
		<contour>
			<point x="84" y="0" type="line"/>
			<point x="154" y="6"/>
			<point x="362" y="6"/>
			<point x="444" y="6" type="curve" smooth="yes"/>
			<point x="526" y="6"/>
			<point x="736" y="6"/>
			<point x="806" y="0" type="curve"/>
			<point x="806" y="98" type="line"/>
			<point x="590" y="98" type="line"/>
			<point x="590" y="98"/>
			<point x="590" y="98"/>
			<point x="590" y="98" type="curve"/>
			<point x="590" y="664" type="line"/>
			<point x="1256" y="664" type="line"/>
			<point x="1256" y="98" type="line"/>
			<point x="1256" y="98"/>
			<point x="1256" y="98"/>
			<point x="1256" y="98" type="curve"/>
			<point x="1040" y="98" type="line"/>
			<point x="1040" y="0" type="line"/>
			<point x="1110" y="6"/>
			<point x="1318" y="6"/>
			<point x="1400" y="6" type="curve" smooth="yes"/>
			<point x="1482" y="6"/>
			<point x="1692" y="6"/>
			<point x="1762" y="0" type="curve"/>
			<point x="1762" y="98" type="line"/>
			<point x="1546" y="98" type="line"/>
			<point x="1546" y="98"/>
			<point x="1546" y="98"/>
			<point x="1546" y="98" type="curve"/>
			<point x="1546" y="1274" type="line"/>
			<point x="1546" y="1274"/>
			<point x="1546" y="1274"/>
			<point x="1546" y="1274" type="curve"/>
			<point x="1762" y="1274" type="line"/>
			<point x="1762" y="1372" type="line"/>
			<point x="1692" y="1366"/>
			<point x="1484" y="1366"/>
			<point x="1402" y="1366" type="curve" smooth="yes"/>
			<point x="1320" y="1366"/>
			<point x="1110" y="1366"/>
			<point x="1040" y="1372" type="curve"/>
			<point x="1040" y="1274" type="line"/>
			<point x="1256" y="1274" type="line"/>
			<point x="1256" y="1274"/>
			<point x="1256" y="1274"/>
			<point x="1256" y="1274" type="curve"/>
			<point x="1256" y="762" type="line"/>
			<point x="590" y="762" type="line"/>
			<point x="590" y="1274" type="line"/>
			<point x="590" y="1274"/>
			<point x="590" y="1274"/>
			<point x="590" y="1274" type="curve"/>
			<point x="806" y="1274" type="line"/>
			<point x="806" y="1372" type="line"/>
			<point x="736" y="1366"/>
			<point x="528" y="1366"/>
			<point x="446" y="1366" type="curve" smooth="yes"/>
			<point x="364" y="1366"/>
			<point x="154" y="1366"/>
			<point x="84" y="1372" type="curve"/>
			<point x="84" y="1274" type="line"/>
			<point x="300" y="1274" type="line"/>
			<point x="300" y="1274"/>
			<point x="300" y="1274"/>
			<point x="300" y="1274" type="curve"/>
			<point x="300" y="98" type="line"/>
			<point x="300" y="98"/>
			<point x="300" y="98"/>
			<point x="300" y="98" type="curve"/>
			<point x="84" y="98" type="line"/>
		</contour>
	</outline>
</glyph>
<glyph name="I" format="2">
	<unicode hex="0049"/>
	<advance width="892"/>
	<outline>
		<contour>
			<point x="74" y="0" type="line"/>
			<point x="144" y="6"/>
			<point x="360" y="6"/>
			<point x="444" y="6" type="curve" smooth="yes"/>
			<point x="528" y="6"/>
			<point x="746" y="6"/>
			<point x="816" y="0" type="curve"/>
			<point x="816" y="98" type="line"/>
			<point x="590" y="98" type="line"/>
			<point x="590" y="98"/>
			<point x="590" y="98"/>
			<point x="590" y="98" type="curve"/>
			<point x="590" y="1274" type="line"/>
			<point x="590" y="1274"/>
			<point x="590" y="1274"/>
			<point x="590" y="1274" type="curve"/>
			<point x="816" y="1274" type="line"/>
			<point x="816" y="1372" type="line"/>
			<point x="746" y="1366"/>
			<point x="530" y="1366"/>
			<point x="446" y="1366" type="curve" smooth="yes"/>
			<point x="362" y="1366"/>
			<point x="144" y="1366"/>
			<point x="74" y="1372" type="curve"/>
			<point x="74" y="1274" type="line"/>
			<point x="300" y="1274" type="line"/>
			<point x="300" y="1274"/>
			<point x="300" y="1274"/>
			<point x="300" y="1274" type="curve"/>
			<point x="300" y="98" type="line"/>
			<point x="300" y="98"/>
			<point x="300" y="98"/>
			<point x="300" y="98" type="curve"/>
			<point x="74" y="98" type="line"/>
		</contour>
	</outline>
</glyph>
<glyph name="J" format="2">
	<unicode hex="004A"/>
	<advance width="1220"/>
	<outline>
		<contour>
			<point x="446" y="-24" type="curve" smooth="yes"/>
			<point x="732" y="-24"/>
			<point x="920" y="96"/>
			<point x="920" y="300" type="curve" smooth="yes"/>
			<point x="920" y="1274" type="line"/>
			<point x="920" y="1274"/>
			<point x="920" y="1274"/>
			<point x="920" y="1274" type="curve"/>
			<point x="1082" y="1274" type="line"/>
			<point x="1082" y="1372" type="line"/>
			<point x="1000" y="1366"/>
			<point x="844" y="1366"/>
			<point x="756" y="1366" type="curve" smooth="yes"/>
			<point x="666" y="1366"/>
			<point x="438" y="1366"/>
			<point x="362" y="1372" type="curve"/>
			<point x="362" y="1274" type="line"/>
			<point x="642" y="1274" type="line"/>
			<point x="642" y="1274"/>
			<point x="642" y="1274"/>
			<point x="642" y="1274" type="curve"/>
			<point x="642" y="298" type="line" smooth="yes"/>
			<point x="642" y="132"/>
			<point x="562" y="56"/>
			<point x="438" y="56" type="curve" smooth="yes"/>
			<point x="398" y="56"/>
			<point x="332" y="64"/>
			<point x="276" y="86" type="curve"/>
			<point x="342" y="120"/>
			<point x="362" y="182"/>
			<point x="362" y="228" type="curve" smooth="yes"/>
			<point x="362" y="326"/>
			<point x="290" y="386"/>
			<point x="204" y="386" type="curve" smooth="yes"/>
			<point x="122" y="386"/>
			<point x="46" y="330"/>
			<point x="46" y="226" type="curve" smooth="yes"/>
			<point x="46" y="78"/>
			<point x="198" y="-24"/>
		</contour>
	</outline>
</glyph>
<glyph name="L" format="2">
	<unicode hex="004C"/>
	<advance width="1420"/>
	<outline>
		<contour>
			<point x="1322" y="552" type="line"/>
			<point x="1220" y="552" type="line"/>
			<point x="1204" y="414"/>
			<point x="1170" y="98"/>
			<point x="804" y="98" type="curve" smooth="yes"/>
			<point x="590" y="98" type="line"/>
			<point x="590" y="98"/>
			<point x="590" y="98"/>
			<point x="590" y="98" type="curve"/>
			<point x="590" y="1274" type="line"/>
			<point x="590" y="1274"/>
			<point x="590" y="1274"/>
			<point x="590" y="1274" type="curve"/>
			<point x="860" y="1274" type="line"/>
			<point x="860" y="1372" type="line"/>
			<point x="778" y="1366"/>
			<point x="552" y="1366"/>
			<point x="458" y="1366" type="curve" smooth="yes"/>
			<point x="374" y="1366"/>
			<point x="154" y="1366"/>
			<point x="84" y="1372" type="curve"/>
			<point x="84" y="1274" type="line"/>
			<point x="300" y="1274" type="line"/>
			<point x="300" y="1274"/>
			<point x="300" y="1274"/>
			<point x="300" y="1274" type="curve"/>
			<point x="300" y="98" type="line"/>
			<point x="300" y="98"/>
			<point x="300" y="98"/>
			<point x="300" y="98" type="curve"/>
			<point x="84" y="98" type="line"/>
			<point x="84" y="0" type="line"/>
			<point x="1260" y="0" type="line"/>
		</contour>
	</outline>
</glyph>
<glyph name="M" format="2">
  <advance width="1121"/>
  <unicode hex="004D"/>
  <outline>
    <contour>
      <point x="561" y="131" type="line"/>
      <point x="316" y="660" type="line" smooth="yes"/>
      <point x="304" y="686"/>
      <point x="290" y="686"/>
      <point x="269" y="686" type="curve" smooth="yes"/>
      <point x="45" y="686" type="line"/>
      <point x="45" y="637" type="line"/>
      <point x="153" y="637" type="line"/>
      <point x="153.0" y="637.0"/>
      <point x="153.0" y="637.0"/>
      <point x="153" y="637" type="curve"/>
      <point x="153" y="78" type="line" smooth="yes"/>
      <point x="153" y="51"/>
      <point x="146" y="49"/>
      <point x="71" y="49" type="curve" smooth="yes"/>
      <point x="45" y="49" type="line"/>
      <point x="45" y="0" type="line"/>
      <point x="110" y="3"/>
      <point x="138" y="3"/>
      <point x="181" y="3" type="curve" smooth="yes"/>
      <point x="225" y="3"/>
      <point x="252" y="3"/>
      <point x="318" y="0" type="curve"/>
      <point x="318" y="49" type="line"/>
      <point x="292" y="49" type="line" smooth="yes"/>
      <point x="215" y="49"/>
      <point x="210" y="51"/>
      <point x="210" y="78" type="curve" smooth="yes"/>
      <point x="210" y="623" type="line"/>
      <point x="211" y="623" type="line"/>
      <point x="488" y="26" type="line" smooth="yes"/>
      <point x="492" y="17"/>
      <point x="500" y="0"/>
      <point x="522" y="0" type="curve" smooth="yes"/>
      <point x="545" y="0"/>
      <point x="552" y="16"/>
      <point x="557" y="26" type="curve" smooth="yes"/>
      <point x="840" y="636" type="line"/>
      <point x="841" y="636" type="line"/>
      <point x="841" y="49" type="line"/>
      <point x="841.0" y="49.0"/>
      <point x="841.0" y="49.0"/>
      <point x="841" y="49" type="curve"/>
      <point x="733" y="49" type="line"/>
      <point x="733" y="0" type="line"/>
      <point x="768" y="3"/>
      <point x="864" y="3"/>
      <point x="904" y="3" type="curve" smooth="yes"/>
      <point x="944" y="3"/>
      <point x="1041" y="3"/>
      <point x="1076" y="0" type="curve"/>
      <point x="1076" y="49" type="line"/>
      <point x="968" y="49" type="line"/>
      <point x="968.0" y="49.0"/>
      <point x="968.0" y="49.0"/>
      <point x="968" y="49" type="curve"/>
      <point x="968" y="637" type="line"/>
      <point x="968.0" y="637.0"/>
      <point x="968.0" y="637.0"/>
      <point x="968" y="637" type="curve"/>
      <point x="1076" y="637" type="line"/>
      <point x="1076" y="686" type="line"/>
      <point x="853" y="686" type="line" smooth="yes"/>
      <point x="832" y="686"/>
      <point x="819" y="686"/>
      <point x="807" y="661" type="curve" smooth="yes"/>
    </contour>
  </outline>
</glyph>
<glyph name="N" format="2">
	<unicode hex="004E"/>
	<advance width="1848"/>
	<outline>
		<contour>
			<point x="1432" y="412" type="line"/>
			<point x="614" y="1346" type="line" smooth="yes"/>
			<point x="592" y="1372"/>
			<point x="588" y="1372"/>
			<point x="546" y="1372" type="curve" smooth="yes"/>
			<point x="84" y="1372" type="line"/>
			<point x="84" y="1274" type="line"/>
			<point x="84" y="1274" type="line"/>
			<point x="156" y="1274"/>
			<point x="228" y="1274"/>
			<point x="300" y="1274" type="curve"/>
			<point x="300" y="1274"/>
			<point x="300" y="1274"/>
			<point x="300" y="1274" type="curve"/>
			<point x="300" y="148" type="line" smooth="yes"/>
			<point x="300" y="110"/>
			<point x="288" y="98"/>
			<point x="136" y="98" type="curve" smooth="yes"/>
			<point x="84" y="98" type="line"/>
			<point x="84" y="0" type="line"/>
			<point x="214" y="6"/>
			<point x="270" y="6"/>
			<point x="356" y="6" type="curve" smooth="yes"/>
			<point x="444" y="6"/>
			<point x="498" y="6"/>
			<point x="630" y="0" type="curve"/>
			<point x="630" y="98" type="line"/>
			<point x="590" y="98" type="line" smooth="yes"/>
			<point x="422" y="98"/>
			<point x="414" y="106"/>
			<point x="414" y="148" type="curve" smooth="yes"/>
			<point x="414" y="1186" type="line"/>
			<point x="414" y="1186"/>
			<point x="414" y="1186"/>
			<point x="414" y="1186" type="curve"/>
			<point x="1430" y="26" type="line" smooth="yes"/>
			<point x="1452" y="0"/>
			<point x="1460" y="0"/>
			<point x="1488" y="0" type="curve" smooth="yes"/>
			<point x="1546" y="0"/>
			<point x="1546" y="22"/>
			<point x="1546" y="66" type="curve" smooth="yes"/>
			<point x="1546" y="1216" type="line" smooth="yes"/>
			<point x="1546" y="1278"/>
			<point x="1594" y="1274"/>
			<point x="1710" y="1274" type="curve" smooth="yes"/>
			<point x="1762" y="1274" type="line"/>
			<point x="1762" y="1372" type="line"/>
			<point x="1632" y="1366"/>
			<point x="1576" y="1366"/>
			<point x="1490" y="1366" type="curve" smooth="yes"/>
			<point x="1402" y="1366"/>
			<point x="1348" y="1366"/>
			<point x="1216" y="1372" type="curve"/>
			<point x="1216" y="1274" type="line"/>
			<point x="1268" y="1274" type="line" smooth="yes"/>
			<point x="1384" y="1274"/>
			<point x="1432" y="1278"/>
			<point x="1432" y="1216" type="curve" smooth="yes"/>
		</contour>
	</outline>
</glyph>
<glyph name="O" format="2">
	<unicode hex="004F"/>
	<advance width="1776"/>
	<outline>
		<contour>
			<point x="1644" y="678" type="curve" smooth="yes"/>
			<point x="1644" y="1096"/>
			<point x="1362" y="1396"/>
			<point x="888" y="1396" type="curve" smooth="yes"/>
			<point x="412" y="1396"/>
			<point x="132" y="1094"/>
			<point x="132" y="678" type="curve" smooth="yes"/>
			<point x="132" y="274"/>
			<point x="410" y="-24"/>
			<point x="888" y="-24" type="curve" smooth="yes"/>
			<point x="1366" y="-24"/>
			<point x="1644" y="272"/>
		</contour>
		<contour>
			<point x="888" y="68" type="curve" smooth="yes"/>
			<point x="764" y="68"/>
			<point x="622" y="122"/>
			<point x="536" y="264" type="curve" smooth="yes"/>
			<point x="454" y="400"/>
			<point x="446" y="576"/>
			<point x="446" y="708" type="curve" smooth="yes"/>
			<point x="446" y="886"/>
			<point x="464" y="1036"/>
			<point x="562" y="1164" type="curve" smooth="yes"/>
			<point x="614" y="1230"/>
			<point x="728" y="1310"/>
			<point x="888" y="1310" type="curve" smooth="yes"/>
			<point x="1020" y="1310"/>
			<point x="1146" y="1256"/>
			<point x="1224" y="1150" type="curve" smooth="yes"/>
			<point x="1322" y="1020"/>
			<point x="1330" y="848"/>
			<point x="1330" y="708" type="curve" smooth="yes"/>
			<point x="1330" y="530"/>
			<point x="1312" y="402"/>
			<point x="1250" y="280" type="curve" smooth="yes"/>
			<point x="1176" y="142"/>
			<point x="1034" y="68"/>
		</contour>
	</outline>
</glyph>
<glyph name="P" format="2">
	<unicode hex="0050"/>
	<advance width="1616"/>
	<outline>
		<contour>
			<point x="590" y="598" type="line"/>
			<point x="958" y="598" type="line" smooth="yes"/>
			<point x="1244" y="598"/>
			<point x="1482" y="744"/>
			<point x="1482" y="980" type="curve" smooth="yes"/>
			<point x="1482" y="1200"/>
			<point x="1280" y="1372"/>
			<point x="938" y="1372" type="curve" smooth="yes"/>
			<point x="84" y="1372" type="line"/>
			<point x="84" y="1274" type="line"/>
			<point x="300" y="1274" type="line"/>
			<point x="300" y="1274"/>
			<point x="300" y="1274"/>
			<point x="300" y="1274" type="curve"/>
			<point x="300" y="98" type="line"/>
			<point x="300" y="98"/>
			<point x="300" y="98"/>
			<point x="300" y="98" type="curve"/>
			<point x="84" y="98" type="line"/>
			<point x="84" y="0" type="line"/>
			<point x="154" y="6"/>
			<point x="362" y="6"/>
			<point x="444" y="6" type="curve" smooth="yes"/>
			<point x="526" y="6"/>
			<point x="736" y="6"/>
			<point x="806" y="0" type="curve"/>
			<point x="806" y="98" type="line"/>
			<point x="590" y="98" type="line"/>
			<point x="590" y="98"/>
			<point x="590" y="98"/>
			<point x="590" y="98" type="curve"/>
		</contour>
		<contour>
			<point x="578" y="686" type="line"/>
			<point x="578" y="1274" type="line"/>
			<point x="578" y="1274"/>
			<point x="578" y="1274"/>
			<point x="578" y="1274" type="curve"/>
			<point x="862" y="1274" type="line" smooth="yes"/>
			<point x="1168" y="1274"/>
			<point x="1168" y="1122"/>
			<point x="1168" y="980" type="curve" smooth="yes"/>
			<point x="1168" y="840"/>
			<point x="1168" y="686"/>
			<point x="860" y="686" type="curve" smooth="yes"/>
		</contour>
	</outline>
</glyph>
<glyph name="Q" format="2">
	<unicode hex="0051"/>
	<advance width="1776"/>
	<outline>
		<contour>
			<point x="1224" y="34" type="curve"/>
			<point x="1514" y="148"/>
			<point x="1644" y="406"/>
			<point x="1644" y="678" type="curve" smooth="yes"/>
			<point x="1644" y="1096"/>
			<point x="1362" y="1396"/>
			<point x="888" y="1396" type="curve" smooth="yes"/>
			<point x="412" y="1396"/>
			<point x="132" y="1094"/>
			<point x="132" y="678" type="curve" smooth="yes"/>
			<point x="132" y="274"/>
			<point x="410" y="-24"/>
			<point x="888" y="-24" type="curve" smooth="yes"/>
			<point x="912" y="-24"/>
			<point x="988" y="-24"/>
			<point x="1082" y="-6" type="curve"/>
			<point x="1142" y="-228"/>
			<point x="1184" y="-388"/>
			<point x="1374" y="-388" type="curve" smooth="yes"/>
			<point x="1578" y="-388"/>
			<point x="1658" y="-160"/>
			<point x="1658" y="-14" type="curve" smooth="yes"/>
			<point x="1658" y="0"/>
			<point x="1658" y="40"/>
			<point x="1618" y="40" type="curve" smooth="yes"/>
			<point x="1584" y="40"/>
			<point x="1580" y="8"/>
			<point x="1578" y="-2" type="curve"/>
			<point x="1570" y="-68"/>
			<point x="1462" y="-74"/>
			<point x="1408" y="-74" type="curve" smooth="yes"/>
			<point x="1346" y="-74"/>
			<point x="1304" y="-68"/>
		</contour>
		<contour>
			<point x="688" y="108" type="curve"/>
			<point x="450" y="224"/>
			<point x="434" y="502"/>
			<point x="434" y="680" type="curve" smooth="yes"/>
			<point x="434" y="878"/>
			<point x="460" y="1030"/>
			<point x="556" y="1156" type="curve" smooth="yes"/>
			<point x="624" y="1244"/>
			<point x="746" y="1310"/>
			<point x="888" y="1310" type="curve" smooth="yes"/>
			<point x="1026" y="1310"/>
			<point x="1164" y="1248"/>
			<point x="1242" y="1126" type="curve" smooth="yes"/>
			<point x="1322" y="1004"/>
			<point x="1342" y="854"/>
			<point x="1342" y="680" type="curve" smooth="yes"/>
			<point x="1342" y="574"/>
			<point x="1342" y="274"/>
			<point x="1146" y="142" type="curve"/>
			<point x="1104" y="202"/>
			<point x="1024" y="314"/>
			<point x="888" y="314" type="curve" smooth="yes"/>
			<point x="786" y="314"/>
			<point x="684" y="252"/>
			<point x="684" y="146" type="curve" smooth="yes"/>
			<point x="684" y="124"/>
			<point x="686" y="118"/>
		</contour>
		<contour>
			<point x="1052" y="92" type="curve"/>
			<point x="972" y="62"/>
			<point x="912" y="62"/>
			<point x="888" y="62" type="curve" smooth="yes"/>
			<point x="784" y="62"/>
			<point x="764" y="122"/>
			<point x="764" y="146" type="curve" smooth="yes"/>
			<point x="764" y="202"/>
			<point x="826" y="234"/>
			<point x="888" y="234" type="curve" smooth="yes"/>
			<point x="940" y="234"/>
			<point x="1008" y="216"/>
		</contour>
	</outline>
</glyph>
<glyph name="R" format="2">
	<unicode hex="0052"/>
	<advance width="1772"/>
	<outline>
		<contour>
			<point x="1142" y="678" type="curve"/>
			<point x="1312" y="726"/>
			<point x="1476" y="832"/>
			<point x="1476" y="1000" type="curve" smooth="yes"/>
			<point x="1476" y="1210"/>
			<point x="1240" y="1372"/>
			<point x="862" y="1372" type="curve" smooth="yes"/>
			<point x="84" y="1372" type="line"/>
			<point x="84" y="1274" type="line"/>
			<point x="300" y="1274" type="line"/>
			<point x="300" y="1274"/>
			<point x="300" y="1274"/>
			<point x="300" y="1274" type="curve"/>
			<point x="300" y="98" type="line"/>
			<point x="300" y="98"/>
			<point x="300" y="98"/>
			<point x="300" y="98" type="curve"/>
			<point x="84" y="98" type="line"/>
			<point x="84" y="0" type="line"/>
			<point x="156" y="6"/>
			<point x="356" y="6"/>
			<point x="438" y="6" type="curve" smooth="yes"/>
			<point x="520" y="6"/>
			<point x="722" y="6"/>
			<point x="794" y="0" type="curve"/>
			<point x="794" y="98" type="line"/>
			<point x="578" y="98" type="line"/>
			<point x="578" y="98"/>
			<point x="578" y="98"/>
			<point x="578" y="98" type="curve"/>
			<point x="578" y="646" type="line"/>
			<point x="824" y="646" type="line" smooth="yes"/>
			<point x="906" y="646"/>
			<point x="960" y="628"/>
			<point x="1018" y="568" type="curve" smooth="yes"/>
			<point x="1074" y="512"/>
			<point x="1074" y="464"/>
			<point x="1074" y="330" type="curve" smooth="yes"/>
			<point x="1074" y="204"/>
			<point x="1074" y="110"/>
			<point x="1194" y="40" type="curve" smooth="yes"/>
			<point x="1282" y="-10"/>
			<point x="1408" y="-24"/>
			<point x="1518" y="-24" type="curve" smooth="yes"/>
			<point x="1732" y="-24"/>
			<point x="1766" y="150"/>
			<point x="1766" y="194" type="curve" smooth="yes"/>
			<point x="1766" y="238"/>
			<point x="1736" y="242"/>
			<point x="1714" y="242" type="curve" smooth="yes"/>
			<point x="1668" y="242"/>
			<point x="1666" y="214"/>
			<point x="1664" y="194" type="curve" smooth="yes"/>
			<point x="1654" y="96"/>
			<point x="1592" y="56"/>
			<point x="1536" y="56" type="curve" smooth="yes"/>
			<point x="1450" y="56"/>
			<point x="1416" y="120"/>
			<point x="1396" y="220" type="curve" smooth="yes"/>
			<point x="1388" y="258"/>
			<point x="1382" y="300"/>
			<point x="1376" y="348" type="curve" smooth="yes"/>
			<point x="1354" y="496"/>
			<point x="1340" y="604"/>
		</contour>
		<contour>
			<point x="578" y="726" type="line"/>
			<point x="578" y="1274" type="line"/>
			<point x="578" y="1274"/>
			<point x="578" y="1274"/>
			<point x="578" y="1274" type="curve"/>
			<point x="662" y="1274"/>
			<point x="746" y="1274"/>
			<point x="830" y="1274" type="curve" smooth="yes"/>
			<point x="1156" y="1274"/>
			<point x="1162" y="1120"/>
			<point x="1162" y="1000" type="curve" smooth="yes"/>
			<point x="1162" y="886"/>
			<point x="1158" y="726"/>
			<point x="826" y="726" type="curve" smooth="yes"/>
		</contour>
	</outline>
</glyph>
<glyph name="S" format="2">
	<unicode hex="0053"/>
	<advance width="1314"/>
	<outline>
		<contour>
			<point x="982" y="306" type="curve" smooth="yes"/>
			<point x="982" y="266"/>
			<point x="970" y="74"/>
			<point x="712" y="74" type="curve" smooth="yes"/>
			<point x="592" y="74"/>
			<point x="250" y="96"/>
			<point x="234" y="408" type="curve" smooth="yes"/>
			<point x="232" y="444"/>
			<point x="232" y="456"/>
			<point x="184" y="456" type="curve" smooth="yes"/>
			<point x="132" y="456"/>
			<point x="132" y="444"/>
			<point x="132" y="396" type="curve" smooth="yes"/>
			<point x="132" y="34" type="line" smooth="yes"/>
			<point x="132" y="-2"/>
			<point x="132" y="-24"/>
			<point x="172" y="-24" type="curve" smooth="yes"/>
			<point x="188" y="-24"/>
			<point x="192" y="-24"/>
			<point x="210" y="-6" type="curve"/>
			<point x="222" y="2"/>
			<point x="266" y="52"/>
			<point x="304" y="84" type="curve"/>
			<point x="426" y="-4"/>
			<point x="604" y="-24"/>
			<point x="714" y="-24" type="curve" smooth="yes"/>
			<point x="1052" y="-24"/>
			<point x="1180" y="200"/>
			<point x="1180" y="406" type="curve" smooth="yes"/>
			<point x="1180" y="526"/>
			<point x="1130" y="631"/>
			<point x="1052" y="707" type="curve" smooth="yes"/>
			<point x="991" y="768"/>
			<point x="912" y="810"/>
			<point x="828" y="828" type="curve" smooth="yes"/>
			<point x="731" y="849"/>
			<point x="635" y="869"/>
			<point x="538" y="890" type="curve" smooth="yes"/>
			<point x="336" y="934"/>
			<point x="330" y="1068"/>
			<point x="330" y="1096" type="curve" smooth="yes"/>
			<point x="330" y="1190"/>
			<point x="392" y="1306"/>
			<point x="594" y="1306" type="curve" smooth="yes"/>
			<point x="910" y="1306"/>
			<point x="988" y="1090"/>
			<point x="1010" y="958" type="curve" smooth="yes"/>
			<point x="1016" y="926"/>
			<point x="1016" y="916"/>
			<point x="1062" y="916" type="curve" smooth="yes"/>
			<point x="1112" y="916"/>
			<point x="1114" y="926"/>
			<point x="1114" y="974" type="curve" smooth="yes"/>
			<point x="1114" y="1338" type="line" smooth="yes"/>
			<point x="1114" y="1374"/>
			<point x="1114" y="1396"/>
			<point x="1074" y="1396" type="curve" smooth="yes"/>
			<point x="1056" y="1396"/>
			<point x="1054" y="1394"/>
			<point x="1030" y="1372" type="curve" smooth="yes"/>
			<point x="1001" y="1343"/>
			<point x="971" y="1315"/>
			<point x="942" y="1286" type="curve"/>
			<point x="830" y="1374"/>
			<point x="700" y="1396"/>
			<point x="592" y="1396" type="curve" smooth="yes"/>
			<point x="272" y="1396"/>
			<point x="132" y="1194"/>
			<point x="132" y="994" type="curve" smooth="yes"/>
			<point x="132" y="850"/>
			<point x="214" y="758"/>
			<point x="232" y="738" type="curve"/>
			<point x="342" y="628"/>
			<point x="408" y="614"/>
			<point x="616" y="570" type="curve" smooth="yes"/>
			<point x="770" y="538"/>
			<point x="845" y="535"/>
			<point x="928" y="452" type="curve" smooth="yes"/>
			<point x="934" y="446"/>
			<point x="982" y="394"/>
		</contour>
	</outline>
</glyph>
<glyph name="T" format="2">
	<unicode hex="0054"/>
	<advance width="1646"/>
	<outline>
		<contour>
			<point x="1514" y="1348" type="line"/>
			<point x="130" y="1348" type="line"/>
			<point x="86" y="862" type="line"/>
			<point x="188" y="862" type="line"/>
			<point x="208" y="1084"/>
			<point x="226" y="1250"/>
			<point x="520" y="1250" type="curve" smooth="yes"/>
			<point x="573" y="1250"/>
			<point x="625" y="1250"/>
			<point x="678" y="1250" type="curve"/>
			<point x="678" y="1250"/>
			<point x="678" y="1250"/>
			<point x="678" y="1250" type="curve"/>
			<point x="678" y="98" type="line"/>
			<point x="678" y="98"/>
			<point x="678" y="98"/>
			<point x="678" y="98" type="curve"/>
			<point x="372" y="98" type="line"/>
			<point x="372" y="0" type="line"/>
			<point x="460" y="6"/>
			<point x="720" y="6"/>
			<point x="824" y="6" type="curve" smooth="yes"/>
			<point x="928" y="6"/>
			<point x="1186" y="6"/>
			<point x="1274" y="0" type="curve"/>
			<point x="1274" y="98" type="line"/>
			<point x="968" y="98" type="line"/>
			<point x="968" y="98"/>
			<point x="968" y="98"/>
			<point x="968" y="98" type="curve"/>
			<point x="968" y="1250" type="line"/>
			<point x="968" y="1250"/>
			<point x="968" y="1250"/>
			<point x="968" y="1250" type="curve"/>
			<point x="1021" y="1250"/>
			<point x="1073" y="1250"/>
			<point x="1126" y="1250" type="curve" smooth="yes"/>
			<point x="1420" y="1250"/>
			<point x="1436" y="1080"/>
			<point x="1456" y="862" type="curve"/>
			<point x="1558" y="862" type="line"/>
		</contour>
	</outline>
</glyph>
<glyph name="V" format="2">
	<unicode hex="0056"/>
	<advance width="1784"/>
	<outline>
		<contour>
			<point x="892" y="-18" type="curve" smooth="yes"/>
			<point x="930" y="-18"/>
			<point x="958" y="-18"/>
			<point x="982" y="36" type="curve" smooth="yes"/>
			<point x="1524" y="1230" type="line" smooth="yes"/>
			<point x="1536" y="1256"/>
			<point x="1544" y="1274"/>
			<point x="1692" y="1274" type="curve" smooth="yes"/>
			<point x="1728" y="1274" type="line"/>
			<point x="1728" y="1372" type="line"/>
			<point x="1620" y="1366"/>
			<point x="1574" y="1366"/>
			<point x="1494" y="1366" type="curve" smooth="yes"/>
			<point x="1382" y="1366"/>
			<point x="1334" y="1368"/>
			<point x="1230" y="1372" type="curve"/>
			<point x="1230" y="1274" type="line"/>
			<point x="1282" y="1274"/>
			<point x="1352" y="1274"/>
			<point x="1404" y="1252" type="curve"/>
			<point x="1404" y="1252"/>
			<point x="1404" y="1252"/>
			<point x="1404" y="1252" type="curve"/>
			<point x="980" y="318" type="line"/>
			<point x="546" y="1274" type="line"/>
			<point x="546" y="1274"/>
			<point x="546" y="1274"/>
			<point x="546" y="1274" type="curve"/>
			<point x="607" y="1274"/>
			<point x="669" y="1274"/>
			<point x="730" y="1274" type="curve"/>
			<point x="730" y="1372" type="line"/>
			<point x="660" y="1366"/>
			<point x="460" y="1366"/>
			<point x="378" y="1366" type="curve" smooth="yes"/>
			<point x="294" y="1366"/>
			<point x="134" y="1366"/>
			<point x="56" y="1372" type="curve"/>
			<point x="56" y="1274" type="line"/>
			<point x="240" y="1274" type="line"/>
			<point x="240" y="1274"/>
			<point x="240" y="1274"/>
			<point x="240" y="1274" type="curve"/>
			<point x="802" y="36" type="line" smooth="yes"/>
			<point x="826" y="-18"/>
			<point x="854" y="-18"/>
		</contour>
	</outline>
</glyph>
<glyph name="X" format="2">
	<unicode hex="0058"/>
	<advance width="1784"/>
	<outline>
		<contour>
			<point x="998" y="788" type="line"/>
			<point x="1344" y="1232" type="line" smooth="yes"/>
			<point x="1378" y="1276"/>
			<point x="1414" y="1274"/>
			<point x="1554" y="1274" type="curve" smooth="yes"/>
			<point x="1610" y="1274" type="line"/>
			<point x="1610" y="1372" type="line"/>
			<point x="1452" y="1366"/>
			<point x="1396" y="1366"/>
			<point x="1334" y="1366" type="curve" smooth="yes"/>
			<point x="1254" y="1366"/>
			<point x="1104" y="1366"/>
			<point x="1030" y="1372" type="curve"/>
			<point x="1030" y="1274" type="line"/>
			<point x="1062" y="1274"/>
			<point x="1142" y="1274"/>
			<point x="1208" y="1252" type="curve"/>
			<point x="1206" y="1248"/>
			<point x="1202" y="1242"/>
			<point x="1192" y="1230" type="curve" smooth="yes"/>
			<point x="924" y="886" type="line"/>
			<point x="634" y="1274" type="line"/>
			<point x="634" y="1274"/>
			<point x="634" y="1274"/>
			<point x="634" y="1274" type="curve"/>
			<point x="688" y="1274"/>
			<point x="742" y="1274"/>
			<point x="796" y="1274" type="curve"/>
			<point x="796" y="1372" type="line"/>
			<point x="726" y="1366"/>
			<point x="518" y="1366"/>
			<point x="436" y="1366" type="curve" smooth="yes"/>
			<point x="352" y="1366"/>
			<point x="180" y="1366"/>
			<point x="106" y="1372" type="curve"/>
			<point x="106" y="1274" type="line"/>
			<point x="302" y="1274" type="line"/>
			<point x="302" y="1274"/>
			<point x="302" y="1274"/>
			<point x="302" y="1274" type="curve"/>
			<point x="754" y="670" type="line"/>
			<point x="340" y="136" type="line" smooth="yes"/>
			<point x="316" y="104"/>
			<point x="246" y="98"/>
			<point x="132" y="98" type="curve" smooth="yes"/>
			<point x="74" y="98" type="line"/>
			<point x="74" y="0" type="line"/>
			<point x="220" y="6"/>
			<point x="236" y="6"/>
			<point x="350" y="6" type="curve" smooth="yes"/>
			<point x="432" y="6"/>
			<point x="580" y="6"/>
			<point x="656" y="0" type="curve"/>
			<point x="656" y="98" type="line"/>
			<point x="624" y="98"/>
			<point x="542" y="98"/>
			<point x="478" y="120" type="curve"/>
			<point x="480" y="124"/>
			<point x="488" y="134"/>
			<point x="494" y="142" type="curve" smooth="yes"/>
			<point x="828" y="572" type="line"/>
			<point x="1182" y="98" type="line"/>
			<point x="1182" y="98"/>
			<point x="1182" y="98"/>
			<point x="1182" y="98" type="curve"/>
			<point x="1128" y="98"/>
			<point x="1074" y="98"/>
			<point x="1020" y="98" type="curve"/>
			<point x="1020" y="0" type="line"/>
			<point x="1092" y="6"/>
			<point x="1296" y="6"/>
			<point x="1380" y="6" type="curve" smooth="yes"/>
			<point x="1462" y="6"/>
			<point x="1638" y="6"/>
			<point x="1712" y="0" type="curve"/>
			<point x="1712" y="98" type="line"/>
			<point x="1516" y="98" type="line"/>
			<point x="1516" y="98"/>
			<point x="1516" y="98"/>
			<point x="1516" y="98" type="curve"/>
		</contour>
	</outline>
</glyph>
<glyph name="Y" format="2">
	<unicode hex="0059"/>
	<advance width="892"/>
	<outline>
		<contour>
			<point x="376" y="274" type="line"/>
			<point x="376" y="49" type="line"/>
			<point x="376" y="49"/>
			<point x="376" y="49"/>
			<point x="376" y="49" type="curve"/>
			<point x="268" y="49" type="line"/>
			<point x="268" y="0" type="line"/>
			<point x="304" y="3"/>
			<point x="404" y="3"/>
			<point x="445" y="3" type="curve" smooth="yes"/>
			<point x="486" y="3"/>
			<point x="587" y="3"/>
			<point x="623" y="0" type="curve"/>
			<point x="623" y="49" type="line"/>
			<point x="515" y="49" type="line"/>
			<point x="515" y="49"/>
			<point x="515" y="49"/>
			<point x="515" y="49" type="curve"/>
			<point x="515" y="274" type="line"/>
			<point x="758" y="617" type="line" smooth="yes"/>
			<point x="772" y="637"/>
			<point x="819" y="637"/>
			<point x="849" y="637" type="curve" smooth="yes"/>
			<point x="870" y="637" type="line"/>
			<point x="870" y="686" type="line"/>
			<point x="821" y="684"/>
			<point x="802" y="683"/>
			<point x="751" y="683" type="curve" smooth="yes"/>
			<point x="702" y="683"/>
			<point x="676" y="684"/>
			<point x="618" y="686" type="curve"/>
			<point x="618" y="637" type="line"/>
			<point x="642" y="637"/>
			<point x="667" y="637"/>
			<point x="693" y="626" type="curve"/>
			<point x="693" y="626"/>
			<point x="693" y="626"/>
			<point x="693" y="626" type="curve"/>
			<point x="495" y="347" type="line"/>
			<point x="290" y="637" type="line"/>
			<point x="290" y="637"/>
			<point x="290" y="637"/>
			<point x="290" y="637" type="curve"/>
			<point x="317.639" y="637"/>
			<point x="345.278" y="637"/>
			<point x="373" y="637" type="curve"/>
			<point x="373" y="686" type="line"/>
			<point x="337" y="683"/>
			<point x="232" y="683"/>
			<point x="190" y="683" type="curve" smooth="yes"/>
			<point x="149" y="683"/>
			<point x="59" y="683"/>
			<point x="22" y="686" type="curve"/>
			<point x="22" y="637" type="line"/>
			<point x="119" y="637" type="line"/>
			<point x="119" y="637"/>
			<point x="119" y="637"/>
			<point x="119" y="637" type="curve"/>
		</contour>
	</outline>
</glyph>
<glyph name="Z" format="2">
	<unicode hex="005A"/>
	<advance width="1446"/>
	<outline>
		<contour>
			<point x="200" y="0" type="curve" smooth="yes"/>
			<point x="1288" y="0" type="line"/>
			<point x="1326" y="572" type="line"/>
			<point x="1224" y="572" type="line"/>
			<point x="1206" y="320"/>
			<point x="1154" y="106"/>
			<point x="760" y="106" type="curve" smooth="yes"/>
			<point x="476" y="106" type="line"/>
			<point x="1294" y="1266" type="line" smooth="yes"/>
			<point x="1312" y="1292"/>
			<point x="1312" y="1304"/>
			<point x="1312" y="1320" type="curve" smooth="yes"/>
			<point x="1312" y="1372"/>
			<point x="1286" y="1372"/>
			<point x="1244" y="1372" type="curve" smooth="yes"/>
			<point x="190" y="1372" type="line"/>
			<point x="164" y="886" type="line"/>
			<point x="266" y="886" type="line"/>
			<point x="284" y="1206"/>
			<point x="486" y="1274"/>
			<point x="706" y="1274" type="curve" smooth="yes"/>
			<point x="970" y="1274" type="line"/>
			<point x="148" y="108" type="line" smooth="yes"/>
			<point x="132" y="86"/>
			<point x="132" y="74"/>
			<point x="132" y="56" type="curve" smooth="yes"/>
			<point x="132" y="0"/>
			<point x="156" y="0"/>
		</contour>
	</outline>
</glyph>
<glyph name="bracketleft" format="2">
	<unicode hex="005B"/>
	<advance width="656"/>
	<outline>
		<contour>
			<point x="604" y="1372" type="line"/>
			<point x="604" y="1500" type="line"/>
			<point x="262" y="1500" type="line"/>
			<point x="262" y="-500" type="line"/>
			<point x="604" y="-500" type="line"/>
			<point x="604" y="-372" type="line"/>
			<point x="390" y="-372" type="line"/>
			<point x="390" y="1372" type="line"/>
		</contour>
	</outline>
</glyph>
<glyph name="bracketright" format="2">
	<unicode hex="005D"/>
	<advance width="656"/>
	<outline>
		<contour>
			<point x="394" y="1500" type="line"/>
			<point x="52" y="1500" type="line"/>
			<point x="52" y="1372" type="line"/>
			<point x="266" y="1372" type="line"/>
			<point x="266" y="-372" type="line"/>
			<point x="52" y="-372" type="line"/>
			<point x="52" y="-500" type="line"/>
			<point x="394" y="-500" type="line"/>
		</contour>
	</outline>
</glyph>
<glyph name="grave" format="2">
	<unicode hex="0060"/>
	<advance width="1182"/>
	<outline>
		<contour>
			<point x="630" y="1014" type="line"/>
			<point x="692" y="1096" type="line"/>
			<point x="450" y="1364" type="line" smooth="yes"/>
			<point x="428" y="1390"/>
			<point x="394" y="1408"/>
			<point x="362" y="1408" type="curve" smooth="yes"/>
			<point x="302" y="1408"/>
			<point x="240" y="1348"/>
			<point x="240" y="1280" type="curve" smooth="yes"/>
			<point x="240" y="1214"/>
			<point x="286" y="1188"/>
			<point x="316" y="1174" type="curve" smooth="yes"/>
		</contour>
	</outline>
</glyph>
<glyph name="a" format="2">
	<unicode hex="0061"/>
	<advance width="575"/>
	<outline>
		<contour>
			<point x="33" y="112" type="curve" smooth="yes"/>
			<point x="33" y="13"/>
			<point x="158" y="-6"/>
			<point x="230" y="-6" type="curve" smooth="yes"/>
			<point x="306" y="-6"/>
			<point x="358" y="27"/>
			<point x="385" y="74" type="curve"/>
			<point x="390" y="34"/>
			<point x="428" y="-6"/>
			<point x="493" y="-6" type="curve" smooth="yes"/>
			<point x="540" y="-6"/>
			<point x="593" y="9"/>
			<point x="593" y="94" type="curve" smooth="yes"/>
			<point x="593" y="150" type="line"/>
			<point x="560" y="150" type="line"/>
			<point x="560" y="94" type="line" smooth="yes"/>
			<point x="560" y="39"/>
			<point x="534" y="33"/>
			<point x="523" y="33" type="curve" smooth="yes"/>
			<point x="488" y="33"/>
			<point x="484" y="63"/>
			<point x="484" y="84" type="curve" smooth="yes"/>
			<point x="484" y="298" type="line" smooth="yes"/>
			<point x="484" y="346.28296"/>
			<point x="462.3252086392" y="388.2441058531"/>
			<point x="417.3239165043" y="416.285574258" type="curve" smooth="yes"/>
			<point x="380.3063409502" y="439.3521824837"/>
			<point x="327.50482" y="453"/>
			<point x="258" y="453" type="curve" smooth="yes"/>
			<point x="201" y="453"/>
			<point x="73" y="451"/>
			<point x="73" y="359" type="curve" smooth="yes"/>
			<point x="73" y="314"/>
			<point x="107" y="293"/>
			<point x="138" y="293" type="curve" smooth="yes"/>
			<point x="172" y="293"/>
			<point x="203" y="317"/>
			<point x="203" y="358" type="curve" smooth="yes"/>
			<point x="203" y="387"/>
			<point x="186" y="404"/>
			<point x="183" y="407" type="curve"/>
			<point x="193" y="409"/>
			<point x="217" y="413"/>
			<point x="254" y="413" type="curve" smooth="yes"/>
			<point x="326" y="413"/>
			<point x="367" y="377"/>
			<point x="367" y="298" type="curve" smooth="yes"/>
			<point x="367" y="266" type="line"/>
			<point x="298.91012" y="266"/>
			<point x="230.4837447352" y="258.7653518068"/>
			<point x="173.4528825614" y="242.570760074" type="curve" smooth="yes"/>
			<point x="91.4451222432" y="219.2836809968"/>
			<point x="33" y="177.47002"/>
		</contour>
		<contour>
			<point x="154" y="112" type="curve" smooth="yes"/>
			<point x="154" y="145"/>
			<point x="172" y="223"/>
			<point x="367" y="232" type="curve"/>
			<point x="367" y="139" type="line" smooth="yes"/>
			<point x="367" y="97.87465"/>
			<point x="349.2049748876" y="72.8568658345"/>
			<point x="327.3141424797" y="57.6377971931" type="curve" smooth="yes"/>
			<point x="293.3139635568" y="34"/>
			<point x="249.43332" y="34"/>
			<point x="247" y="34" type="curve" smooth="yes"/>
			<point x="196" y="34"/>
			<point x="154" y="67"/>
		</contour>
	</outline>
</glyph>
<glyph name="b" format="2">
	<unicode hex="0062"/>
	<advance width="1314"/>
	<outline>
		<contour>
			<point x="218" y="0" type="line"/>
			<point x="320" y="0" type="line"/>
			<point x="351" y="38"/>
			<point x="383" y="76"/>
			<point x="414" y="114" type="curve"/>
			<point x="478" y="50"/>
			<point x="576" y="-12"/>
			<point x="718" y="-12" type="curve" smooth="yes"/>
			<point x="1030" y="-12"/>
			<point x="1234" y="176"/>
			<point x="1234" y="444" type="curve" smooth="yes"/>
			<point x="1234" y="714"/>
			<point x="1040" y="900"/>
			<point x="744" y="900" type="curve" smooth="yes"/>
			<point x="584" y="900"/>
			<point x="478" y="832"/>
			<point x="440" y="804" type="curve"/>
			<point x="440" y="1388" type="line"/>
			<point x="82" y="1372" type="line"/>
			<point x="82" y="1274" type="line"/>
			<point x="202" y="1274"/>
			<point x="218" y="1274"/>
			<point x="218" y="1196" type="curve" smooth="yes"/>
		</contour>
		<contour>
			<point x="698" y="68" type="curve" smooth="yes"/>
			<point x="574" y="68"/>
			<point x="494" y="144"/>
			<point x="452" y="208" type="curve"/>
			<point x="452" y="208"/>
			<point x="452" y="208"/>
			<point x="452" y="208" type="curve"/>
			<point x="452" y="692" type="line"/>
			<point x="452" y="692"/>
			<point x="452" y="692"/>
			<point x="452" y="692" type="curve"/>
			<point x="502" y="756"/>
			<point x="598" y="820"/>
			<point x="720" y="820" type="curve" smooth="yes"/>
			<point x="798" y="820"/>
			<point x="851" y="796"/>
			<point x="888" y="760" type="curve" smooth="yes"/>
			<point x="968" y="680"/>
			<point x="968" y="538"/>
			<point x="968" y="448" type="curve" smooth="yes"/>
			<point x="968" y="364"/>
			<point x="968" y="260"/>
			<point x="926" y="188" type="curve" smooth="yes"/>
			<point x="860" y="76"/>
			<point x="738" y="68"/>
		</contour>
	</outline>
</glyph>
<glyph name="c" format="2">
	<unicode hex="0063"/>
	<advance width="525"/>
	<outline>
		<contour>
			<point x="172" y="226" type="curve" smooth="yes"/>
			<point x="172" y="286"/>
			<point x="173" y="410"/>
			<point x="304" y="410" type="curve" smooth="yes"/>
			<point x="311" y="410"/>
			<point x="365" y="409"/>
			<point x="365" y="404" type="curve"/>
			<point x="358" y="395"/>
			<point x="349" y="380"/>
			<point x="349" y="358" type="curve" smooth="yes"/>
			<point x="349" y="317"/>
			<point x="380" y="293"/>
			<point x="414" y="293" type="curve" smooth="yes"/>
			<point x="445" y="293"/>
			<point x="479" y="314"/>
			<point x="479" y="359" type="curve" smooth="yes"/>
			<point x="479" y="453"/>
			<point x="339" y="453"/>
			<point x="300" y="453" type="curve" smooth="yes"/>
			<point x="108" y="453"/>
			<point x="39" y="331"/>
			<point x="39" y="222" type="curve" smooth="yes"/>
			<point x="39" y="96"/>
			<point x="129" y="-6"/>
			<point x="295" y="-6" type="curve" smooth="yes"/>
			<point x="422" y="-6"/>
			<point x="492" y="69"/>
			<point x="492" y="116" type="curve" smooth="yes"/>
			<point x="492" y="132"/>
			<point x="477" y="132"/>
			<point x="466" y="132" type="curve" smooth="yes"/>
			<point x="446" y="132"/>
			<point x="446" y="131"/>
			<point x="438" y="113" type="curve" smooth="yes"/>
			<point x="418" y="65"/>
			<point x="373" y="37"/>
			<point x="314" y="37" type="curve" smooth="yes"/>
			<point x="172" y="37"/>
			<point x="172" y="181"/>
		</contour>
	</outline>
</glyph>
<glyph name="d" format="2">
	<unicode hex="0064"/>
	<advance width="1314"/>
	<outline>
		<contour>
			<point x="860" y="88" type="curve"/>
			<point x="860" y="-12" type="line"/>
			<point x="1230" y="0" type="line"/>
			<point x="1230" y="98" type="line"/>
			<point x="1110" y="98"/>
			<point x="1094" y="98"/>
			<point x="1094" y="176" type="curve" smooth="yes"/>
			<point x="1094" y="1388" type="line"/>
			<point x="736" y="1372" type="line"/>
			<point x="736" y="1274" type="line"/>
			<point x="856" y="1274"/>
			<point x="872" y="1274"/>
			<point x="872" y="1196" type="curve" smooth="yes"/>
			<point x="872" y="810" type="line"/>
			<point x="784" y="874"/>
			<point x="690" y="900"/>
			<point x="594" y="900" type="curve" smooth="yes"/>
			<point x="268" y="900"/>
			<point x="78" y="702"/>
			<point x="78" y="444" type="curve" smooth="yes"/>
			<point x="78" y="178"/>
			<point x="266" y="-12"/>
			<point x="570" y="-12" type="curve" smooth="yes"/>
			<point x="696" y="-12"/>
			<point x="796" y="36"/>
		</contour>
		<contour>
			<point x="344" y="440" type="curve" smooth="yes"/>
			<point x="344" y="556"/>
			<point x="346" y="642"/>
			<point x="398" y="716" type="curve" smooth="yes"/>
			<point x="450" y="796"/>
			<point x="546" y="820"/>
			<point x="616" y="820" type="curve" smooth="yes"/>
			<point x="716" y="820"/>
			<point x="798" y="776"/>
			<point x="860" y="698" type="curve"/>
			<point x="860" y="698"/>
			<point x="860" y="698"/>
			<point x="860" y="698" type="curve"/>
			<point x="860" y="218" type="line"/>
			<point x="860" y="218"/>
			<point x="860" y="218"/>
			<point x="860" y="218" type="curve"/>
			<point x="816" y="148"/>
			<point x="720" y="68"/>
			<point x="592" y="68" type="curve" smooth="yes"/>
			<point x="514" y="68"/>
			<point x="461" y="92"/>
			<point x="424" y="128" type="curve" smooth="yes"/>
			<point x="344" y="208"/>
			<point x="344" y="350"/>
		</contour>
	</outline>
</glyph>
<glyph name="e" format="2">
	<unicode hex="0065"/>
	<advance width="542"/>
	<outline>
		<contour>
			<point x="166" y="215" type="curve"/>
			<point x="476" y="215" type="line" smooth="yes"/>
			<point x="497" y="215"/>
			<point x="509" y="215"/>
			<point x="509" y="243" type="curve" smooth="yes"/>
			<point x="509" y="344"/>
			<point x="460" y="453"/>
			<point x="288" y="453" type="curve" smooth="yes"/>
			<point x="117" y="453"/>
			<point x="33" y="345"/>
			<point x="33" y="225" type="curve" smooth="yes"/>
			<point x="33" y="94"/>
			<point x="132" y="-6"/>
			<point x="302" y="-6" type="curve" smooth="yes"/>
			<point x="467" y="-6"/>
			<point x="509" y="100"/>
			<point x="509" y="116" type="curve" smooth="yes"/>
			<point x="509" y="136"/>
			<point x="489" y="136"/>
			<point x="483" y="136" type="curve" smooth="yes"/>
			<point x="465" y="136"/>
			<point x="463" y="130"/>
			<point x="457" y="116" type="curve" smooth="yes"/>
			<point x="434" y="64"/>
			<point x="373" y="37"/>
			<point x="310" y="37" type="curve" smooth="yes"/>
			<point x="261.68024" y="37"/>
			<point x="229.571146976" y="51.9369717136"/>
			<point x="208.2353575374" y="73.5760676869" type="curve" smooth="yes"/>
			<point x="166.8704609568" y="115.529001728"/>
			<point x="166" y="182.67372"/>
		</contour>
		<contour>
			<point x="166" y="251" type="line"/>
			<point x="168" y="297"/>
			<point x="173" y="413"/>
			<point x="288" y="413" type="curve" smooth="yes"/>
			<point x="405" y="413"/>
			<point x="409" y="291"/>
			<point x="411" y="251" type="curve"/>
		</contour>
	</outline>
</glyph>
<glyph name="f" format="2">
	<unicode hex="0066"/>
	<advance width="722"/>
	<outline>
		<contour>
			<point x="242" y="98" type="line"/>
			<point x="197" y="98"/>
			<point x="151" y="98"/>
			<point x="106" y="98" type="curve"/>
			<point x="106" y="98" type="line"/>
			<point x="106" y="0" type="line"/>
			<point x="254" y="6"/>
			<point x="266" y="6"/>
			<point x="362" y="6" type="curve" smooth="yes"/>
			<point x="412" y="6"/>
			<point x="528" y="6"/>
			<point x="634" y="0" type="curve"/>
			<point x="634" y="98" type="line"/>
			<point x="634" y="98" type="line"/>
			<point x="577" y="98"/>
			<point x="521" y="98"/>
			<point x="464" y="98" type="curve"/>
			<point x="464" y="790" type="line"/>
			<point x="702" y="790" type="line"/>
			<point x="702" y="888" type="line"/>
			<point x="452" y="888" type="line"/>
			<point x="452" y="1086" type="line" smooth="yes"/>
			<point x="452" y="1304"/>
			<point x="608" y="1320"/>
			<point x="658" y="1320" type="curve" smooth="yes"/>
			<point x="664" y="1320"/>
			<point x="684" y="1320"/>
			<point x="684" y="1316" type="curve"/>
			<point x="678" y="1304"/>
			<point x="648" y="1276"/>
			<point x="648" y="1222" type="curve" smooth="yes"/>
			<point x="648" y="1138"/>
			<point x="716" y="1094"/>
			<point x="774" y="1094" type="curve" smooth="yes"/>
			<point x="840" y="1094"/>
			<point x="902" y="1142"/>
			<point x="902" y="1222" type="curve" smooth="yes"/>
			<point x="902" y="1312"/>
			<point x="824" y="1400"/>
			<point x="668" y="1400" type="curve" smooth="yes"/>
			<point x="458" y="1400"/>
			<point x="242" y="1310"/>
			<point x="242" y="1086" type="curve" smooth="yes"/>
			<point x="242" y="888" type="line"/>
			<point x="88" y="888" type="line"/>
			<point x="88" y="790" type="line"/>
			<point x="242" y="790" type="line"/>
		</contour>
	</outline>
</glyph>
<glyph name="h" format="2">
	<unicode hex="0068"/>
	<advance width="657"/>
	<outline>
		<contour>
			<point x="118" y="49" type="line"/>
			<point x="95.356" y="49"/>
			<point x="72.712" y="49"/>
			<point x="50" y="49" type="curve"/>
			<point x="50" y="49" type="line"/>
			<point x="50" y="0" type="line"/>
			<point x="124" y="3"/>
			<point x="136" y="3"/>
			<point x="176" y="3" type="curve" smooth="yes"/>
			<point x="217" y="3"/>
			<point x="227" y="3"/>
			<point x="303" y="0" type="curve"/>
			<point x="303" y="49" type="line"/>
			<point x="303" y="49" type="line"/>
			<point x="280.356" y="49"/>
			<point x="257.712" y="49"/>
			<point x="235" y="49" type="curve"/>
			<point x="235" y="254" type="line" smooth="yes"/>
			<point x="235" y="366"/>
			<point x="327" y="410"/>
			<point x="387" y="410" type="curve" smooth="yes"/>
			<point x="425" y="410"/>
			<point x="445" y="389"/>
			<point x="445" y="314" type="curve" smooth="yes"/>
			<point x="445" y="49" type="line"/>
			<point x="422.356" y="49"/>
			<point x="399.712" y="49"/>
			<point x="377" y="49" type="curve"/>
			<point x="377" y="49" type="line"/>
			<point x="377" y="0" type="line"/>
			<point x="451" y="3"/>
			<point x="463" y="3"/>
			<point x="503" y="3" type="curve" smooth="yes"/>
			<point x="544" y="3"/>
			<point x="554" y="3"/>
			<point x="630" y="0" type="curve"/>
			<point x="630" y="49" type="line"/>
			<point x="630" y="49" type="line"/>
			<point x="607.356" y="49"/>
			<point x="584.712" y="49"/>
			<point x="562" y="49" type="curve"/>
			<point x="562" y="305" type="line" smooth="yes"/>
			<point x="562" y="356"/>
			<point x="549" y="390"/>
			<point x="527" y="412" type="curve" smooth="yes"/>
			<point x="498" y="441"/>
			<point x="453" y="450"/>
			<point x="403" y="450" type="curve" smooth="yes"/>
			<point x="308" y="450"/>
			<point x="255" y="396"/>
			<point x="229" y="355" type="curve"/>
			<point x="229" y="355" type="line"/>
			<point x="229" y="694" type="line"/>
			<point x="50" y="686" type="line"/>
			<point x="50" y="637" type="line"/>
			<point x="110" y="637"/>
			<point x="118" y="637"/>
			<point x="118" y="598" type="curve" smooth="yes"/>
		</contour>
	</outline>
</glyph>
<glyph name="i" format="2">
	<unicode hex="0069"/>
	<advance width="656"/>
	<outline>
		<contour>
			<point x="240" y="98" type="line"/>
			<point x="195" y="98"/>
			<point x="149" y="98"/>
			<point x="104" y="98" type="curve"/>
			<point x="104" y="98" type="line"/>
			<point x="104" y="0" type="line"/>
			<point x="238" y="4"/>
			<point x="264" y="6"/>
			<point x="348" y="6" type="curve" smooth="yes"/>
			<point x="446" y="6"/>
			<point x="472" y="4"/>
			<point x="584" y="0" type="curve"/>
			<point x="584" y="98" type="line"/>
			<point x="543" y="98"/>
			<point x="503" y="98"/>
			<point x="462" y="98" type="curve"/>
			<point x="462" y="900" type="line"/>
			<point x="110" y="884" type="line"/>
			<point x="110" y="786" type="line"/>
			<point x="226" y="786"/>
			<point x="240" y="786"/>
			<point x="240" y="708" type="curve" smooth="yes"/>
		</contour>
		<contour>
			<point x="480" y="1232" type="curve" smooth="yes"/>
			<point x="480" y="1336"/>
			<point x="396" y="1390"/>
			<point x="324" y="1390" type="curve" smooth="yes"/>
			<point x="232" y="1390"/>
			<point x="166" y="1312"/>
			<point x="166" y="1234" type="curve" smooth="yes"/>
			<point x="166" y="1150"/>
			<point x="234" y="1076"/>
			<point x="324" y="1076" type="curve" smooth="yes"/>
			<point x="400" y="1076"/>
			<point x="480" y="1136"/>
		</contour>
	</outline>
</glyph>
<glyph name="j" format="2">
	<unicode hex="006A"/>
	<advance width="722"/>
	<outline>
		<contour>
			<point x="328" y="706" type="curve" smooth="yes"/>
			<point x="328" y="-80" type="line" smooth="yes"/>
			<point x="328" y="-190"/>
			<point x="290" y="-320"/>
			<point x="174" y="-320" type="curve" smooth="yes"/>
			<point x="160" y="-320"/>
			<point x="104" y="-316"/>
			<point x="104" y="-310" type="curve"/>
			<point x="116" y="-296"/>
			<point x="144" y="-268"/>
			<point x="144" y="-212" type="curve" smooth="yes"/>
			<point x="144" y="-134"/>
			<point x="86" y="-82"/>
			<point x="14" y="-82" type="curve" smooth="yes"/>
			<point x="-58" y="-82"/>
			<point x="-116" y="-134"/>
			<point x="-116" y="-212" type="curve" smooth="yes"/>
			<point x="-116" y="-340"/>
			<point x="22" y="-400"/>
			<point x="178" y="-400" type="curve" smooth="yes"/>
			<point x="350" y="-400"/>
			<point x="550" y="-298"/>
			<point x="550" y="-78" type="curve" smooth="yes"/>
			<point x="550" y="900" type="line"/>
			<point x="178" y="884" type="line"/>
			<point x="178" y="786" type="line"/>
			<point x="312" y="786"/>
			<point x="328" y="786"/>
		</contour>
		<contour>
			<point x="550" y="1232" type="curve" smooth="yes"/>
			<point x="550" y="1324"/>
			<point x="476" y="1390"/>
			<point x="394" y="1390" type="curve" smooth="yes"/>
			<point x="304" y="1390"/>
			<point x="236" y="1316"/>
			<point x="236" y="1234" type="curve" smooth="yes"/>
			<point x="236" y="1142"/>
			<point x="310" y="1076"/>
			<point x="392" y="1076" type="curve" smooth="yes"/>
			<point x="482" y="1076"/>
			<point x="550" y="1150"/>
		</contour>
	</outline>
</glyph>
<glyph name="k" format="2">
	<unicode hex="006B"/>
	<advance width="1248"/>
	<outline>
		<contour>
			<point x="708" y="552" type="line"/>
			<point x="980" y="756" type="line"/>
			<point x="1006" y="776"/>
			<point x="1026" y="790"/>
			<point x="1156" y="790" type="curve"/>
			<point x="1156" y="888" type="line"/>
			<point x="1092" y="882"/>
			<point x="1034" y="882"/>
			<point x="992" y="882" type="curve" smooth="yes"/>
			<point x="940" y="882"/>
			<point x="862" y="884"/>
			<point x="768" y="888" type="curve"/>
			<point x="768" y="790" type="line"/>
			<point x="806" y="790"/>
			<point x="812" y="784"/>
			<point x="824" y="768" type="curve"/>
			<point x="824" y="768"/>
			<point x="824" y="768"/>
			<point x="824" y="768" type="curve"/>
			<point x="440" y="476" type="line"/>
			<point x="440" y="1388" type="line"/>
			<point x="82" y="1372" type="line"/>
			<point x="82" y="1274" type="line"/>
			<point x="202" y="1274"/>
			<point x="218" y="1274"/>
			<point x="218" y="1196" type="curve" smooth="yes"/>
			<point x="218" y="98" type="line"/>
			<point x="218" y="98"/>
			<point x="218" y="98"/>
			<point x="218" y="98" type="curve"/>
			<point x="82" y="98" type="line"/>
			<point x="82" y="0" type="line"/>
			<point x="208" y="4"/>
			<point x="238" y="6"/>
			<point x="322" y="6" type="curve" smooth="yes"/>
			<point x="408" y="6"/>
			<point x="430" y="6"/>
			<point x="564" y="0" type="curve"/>
			<point x="564" y="98" type="line"/>
			<point x="428" y="98" type="line"/>
			<point x="428" y="98"/>
			<point x="428" y="98"/>
			<point x="428" y="98" type="curve"/>
			<point x="428" y="340" type="line"/>
			<point x="469" y="370"/>
			<point x="509" y="400"/>
			<point x="550" y="430" type="curve"/>
			<point x="800" y="134" type="line" smooth="yes"/>
			<point x="808" y="124"/>
			<point x="812" y="118"/>
			<point x="812" y="116" type="curve" smooth="yes"/>
			<point x="812" y="98"/>
			<point x="780" y="98"/>
			<point x="758" y="98" type="curve"/>
			<point x="758" y="0" type="line"/>
			<point x="876" y="4"/>
			<point x="930" y="6"/>
			<point x="998" y="6" type="curve" smooth="yes"/>
			<point x="1076" y="6"/>
			<point x="1130" y="6"/>
			<point x="1210" y="0" type="curve"/>
			<point x="1210" y="98" type="line"/>
			<point x="1110" y="96"/>
			<point x="1090" y="98"/>
			<point x="1060" y="136" type="curve" smooth="yes"/>
		</contour>
	</outline>
</glyph>
<glyph name="l" format="2">
	<unicode hex="006C"/>
	<advance width="656"/>
	<outline>
		<contour>
			<point x="462" y="1388" type="line"/>
			<point x="104" y="1372" type="line"/>
			<point x="104" y="1274" type="line"/>
			<point x="224" y="1274"/>
			<point x="240" y="1274"/>
			<point x="240" y="1196" type="curve" smooth="yes"/>
			<point x="240" y="98" type="line"/>
			<point x="195" y="98"/>
			<point x="149" y="98"/>
			<point x="104" y="98" type="curve"/>
			<point x="104" y="98" type="line"/>
			<point x="104" y="0" type="line"/>
			<point x="240" y="6"/>
			<point x="264" y="6"/>
			<point x="350" y="6" type="curve" smooth="yes"/>
			<point x="438" y="6"/>
			<point x="490" y="4"/>
			<point x="598" y="0" type="curve"/>
			<point x="598" y="98" type="line"/>
			<point x="598" y="98" type="line"/>
			<point x="553" y="98"/>
			<point x="507" y="98"/>
			<point x="462" y="98" type="curve"/>
		</contour>
	</outline>
</glyph>
<glyph name="n" format="2">
  <advance width="657"/>
  <unicode hex="006E"/>
  <outline>
    <contour>
      <point x="118" y="49" type="line"/>
      <point x="95.356" y="49.0"/>
      <point x="72.71199999999999" y="49.0"/>
      <point x="50" y="49" type="curve"/>
      <point x="50" y="49" type="line"/>
      <point x="50" y="0" type="line"/>
      <point x="124" y="3"/>
      <point x="136" y="3"/>
      <point x="176" y="3" type="curve" smooth="yes"/>
      <point x="217" y="3"/>
      <point x="227" y="3"/>
      <point x="303" y="0" type="curve"/>
      <point x="303" y="49" type="line"/>
      <point x="303" y="49" type="line"/>
      <point x="280.356" y="49.0"/>
      <point x="257.712" y="49.0"/>
      <point x="235" y="49" type="curve"/>
      <point x="235" y="254" type="line" smooth="yes"/>
      <point x="235" y="366"/>
      <point x="327" y="410"/>
      <point x="387" y="410" type="curve" smooth="yes"/>
      <point x="425" y="410"/>
      <point x="445" y="389"/>
      <point x="445" y="314" type="curve" smooth="yes"/>
      <point x="445" y="49" type="line"/>
      <point x="422.356" y="49.0"/>
      <point x="399.712" y="49.0"/>
      <point x="377" y="49" type="curve"/>
      <point x="377" y="49" type="line"/>
      <point x="377" y="0" type="line"/>
      <point x="451" y="3"/>
      <point x="463" y="3"/>
      <point x="503" y="3" type="curve" smooth="yes"/>
      <point x="544" y="3"/>
      <point x="554" y="3"/>
      <point x="630" y="0" type="curve"/>
      <point x="630" y="49" type="line"/>
      <point x="630" y="49" type="line"/>
      <point x="607.356" y="49.0"/>
      <point x="584.712" y="49.0"/>
      <point x="562" y="49" type="curve"/>
      <point x="562" y="305" type="line" smooth="yes"/>
      <point x="562.0" y="355.89273000000003"/>
      <point x="548.8310827192" y="389.77560851230004"/>
      <point x="526.9518759166048" y="411.8894786922215" type="curve" smooth="yes"/>
      <point x="497.67199556649996" y="441.4833976486"/>
      <point x="452.79270999999994" y="450.0"/>
      <point x="403" y="450" type="curve" smooth="yes"/>
      <point x="280" y="450"/>
      <point x="231" y="360"/>
      <point x="224" y="345" type="curve"/>
      <point x="223" y="345" type="line"/>
      <point x="223" y="450" type="line"/>
      <point x="50" y="442" type="line"/>
      <point x="50" y="393" type="line"/>
      <point x="110" y="393"/>
      <point x="118" y="393"/>
      <point x="118" y="354" type="curve" smooth="yes"/>
    </contour>
  </outline>
</glyph>
<glyph name="o" format="2">
	<unicode hex="006F"/>
	<advance width="591"/>
	<outline>
		<contour>
			<point x="558" y="218" type="curve" smooth="yes"/>
			<point x="558" y="349"/>
			<point x="466" y="453"/>
			<point x="296" y="453" type="curve" smooth="yes"/>
			<point x="120" y="453"/>
			<point x="33" y="344"/>
			<point x="33" y="218" type="curve" smooth="yes"/>
			<point x="33" y="94"/>
			<point x="123" y="-6"/>
			<point x="295" y="-6" type="curve" smooth="yes"/>
			<point x="474" y="-6"/>
			<point x="558" y="99"/>
		</contour>
		<contour>
			<point x="296" y="37" type="curve" smooth="yes"/>
			<point x="252.0002" y="37"/>
			<point x="222.892572308" y="49.028293018"/>
			<point x="203.6367122846" y="68.3158808183" type="curve" smooth="yes"/>
			<point x="166" y="106.0146069112"/>
			<point x="166" y="171.44602"/>
			<point x="166" y="229" type="curve" smooth="yes"/>
			<point x="166" y="283.69744"/>
			<point x="166" y="345.1790295296"/>
			<point x="201.616632387" y="381.417409233" type="curve" smooth="yes"/>
			<point x="220.6972055824" y="400.83106544"/>
			<point x="249.99964" y="413"/>
			<point x="295" y="413" type="curve" smooth="yes"/>
			<point x="339.9995" y="413"/>
			<point x="369.422423075" y="401.01801775"/>
			<point x="388.6606013276" y="381.8652265108" type="curve" smooth="yes"/>
			<point x="425" y="345.68711716"/>
			<point x="425" y="283.9234"/>
			<point x="425" y="229" type="curve" smooth="yes"/>
			<point x="425" y="171.66638"/>
			<point x="425" y="105.443782222"/>
			<point x="386.7772044416" y="67.6661000021" type="curve" smooth="yes"/>
			<point x="367.6660933319" y="48.7775422234"/>
			<point x="338.99957" y="37"/>
		</contour>
	</outline>
</glyph>
<glyph name="q" format="2">
	<unicode hex="0071"/>
	<advance width="1248"/>
	<outline>
		<contour>
			<point x="78" y="444" type="curve" smooth="yes"/>
			<point x="78" y="178"/>
			<point x="270" y="-12"/>
			<point x="572" y="-12" type="curve" smooth="yes"/>
			<point x="678" y="-12"/>
			<point x="782" y="26"/>
			<point x="862" y="98" type="curve"/>
			<point x="862" y="-290" type="line"/>
			<point x="817" y="-290"/>
			<point x="771" y="-290"/>
			<point x="726" y="-290" type="curve"/>
			<point x="726" y="-290" type="line"/>
			<point x="726" y="-388" type="line"/>
			<point x="874" y="-382"/>
			<point x="898" y="-382"/>
			<point x="978" y="-382" type="curve" smooth="yes"/>
			<point x="1060" y="-382"/>
			<point x="1080" y="-382"/>
			<point x="1232" y="-388" type="curve"/>
			<point x="1232" y="-290" type="line"/>
			<point x="1232" y="-290" type="line"/>
			<point x="1187" y="-290"/>
			<point x="1141" y="-290"/>
			<point x="1096" y="-290" type="curve"/>
			<point x="1096" y="900" type="line"/>
			<point x="1006" y="900" type="line"/>
			<point x="904" y="744" type="line"/>
			<point x="824" y="842"/>
			<point x="724" y="900"/>
			<point x="592" y="900" type="curve" smooth="yes"/>
			<point x="278" y="900"/>
			<point x="78" y="710"/>
		</contour>
		<contour>
			<point x="344" y="442" type="curve" smooth="yes"/>
			<point x="344" y="646"/>
			<point x="432" y="814"/>
			<point x="616" y="814" type="curve" smooth="yes"/>
			<point x="778" y="814"/>
			<point x="874" y="654"/>
			<point x="874" y="556" type="curve" smooth="yes"/>
			<point x="874" y="296" type="line" smooth="yes"/>
			<point x="874" y="258"/>
			<point x="874" y="256"/>
			<point x="850" y="218" type="curve" smooth="yes"/>
			<point x="778" y="108"/>
			<point x="678" y="68"/>
			<point x="594" y="68" type="curve" smooth="yes"/>
			<point x="460" y="68"/>
			<point x="344" y="188"/>
		</contour>
	</outline>
</glyph>
<glyph name="r" format="2">
	<unicode hex="0072"/>
	<advance width="976"/>
	<outline>
		<contour>
			<point x="218" y="98" type="line"/>
			<point x="218" y="98"/>
			<point x="218" y="98"/>
			<point x="218" y="98" type="curve"/>
			<point x="82" y="98" type="line"/>
			<point x="82" y="0" type="line"/>
			<point x="230" y="6"/>
			<point x="242" y="6"/>
			<point x="338" y="6" type="curve" smooth="yes"/>
			<point x="388" y="6"/>
			<point x="504" y="6"/>
			<point x="610" y="0" type="curve"/>
			<point x="610" y="98" type="line"/>
			<point x="440" y="98" type="line"/>
			<point x="440" y="98"/>
			<point x="440" y="98"/>
			<point x="440" y="98" type="curve"/>
			<point x="440" y="436" type="line" smooth="yes"/>
			<point x="440" y="582"/>
			<point x="494" y="814"/>
			<point x="688" y="820" type="curve"/>
			<point x="688" y="820"/>
			<point x="688" y="820"/>
			<point x="688" y="820" type="curve"/>
			<point x="666" y="798"/>
			<point x="656" y="764"/>
			<point x="656" y="732" type="curve" smooth="yes"/>
			<point x="656" y="644"/>
			<point x="726" y="604"/>
			<point x="782" y="604" type="curve" smooth="yes"/>
			<point x="846" y="604"/>
			<point x="910" y="648"/>
			<point x="910" y="732" type="curve" smooth="yes"/>
			<point x="910" y="834"/>
			<point x="806" y="900"/>
			<point x="688" y="900" type="curve" smooth="yes"/>
			<point x="548" y="900"/>
			<point x="462" y="798"/>
			<point x="418" y="682" type="curve"/>
			<point x="416" y="682" type="line"/>
			<point x="416" y="900" type="line"/>
			<point x="82" y="884" type="line"/>
			<point x="82" y="786" type="line"/>
			<point x="202" y="786"/>
			<point x="218" y="786"/>
			<point x="218" y="708" type="curve" smooth="yes"/>
		</contour>
	</outline>
</glyph>
<glyph name="s" format="2">
	<unicode hex="0073"/>
	<advance width="932"/>
	<outline>
		<contour>
			<point x="854" y="280" type="curve" smooth="yes"/>
			<point x="854" y="382"/>
			<point x="796" y="446"/>
			<point x="760" y="476" type="curve" smooth="yes"/>
			<point x="670" y="552"/>
			<point x="606" y="562"/>
			<point x="448" y="588" type="curve" smooth="yes"/>
			<point x="352" y="604"/>
			<point x="226" y="624"/>
			<point x="226" y="714" type="curve" smooth="yes"/>
			<point x="226" y="834"/>
			<point x="412" y="834"/>
			<point x="456" y="834" type="curve" smooth="yes"/>
			<point x="680" y="834"/>
			<point x="688" y="716"/>
			<point x="692" y="662" type="curve" smooth="yes"/>
			<point x="694" y="634"/>
			<point x="722" y="634"/>
			<point x="742" y="634" type="curve" smooth="yes"/>
			<point x="792" y="634"/>
			<point x="794" y="644"/>
			<point x="794" y="692" type="curve" smooth="yes"/>
			<point x="794" y="848" type="line" smooth="yes"/>
			<point x="794" y="884"/>
			<point x="794" y="906"/>
			<point x="754" y="906" type="curve" smooth="yes"/>
			<point x="734" y="906"/>
			<point x="702" y="890"/>
			<point x="666" y="870" type="curve"/>
			<point x="666" y="870"/>
			<point x="666" y="870"/>
			<point x="666" y="870" type="curve"/>
			<point x="602" y="898"/>
			<point x="524" y="906"/>
			<point x="458" y="906" type="curve" smooth="yes"/>
			<point x="396" y="906"/>
			<point x="78" y="906"/>
			<point x="78" y="642" type="curve" smooth="yes"/>
			<point x="78" y="565"/>
			<point x="113" y="510"/>
			<point x="162" y="471" type="curve" smooth="yes"/>
			<point x="245" y="404"/>
			<point x="366" y="384"/>
			<point x="410" y="376" type="curve" smooth="yes"/>
			<point x="517" y="358"/>
			<point x="611" y="342"/>
			<point x="663" y="301" type="curve" smooth="yes"/>
			<point x="690" y="280"/>
			<point x="706" y="251"/>
			<point x="706" y="212" type="curve" smooth="yes"/>
			<point x="706" y="68"/>
			<point x="518" y="68"/>
			<point x="474" y="68" type="curve" smooth="yes"/>
			<point x="372" y="68"/>
			<point x="242" y="94"/>
			<point x="184" y="278" type="curve" smooth="yes"/>
			<point x="174" y="312"/>
			<point x="172" y="318"/>
			<point x="130" y="318" type="curve" smooth="yes"/>
			<point x="78" y="318"/>
			<point x="78" y="306"/>
			<point x="78" y="258" type="curve" smooth="yes"/>
			<point x="78" y="46" type="line" smooth="yes"/>
			<point x="78" y="10"/>
			<point x="78" y="-12"/>
			<point x="118" y="-12" type="curve" smooth="yes"/>
			<point x="132" y="-12"/>
			<point x="136" y="-12"/>
			<point x="180" y="16" type="curve" smooth="yes"/>
			<point x="198" y="27"/>
			<point x="216" y="39"/>
			<point x="234" y="50" type="curve"/>
			<point x="328" y="-12"/>
			<point x="434" y="-12"/>
			<point x="474" y="-12" type="curve" smooth="yes"/>
			<point x="534" y="-12"/>
			<point x="854" y="-12"/>
		</contour>
	</outline>
</glyph>
<glyph name="t" format="2">
	<unicode hex="0074"/>
	<advance width="920"/>
	<outline>
		<contour>
			<point x="446" y="790" type="line"/>
			<point x="748" y="790" type="line"/>
			<point x="748" y="888" type="line"/>
			<point x="446" y="888" type="line"/>
			<point x="446" y="1270" type="line"/>
			<point x="344" y="1270" type="line"/>
			<point x="342" y="1082"/>
			<point x="248" y="876"/>
			<point x="44" y="870" type="curve"/>
			<point x="44" y="790" type="line"/>
			<point x="212" y="790" type="line"/>
			<point x="212" y="246" type="line" smooth="yes"/>
			<point x="212" y="18"/>
			<point x="410" y="-12"/>
			<point x="534" y="-12" type="curve" smooth="yes"/>
			<point x="690" y="-12"/>
			<point x="786" y="100"/>
			<point x="786" y="246" type="curve" smooth="yes"/>
			<point x="786" y="352" type="line"/>
			<point x="684" y="352" type="line"/>
			<point x="684" y="252" type="line" smooth="yes"/>
			<point x="684" y="110"/>
			<point x="612" y="74"/>
			<point x="562" y="74" type="curve" smooth="yes"/>
			<point x="446" y="74"/>
			<point x="446" y="194"/>
			<point x="446" y="242" type="curve" smooth="yes"/>
		</contour>
	</outline>
</glyph>
<glyph name="u" format="2">
  <advance width="657"/>
  <unicode hex="0075"/>
  <outline>
    <contour>
      <point x="118" y="354" type="curve" smooth="yes"/>
      <point x="118" y="123" type="line" smooth="yes"/>
      <point x="118.0" y="83.09291999999999"/>
      <point x="129.5277714784" y="55.1157430416"/>
      <point x="148.9026042372304" y="35.68221574266798" type="curve" smooth="yes"/>
      <point x="182.4471223984" y="2.036077088000006"/>
      <point x="239.51364" y="-5.999999999999993"/>
      <point x="301" y="-6" type="curve" smooth="yes"/>
      <point x="332" y="-6"/>
      <point x="400" y="-6"/>
      <point x="451" y="69" type="curve"/>
      <point x="451" y="69" type="line"/>
      <point x="451" y="-6" type="line"/>
      <point x="630" y="0" type="line"/>
      <point x="630" y="49" type="line"/>
      <point x="570" y="49"/>
      <point x="562" y="49"/>
      <point x="562" y="88" type="curve" smooth="yes"/>
      <point x="562" y="450" type="line"/>
      <point x="377" y="442" type="line"/>
      <point x="377" y="393" type="line"/>
      <point x="437" y="393"/>
      <point x="445" y="393"/>
      <point x="445" y="354" type="curve" smooth="yes"/>
      <point x="445" y="164" type="line" smooth="yes"/>
      <point x="445" y="84"/>
      <point x="393" y="34"/>
      <point x="316" y="34" type="curve" smooth="yes"/>
      <point x="239" y="34"/>
      <point x="235" y="56"/>
      <point x="235" y="109" type="curve" smooth="yes"/>
      <point x="235" y="450" type="line"/>
      <point x="50" y="442" type="line"/>
      <point x="50" y="393" type="line"/>
      <point x="110" y="393"/>
      <point x="118" y="393"/>
    </contour>
  </outline>
</glyph>
<glyph name="v" format="2">
	<unicode hex="0076"/>
	<advance width="1248"/>
	<outline>
		<contour>
			<point x="624" y="-10" type="curve" smooth="yes"/>
			<point x="674" y="-10"/>
			<point x="690" y="8"/>
			<point x="708" y="46" type="curve" smooth="yes"/>
			<point x="821" y="280"/>
			<point x="933" y="514"/>
			<point x="1046" y="748" type="curve" smooth="yes"/>
			<point x="1060" y="776"/>
			<point x="1066" y="790"/>
			<point x="1192" y="790" type="curve"/>
			<point x="1192" y="823"/>
			<point x="1192" y="855"/>
			<point x="1192" y="888" type="curve"/>
			<point x="1136" y="882"/>
			<point x="1086" y="882"/>
			<point x="1030" y="882" type="curve" smooth="yes"/>
			<point x="972" y="882"/>
			<point x="908" y="882"/>
			<point x="850" y="888" type="curve"/>
			<point x="850" y="855"/>
			<point x="850" y="823"/>
			<point x="850" y="790" type="curve"/>
			<point x="906" y="790"/>
			<point x="924" y="780"/>
			<point x="942" y="772" type="curve"/>
			<point x="940" y="764"/>
			<point x="934" y="752"/>
			<point x="930" y="744" type="curve" smooth="yes"/>
			<point x="850" y="578"/>
			<point x="770" y="412"/>
			<point x="690" y="246" type="curve"/>
			<point x="603" y="427"/>
			<point x="516" y="608"/>
			<point x="428" y="790" type="curve"/>
			<point x="428" y="790"/>
			<point x="428" y="790"/>
			<point x="428" y="790" type="curve"/>
			<point x="463" y="790"/>
			<point x="497" y="790"/>
			<point x="532" y="790" type="curve"/>
			<point x="532" y="823"/>
			<point x="532" y="855"/>
			<point x="532" y="888" type="curve"/>
			<point x="400" y="884"/>
			<point x="360" y="882"/>
			<point x="286" y="882" type="curve" smooth="yes"/>
			<point x="214" y="882"/>
			<point x="174" y="882"/>
			<point x="56" y="888" type="curve"/>
			<point x="56" y="855"/>
			<point x="56" y="823"/>
			<point x="56" y="790" type="curve"/>
			<point x="98" y="790"/>
			<point x="140" y="790"/>
			<point x="182" y="790" type="curve"/>
			<point x="301" y="542"/>
			<point x="420" y="294"/>
			<point x="540" y="46" type="curve" smooth="yes"/>
			<point x="558" y="8"/>
			<point x="574" y="-10"/>
		</contour>
	</outline>
</glyph>
<glyph name="w" format="2">
	<unicode hex="0077"/>
	<advance width="854"/>
	<outline>
		<contour>
			<point x="761" y="373" type="line" smooth="yes"/>
			<point x="768" y="389"/>
			<point x="770" y="395"/>
			<point x="828" y="395" type="curve"/>
			<point x="828" y="411.317"/>
			<point x="828" y="427.634"/>
			<point x="828" y="444" type="curve"/>
			<point x="800" y="441"/>
			<point x="775" y="441"/>
			<point x="748" y="441" type="curve" smooth="yes"/>
			<point x="716" y="441"/>
			<point x="685" y="442"/>
			<point x="653" y="444" type="curve"/>
			<point x="653" y="427.683"/>
			<point x="653" y="411.366"/>
			<point x="653" y="395" type="curve"/>
			<point x="666" y="395"/>
			<point x="689" y="395"/>
			<point x="709" y="386" type="curve"/>
			<point x="709" y="383"/>
			<point x="706" y="375"/>
			<point x="704" y="370" type="curve" smooth="yes"/>
			<point x="598" y="116" type="line"/>
			<point x="482" y="395" type="line"/>
			<point x="482" y="395"/>
			<point x="482" y="395"/>
			<point x="482" y="395" type="curve"/>
			<point x="499.982" y="395"/>
			<point x="517.964" y="395"/>
			<point x="536" y="395" type="curve"/>
			<point x="536" y="444" type="line"/>
			<point x="488" y="442"/>
			<point x="467" y="441"/>
			<point x="424" y="441" type="curve" smooth="yes"/>
			<point x="414" y="441"/>
			<point x="365" y="441"/>
			<point x="322" y="444" type="curve"/>
			<point x="322" y="395" type="line"/>
			<point x="341.314" y="395"/>
			<point x="360.628" y="395"/>
			<point x="380" y="395" type="curve"/>
			<point x="388" y="377"/>
			<point x="393" y="364"/>
			<point x="399" y="349" type="curve"/>
			<point x="312" y="139" type="line"/>
			<point x="205" y="395" type="line"/>
			<point x="205" y="395"/>
			<point x="205" y="395"/>
			<point x="205" y="395" type="curve"/>
			<point x="222.982" y="395"/>
			<point x="240.964" y="395"/>
			<point x="259" y="395" type="curve"/>
			<point x="259" y="444" type="line"/>
			<point x="192" y="442"/>
			<point x="173" y="441"/>
			<point x="137" y="441" type="curve" smooth="yes"/>
			<point x="114" y="441"/>
			<point x="77" y="441"/>
			<point x="26" y="444" type="curve"/>
			<point x="26" y="395" type="line"/>
			<point x="45.314" y="395"/>
			<point x="64.628" y="395"/>
			<point x="84" y="395" type="curve"/>
			<point x="240" y="21" type="line" smooth="yes"/>
			<point x="251" y="-5"/>
			<point x="267" y="-5"/>
			<point x="279" y="-5" type="curve" smooth="yes"/>
			<point x="306" y="-5"/>
			<point x="311" y="6"/>
			<point x="318" y="23" type="curve" smooth="yes"/>
			<point x="427" y="283" type="line"/>
			<point x="536" y="21" type="line" smooth="yes"/>
			<point x="547" y="-5"/>
			<point x="562" y="-5"/>
			<point x="575" y="-5" type="curve" smooth="yes"/>
			<point x="587" y="-5"/>
			<point x="603" y="-5"/>
			<point x="614" y="21" type="curve" smooth="yes"/>
		</contour>
	</outline>
</glyph>
<glyph name="x" format="2">
	<unicode hex="0078"/>
	<advance width="1248"/>
	<outline>
		<contour>
			<point x="520" y="428" type="line"/>
			<point x="250" y="136" type="line" smooth="yes"/>
			<point x="214" y="98"/>
			<point x="144" y="98"/>
			<point x="52" y="98" type="curve"/>
			<point x="52" y="0" type="line"/>
			<point x="120" y="6"/>
			<point x="172" y="6"/>
			<point x="238" y="6" type="curve" smooth="yes"/>
			<point x="274" y="6"/>
			<point x="352" y="6"/>
			<point x="442" y="0" type="curve"/>
			<point x="442" y="98" type="line"/>
			<point x="412" y="98"/>
			<point x="378" y="106"/>
			<point x="378" y="120" type="curve" smooth="yes"/>
			<point x="378" y="128"/>
			<point x="390" y="140"/>
			<point x="392" y="142" type="curve" smooth="yes"/>
			<point x="457" y="212"/>
			<point x="523" y="282"/>
			<point x="588" y="352" type="curve"/>
			<point x="810" y="98" type="line"/>
			<point x="810" y="98"/>
			<point x="810" y="98"/>
			<point x="810" y="98" type="curve"/>
			<point x="787" y="98"/>
			<point x="763" y="98"/>
			<point x="740" y="98" type="curve"/>
			<point x="740" y="0" type="line"/>
			<point x="866" y="4"/>
			<point x="912" y="6"/>
			<point x="978" y="6" type="curve" smooth="yes"/>
			<point x="1024" y="6"/>
			<point x="1098" y="6"/>
			<point x="1200" y="0" type="curve"/>
			<point x="1200" y="98" type="line"/>
			<point x="1153" y="98"/>
			<point x="1107" y="98"/>
			<point x="1060" y="98" type="curve"/>
			<point x="716" y="490" type="line"/>
			<point x="960" y="752" type="line" smooth="yes"/>
			<point x="982" y="776"/>
			<point x="996" y="790"/>
			<point x="1156" y="790" type="curve"/>
			<point x="1156" y="888" type="line"/>
			<point x="1088" y="882"/>
			<point x="1036" y="882"/>
			<point x="970" y="882" type="curve" smooth="yes"/>
			<point x="934" y="882"/>
			<point x="856" y="882"/>
			<point x="766" y="888" type="curve"/>
			<point x="766" y="790" type="line"/>
			<point x="810" y="790"/>
			<point x="820" y="782"/>
			<point x="834" y="768" type="curve"/>
			<point x="834" y="768"/>
			<point x="834" y="768"/>
			<point x="834" y="768" type="curve"/>
			<point x="648" y="566" type="line"/>
			<point x="450" y="790" type="line"/>
			<point x="450" y="790"/>
			<point x="450" y="790"/>
			<point x="450" y="790" type="curve"/>
			<point x="474" y="790"/>
			<point x="498" y="790"/>
			<point x="522" y="790" type="curve"/>
			<point x="522" y="888" type="line"/>
			<point x="402" y="884"/>
			<point x="350" y="882"/>
			<point x="282" y="882" type="curve" smooth="yes"/>
			<point x="242" y="882"/>
			<point x="164" y="882"/>
			<point x="62" y="888" type="curve"/>
			<point x="62" y="790" type="line"/>
			<point x="109" y="790"/>
			<point x="155" y="790"/>
			<point x="202" y="790" type="curve"/>
		</contour>
	</outline>
</glyph>
<glyph name="y" format="2">
	<unicode hex="0079"/>
	<advance width="1248"/>
	<outline>
		<contour>
			<point x="264" y="-400" type="curve" smooth="yes"/>
			<point x="420" y="-400"/>
			<point x="544" y="-284"/>
			<point x="606" y="-154" type="curve" smooth="yes"/>
			<point x="1044" y="746" type="line" smooth="yes"/>
			<point x="1058" y="776"/>
			<point x="1066" y="790"/>
			<point x="1192" y="790" type="curve"/>
			<point x="1192" y="888" type="line"/>
			<point x="1136" y="882"/>
			<point x="1086" y="882"/>
			<point x="1030" y="882" type="curve" smooth="yes"/>
			<point x="970" y="882"/>
			<point x="908" y="884"/>
			<point x="850" y="888" type="curve"/>
			<point x="850" y="790" type="line"/>
			<point x="852" y="790"/>
			<point x="938" y="790"/>
			<point x="938" y="766" type="curve" smooth="yes"/>
			<point x="938" y="762"/>
			<point x="932" y="750"/>
			<point x="928" y="742" type="curve" smooth="yes"/>
			<point x="690" y="254" type="line"/>
			<point x="430" y="790" type="line"/>
			<point x="430" y="790"/>
			<point x="430" y="790"/>
			<point x="430" y="790" type="curve"/>
			<point x="464" y="790"/>
			<point x="498" y="790"/>
			<point x="532" y="790" type="curve"/>
			<point x="532" y="888" type="line"/>
			<point x="422" y="884"/>
			<point x="348" y="882"/>
			<point x="286" y="882" type="curve" smooth="yes"/>
			<point x="214" y="882"/>
			<point x="174" y="882"/>
			<point x="56" y="888" type="curve"/>
			<point x="56" y="790" type="line"/>
			<point x="98" y="790"/>
			<point x="140" y="790"/>
			<point x="182" y="790" type="curve"/>
			<point x="566" y="0" type="line"/>
			<point x="550" y="-38"/>
			<point x="532" y="-76"/>
			<point x="514" y="-112" type="curve" smooth="yes"/>
			<point x="456" y="-228"/>
			<point x="384" y="-320"/>
			<point x="266" y="-320" type="curve" smooth="yes"/>
			<point x="254" y="-320"/>
			<point x="242" y="-320"/>
			<point x="228" y="-314" type="curve"/>
			<point x="262" y="-296"/>
			<point x="286" y="-260"/>
			<point x="286" y="-210" type="curve" smooth="yes"/>
			<point x="286" y="-134"/>
			<point x="230" y="-90"/>
			<point x="166" y="-90" type="curve" smooth="yes"/>
			<point x="102" y="-90"/>
			<point x="46" y="-134"/>
			<point x="46" y="-210" type="curve" smooth="yes"/>
			<point x="46" y="-318"/>
			<point x="146" y="-400"/>
		</contour>
	</outline>
</glyph>
<glyph name="z" format="2">
	<unicode hex="007A"/>
	<advance width="1050"/>
	<outline>
		<contour>
			<point x="654" y="808" type="line"/>
			<point x="88" y="100" type="line" smooth="yes"/>
			<point x="68" y="74"/>
			<point x="66" y="68"/>
			<point x="66" y="48" type="curve" smooth="yes"/>
			<point x="66" y="0"/>
			<point x="96" y="0"/>
			<point x="134" y="0" type="curve" smooth="yes"/>
			<point x="914" y="0" type="line"/>
			<point x="952" y="410" type="line"/>
			<point x="850" y="410" type="line"/>
			<point x="832" y="204"/>
			<point x="794" y="86"/>
			<point x="532" y="86" type="curve" smooth="yes"/>
			<point x="358" y="86" type="line"/>
			<point x="922" y="792" type="line" smooth="yes"/>
			<point x="942" y="816"/>
			<point x="944" y="824"/>
			<point x="944" y="842" type="curve" smooth="yes"/>
			<point x="944" y="888"/>
			<point x="912" y="888"/>
			<point x="876" y="888" type="curve" smooth="yes"/>
			<point x="124" y="888" type="line"/>
			<point x="98" y="530" type="line"/>
			<point x="200" y="530" type="line"/>
			<point x="214" y="726"/>
			<point x="264" y="808"/>
			<point x="486" y="808" type="curve" smooth="yes"/>
		</contour>
	</outline>
</glyph>
<glyph name="exclamdown" format="2">
	<unicode hex="00A1"/>
	<advance width="720"/>
	<outline>
		<contour>
			<point x="358" y="-412" type="curve" smooth="yes"/>
			<point x="436" y="-412"/>
			<point x="516" y="-360"/>
			<point x="516" y="-268" type="curve" smooth="yes"/>
			<point x="516" y="-260"/>
			<point x="516" y="-256"/>
			<point x="414" y="498" type="curve" smooth="yes"/>
			<point x="408" y="544"/>
			<point x="396" y="548"/>
			<point x="360" y="548" type="curve" smooth="yes"/>
			<point x="312" y="548"/>
			<point x="312" y="538"/>
			<point x="306" y="498" type="curve" smooth="yes"/>
			<point x="202" y="-256"/>
			<point x="202" y="-260"/>
			<point x="202" y="-268" type="curve" smooth="yes"/>
			<point x="202" y="-364"/>
			<point x="288" y="-412"/>
		</contour>
		<contour>
			<point x="516" y="842" type="curve" smooth="yes"/>
			<point x="516" y="934"/>
			<point x="442" y="1000"/>
			<point x="360" y="1000" type="curve" smooth="yes"/>
			<point x="270" y="1000"/>
			<point x="202" y="926"/>
			<point x="202" y="844" type="curve" smooth="yes"/>
			<point x="202" y="752"/>
			<point x="276" y="686"/>
			<point x="358" y="686" type="curve" smooth="yes"/>
			<point x="448" y="686"/>
			<point x="516" y="760"/>
		</contour>
	</outline>
</glyph>
<glyph name="dieresis" format="2">
  <advance width="591"/>
  <unicode hex="00A8"/>
  <outline>
    <contour>
      <point x="253" y="622" type="curve" smooth="yes"/>
      <point x="253" y="667"/>
      <point x="217" y="695"/>
      <point x="181" y="695" type="curve" smooth="yes"/>
      <point x="140" y="695"/>
      <point x="108" y="662"/>
      <point x="108" y="622" type="curve" smooth="yes"/>
      <point x="108" y="586"/>
      <point x="138" y="550"/>
      <point x="181" y="550" type="curve" smooth="yes"/>
      <point x="219" y="550"/>
      <point x="253" y="580"/>
    </contour>
    <contour>
      <point x="483" y="622" type="curve" smooth="yes"/>
      <point x="483" y="662"/>
      <point x="451" y="695"/>
      <point x="410" y="695" type="curve" smooth="yes"/>
      <point x="372" y="695"/>
      <point x="338" y="665"/>
      <point x="338" y="623" type="curve" smooth="yes"/>
      <point x="338" y="578"/>
      <point x="374" y="550"/>
      <point x="410" y="550" type="curve" smooth="yes"/>
      <point x="453" y="550"/>
      <point x="483" y="586"/>
    </contour>
  </outline>
</glyph>
<glyph name="macron" format="2">
	<unicode hex="00AF"/>
	<advance width="591"/>
	<outline>
		<contour>
			<point x="509" y="556" type="line"/>
			<point x="509" y="611" type="line"/>
			<point x="82" y="611" type="line"/>
			<point x="82" y="556" type="line"/>
		</contour>
	</outline>
</glyph>
<glyph name="acute" format="2">
	<unicode hex="00B4"/>
	<advance width="1182"/>
	<outline>
		<contour>
			<point x="552" y="1014" type="line"/>
			<point x="866" y="1174" type="line" smooth="yes"/>
			<point x="894" y="1188"/>
			<point x="942" y="1214"/>
			<point x="942" y="1280" type="curve" smooth="yes"/>
			<point x="942" y="1348"/>
			<point x="880" y="1408"/>
			<point x="820" y="1408" type="curve" smooth="yes"/>
			<point x="772" y="1408"/>
			<point x="752" y="1386"/>
			<point x="696" y="1324" type="curve" smooth="yes"/>
			<point x="650" y="1274"/>
			<point x="538" y="1146"/>
			<point x="490" y="1096" type="curve"/>
		</contour>
	</outline>
</glyph>
<glyph name="cedilla" format="2">
	<unicode hex="00B8"/>
	<advance width="1050"/>
	<outline>
		<contour>
			<point x="670" y="-222" type="curve" smooth="yes"/>
			<point x="670" y="-324"/>
			<point x="436" y="-324"/>
			<point x="356" y="-324" type="curve" smooth="yes"/>
			<point x="329" y="-324"/>
			<point x="303" y="-324"/>
			<point x="276" y="-324" type="curve"/>
			<point x="276" y="-404" type="line"/>
			<point x="315" y="-404"/>
			<point x="355" y="-404"/>
			<point x="394" y="-404" type="curve" smooth="yes"/>
			<point x="484" y="-404"/>
			<point x="558" y="-400"/>
			<point x="619" y="-393" type="curve" smooth="yes"/>
			<point x="904" y="-360"/>
			<point x="904" y="-263"/>
			<point x="904" y="-220" type="curve" smooth="yes"/>
			<point x="904" y="-116"/>
			<point x="820" y="-74"/>
			<point x="708" y="-54" type="curve"/>
			<point x="708" y="-24" type="line"/>
			<point x="474" y="-24" type="line"/>
			<point x="474" y="-122" type="line"/>
			<point x="556" y="-122"/>
			<point x="670" y="-136"/>
		</contour>
	</outline>
</glyph>
<glyph name="questiondown" format="2">
	<unicode hex="00BF"/>
	<advance width="1116"/>
	<outline>
		<contour>
			<point x="132" y="-140" type="curve" smooth="yes"/>
			<point x="132" y="-400"/>
			<point x="446" y="-400"/>
			<point x="524" y="-400" type="curve" smooth="yes"/>
			<point x="822" y="-400"/>
			<point x="984" y="-304"/>
			<point x="984" y="-144" type="curve" smooth="yes"/>
			<point x="984" y="-42"/>
			<point x="902" y="-10"/>
			<point x="854" y="-10" type="curve" smooth="yes"/>
			<point x="792" y="-10"/>
			<point x="724" y="-56"/>
			<point x="724" y="-140" type="curve" smooth="yes"/>
			<point x="724" y="-224"/>
			<point x="786" y="-256"/>
			<point x="806" y="-264" type="curve"/>
			<point x="706" y="-320"/>
			<point x="558" y="-320"/>
			<point x="536" y="-320" type="curve" smooth="yes"/>
			<point x="400" y="-320"/>
			<point x="398" y="-276"/>
			<point x="398" y="-158" type="curve" smooth="yes"/>
			<point x="398" y="-50"/>
			<point x="412" y="-30"/>
			<point x="442" y="10" type="curve" smooth="yes"/>
			<point x="576" y="200"/>
			<point x="576" y="378"/>
			<point x="576" y="454" type="curve" smooth="yes"/>
			<point x="576" y="468"/>
			<point x="576" y="480"/>
			<point x="576" y="492" type="curve" smooth="yes"/>
			<point x="574" y="544"/>
			<point x="568" y="548"/>
			<point x="524" y="548" type="curve" smooth="yes"/>
			<point x="474" y="548"/>
			<point x="474" y="532"/>
			<point x="474" y="488" type="curve" smooth="yes"/>
			<point x="474" y="440" type="line" smooth="yes"/>
			<point x="474" y="288"/>
			<point x="396" y="162"/>
			<point x="242" y="58" type="curve" smooth="yes"/>
			<point x="152" y="0"/>
			<point x="132" y="-80"/>
		</contour>
		<contour>
			<point x="682" y="842" type="curve" smooth="yes"/>
			<point x="682" y="934"/>
			<point x="608" y="1000"/>
			<point x="526" y="1000" type="curve" smooth="yes"/>
			<point x="436" y="1000"/>
			<point x="368" y="926"/>
			<point x="368" y="844" type="curve" smooth="yes"/>
			<point x="368" y="752"/>
			<point x="442" y="686"/>
			<point x="524" y="686" type="curve" smooth="yes"/>
			<point x="614" y="686"/>
			<point x="682" y="760"/>
		</contour>
	</outline>
</glyph>
<glyph name="AE" format="2">
  <advance width="1071"/>
  <unicode hex="00C6"/>
  <outline>
    <contour>
      <point x="973" y="686" type="line"/>
      <point x="321" y="686" type="line"/>
      <point x="321" y="637" type="line"/>
      <point x="396" y="637" type="line"/>
      <point x="150" y="71" type="line" smooth="yes"/>
      <point x="142" y="52"/>
      <point x="123" y="49"/>
      <point x="64" y="49" type="curve" smooth="yes"/>
      <point x="43" y="49" type="line"/>
      <point x="43" y="0" type="line"/>
      <point x="99" y="2"/>
      <point x="112" y="3"/>
      <point x="165" y="3" type="curve" smooth="yes"/>
      <point x="210" y="3"/>
      <point x="254" y="2"/>
      <point x="299" y="0" type="curve"/>
      <point x="299" y="49" type="line"/>
      <point x="271" y="49"/>
      <point x="238" y="49"/>
      <point x="210" y="60" type="curve"/>
      <point x="210.0" y="60.0"/>
      <point x="210.0" y="60.0"/>
      <point x="210" y="60" type="curve"/>
      <point x="316" y="306" type="line"/>
      <point x="495" y="306" type="line"/>
      <point x="495" y="49" type="line"/>
      <point x="495.0" y="49.0"/>
      <point x="495.0" y="49.0"/>
      <point x="495" y="49" type="curve"/>
      <point x="414" y="49" type="line"/>
      <point x="414" y="0" type="line"/>
      <point x="990" y="0" type="line"/>
      <point x="1037" y="276" type="line"/>
      <point x="986" y="276" type="line"/>
      <point x="964" y="150"/>
      <point x="946" y="49"/>
      <point x="763" y="49" type="curve" smooth="yes"/>
      <point x="631" y="49" type="line"/>
      <point x="631.0" y="49.0"/>
      <point x="631.0" y="49.0"/>
      <point x="631" y="49" type="curve"/>
      <point x="631" y="306" type="line"/>
      <point x="695" y="306" type="line" smooth="yes"/>
      <point x="792" y="306"/>
      <point x="805" y="266"/>
      <point x="805" y="189" type="curve"/>
      <point x="856" y="189" type="line"/>
      <point x="856" y="472" type="line"/>
      <point x="805" y="472" type="line"/>
      <point x="805" y="395"/>
      <point x="793" y="355"/>
      <point x="695" y="355" type="curve" smooth="yes"/>
      <point x="631" y="355" type="line"/>
      <point x="631" y="637" type="line"/>
      <point x="631.0" y="637.0"/>
      <point x="631.0" y="637.0"/>
      <point x="631" y="637" type="curve"/>
      <point x="759" y="637" type="line" smooth="yes"/>
      <point x="922" y="637"/>
      <point x="938" y="556"/>
      <point x="953" y="443" type="curve"/>
      <point x="1004" y="443" type="line"/>
    </contour>
    <contour>
      <point x="338" y="355" type="line"/>
      <point x="460" y="637" type="line"/>
      <point x="471.655" y="637.0"/>
      <point x="483.31" y="637.0"/>
      <point x="495" y="637" type="curve"/>
      <point x="495" y="355" type="line"/>
    </contour>
  </outline>
</glyph>
<glyph name="germandbls" format="2">
	<unicode hex="00DF"/>
	<advance width="616"/>
	<outline>
		<contour>
			<point x="428" y="421" type="curve"/>
			<point x="539" y="460"/>
			<point x="550" y="534"/>
			<point x="550" y="561" type="curve" smooth="yes"/>
			<point x="550" y="621"/>
			<point x="498" y="700"/>
			<point x="327" y="700" type="curve" smooth="yes"/>
			<point x="199" y="700"/>
			<point x="109" y="651"/>
			<point x="109" y="555" type="curve" smooth="yes"/>
			<point x="109" y="444" type="line"/>
			<point x="41" y="444" type="line"/>
			<point x="41" y="395" type="line"/>
			<point x="109" y="395" type="line"/>
			<point x="109" y="49" type="line"/>
			<point x="86.356" y="49"/>
			<point x="63.712" y="49"/>
			<point x="41" y="49" type="curve"/>
			<point x="41" y="0" type="line"/>
			<point x="86" y="2"/>
			<point x="121" y="3"/>
			<point x="150" y="3" type="curve" smooth="yes"/>
			<point x="182" y="3"/>
			<point x="191" y="3"/>
			<point x="220" y="0" type="curve"/>
			<point x="220" y="556" type="line" smooth="yes"/>
			<point x="220" y="584"/>
			<point x="220" y="660"/>
			<point x="326" y="660" type="curve" smooth="yes"/>
			<point x="423" y="660"/>
			<point x="428" y="595"/>
			<point x="428" y="562" type="curve" smooth="yes"/>
			<point x="428" y="451"/>
			<point x="343" y="446"/>
			<point x="301" y="444" type="curve" smooth="yes"/>
			<point x="286" y="443"/>
			<point x="286" y="427"/>
			<point x="286" y="424" type="curve" smooth="yes"/>
			<point x="286" y="419"/>
			<point x="286" y="405"/>
			<point x="302" y="404" type="curve" smooth="yes"/>
			<point x="443" y="395"/>
			<point x="461" y="270"/>
			<point x="461" y="179" type="curve" smooth="yes"/>
			<point x="461" y="146"/>
			<point x="461" y="34"/>
			<point x="363" y="34" type="curve" smooth="yes"/>
			<point x="349" y="34"/>
			<point x="342" y="37"/>
			<point x="336" y="40" type="curve"/>
			<point x="351" y="50"/>
			<point x="358" y="65"/>
			<point x="358" y="83" type="curve" smooth="yes"/>
			<point x="358" y="115"/>
			<point x="335" y="135"/>
			<point x="306" y="135" type="curve" smooth="yes"/>
			<point x="279" y="135"/>
			<point x="254" y="116"/>
			<point x="254" y="82" type="curve" smooth="yes"/>
			<point x="254" y="43"/>
			<point x="288" y="-6"/>
			<point x="366" y="-6" type="curve" smooth="yes"/>
			<point x="485" y="-6"/>
			<point x="583" y="60"/>
			<point x="583" y="180" type="curve" smooth="yes"/>
			<point x="583" y="226"/>
			<point x="573" y="358"/>
		</contour>
	</outline>
</glyph>
<glyph name="ae" format="2">
  <advance width="854"/>
  <unicode hex="00E6"/>
  <outline>
    <contour>
      <point x="38" y="105" type="curve" smooth="yes"/>
      <point x="38" y="36"/>
      <point x="106" y="-6"/>
      <point x="234" y="-6" type="curve" smooth="yes"/>
      <point x="274" y="-6"/>
      <point x="385" y="-4"/>
      <point x="440" y="58" type="curve"/>
      <point x="488" y="16"/>
      <point x="558" y="-6"/>
      <point x="631" y="-6" type="curve" smooth="yes"/>
      <point x="776" y="-6"/>
      <point x="821" y="96"/>
      <point x="821" y="116" type="curve" smooth="yes"/>
      <point x="821" y="136"/>
      <point x="801" y="136"/>
      <point x="795" y="136" type="curve" smooth="yes"/>
      <point x="777" y="136"/>
      <point x="774" y="130"/>
      <point x="769" y="116" type="curve" smooth="yes"/>
      <point x="752" y="72"/>
      <point x="704" y="37"/>
      <point x="637" y="37" type="curve" smooth="yes"/>
      <point x="492" y="37"/>
      <point x="487" y="174"/>
      <point x="486" y="215" type="curve"/>
      <point x="788" y="215" type="line" smooth="yes"/>
      <point x="810" y="215"/>
      <point x="821" y="215"/>
      <point x="821" y="244" type="curve" smooth="yes"/>
      <point x="821" y="348"/>
      <point x="773" y="453"/>
      <point x="616" y="453" type="curve" smooth="yes"/>
      <point x="537" y="453"/>
      <point x="479" y="426"/>
      <point x="445" y="397" type="curve"/>
      <point x="382" y="453"/>
      <point x="293" y="453"/>
      <point x="258" y="453" type="curve" smooth="yes"/>
      <point x="209" y="453"/>
      <point x="73" y="453"/>
      <point x="73" y="359" type="curve" smooth="yes"/>
      <point x="73" y="314"/>
      <point x="107" y="293"/>
      <point x="138" y="293" type="curve" smooth="yes"/>
      <point x="172" y="293"/>
      <point x="203" y="317"/>
      <point x="203" y="358" type="curve" smooth="yes"/>
      <point x="203" y="387"/>
      <point x="186" y="404"/>
      <point x="183" y="407" type="curve"/>
      <point x="192" y="409"/>
      <point x="217" y="413"/>
      <point x="255" y="413" type="curve" smooth="yes"/>
      <point x="325" y="413"/>
      <point x="369" y="380"/>
      <point x="369" y="298" type="curve" smooth="yes"/>
      <point x="369" y="248" type="line"/>
      <point x="275" y="248"/>
      <point x="38" y="231"/>
    </contour>
    <contour>
      <point x="249" y="34" type="curve" smooth="yes"/>
      <point x="197" y="34"/>
      <point x="159" y="65"/>
      <point x="159" y="106" type="curve" smooth="yes"/>
      <point x="159" y="148"/>
      <point x="200" y="205"/>
      <point x="369" y="211" type="curve"/>
      <point x="371" y="186"/>
      <point x="376" y="161"/>
      <point x="385" y="139" type="curve" smooth="yes"/>
      <point x="388" y="132"/>
      <point x="388" y="130"/>
      <point x="388" y="125" type="curve" smooth="yes"/>
      <point x="388" y="72"/>
      <point x="321" y="34"/>
    </contour>
    <contour>
      <point x="486" y="251" type="line"/>
      <point x="487" y="276"/>
      <point x="490" y="413"/>
      <point x="616" y="413" type="curve" smooth="yes"/>
      <point x="717" y="413"/>
      <point x="721" y="293"/>
      <point x="723" y="251" type="curve"/>
    </contour>
  </outline>
</glyph>
<glyph name="oslash" format="2">
	<unicode hex="00F8"/>
	<advance width="591"/>
	<outline>
		<contour>
			<point x="108" y="-108" type="line"/>
			<point x="184" y="11" type="line"/>
			<point x="235" y="-6"/>
			<point x="281" y="-6"/>
			<point x="295" y="-6" type="curve" smooth="yes"/>
			<point x="474" y="-6"/>
			<point x="558" y="99"/>
			<point x="558" y="218" type="curve" smooth="yes"/>
			<point x="558" y="262"/>
			<point x="547" y="362"/>
			<point x="444" y="418" type="curve"/>
			<point x="516" y="531" type="line"/>
			<point x="483" y="553" type="line"/>
			<point x="408" y="435" type="line"/>
			<point x="393" y="440"/>
			<point x="352" y="453"/>
			<point x="296" y="453" type="curve" smooth="yes"/>
			<point x="120" y="453"/>
			<point x="33" y="344"/>
			<point x="33" y="218" type="curve" smooth="yes"/>
			<point x="33" y="176"/>
			<point x="44" y="81"/>
			<point x="147" y="27" type="curve"/>
			<point x="75" y="-86" type="line"/>
		</contour>
		<contour>
			<point x="295" y="34" type="curve" smooth="yes"/>
			<point x="250" y="34"/>
			<point x="220" y="48"/>
			<point x="211" y="53" type="curve"/>
			<point x="411" y="365" type="line"/>
			<point x="441" y="326"/>
			<point x="441" y="268"/>
			<point x="441" y="219" type="curve" smooth="yes"/>
			<point x="441" y="170.712"/>
			<point x="441" y="107.915451904"/>
			<point x="402.0339198144" y="69.3095449374" type="curve" smooth="yes"/>
			<point x="380.4786279424" y="47.953494016"/>
			<point x="346.99936" y="34"/>
		</contour>
		<contour>
			<point x="180" y="80" type="line"/>
			<point x="151" y="117"/>
			<point x="150" y="161"/>
			<point x="150" y="219" type="curve" smooth="yes"/>
			<point x="150" y="268.31475"/>
			<point x="150" y="336.6527108396"/>
			<point x="191.5049192321" y="377.6761987186" type="curve" smooth="yes"/>
			<point x="213.1224723314" y="399.0430015929"/>
			<point x="245.99938" y="413"/>
			<point x="296" y="413" type="curve" smooth="yes"/>
			<point x="322" y="413"/>
			<point x="354" y="408"/>
			<point x="380" y="392" type="curve"/>
		</contour>
	</outline>
</glyph>
<glyph name="dotlessi" format="2">
	<unicode hex="0131"/>
	<advance width="656"/>
	<outline>
		<contour>
			<point x="462" y="900" type="line"/>
			<point x="110" y="884" type="line"/>
			<point x="110" y="786" type="line"/>
			<point x="226" y="786"/>
			<point x="240" y="786"/>
			<point x="240" y="708" type="curve" smooth="yes"/>
			<point x="240" y="98" type="line"/>
			<point x="240" y="98"/>
			<point x="240" y="98"/>
			<point x="240" y="98" type="curve"/>
			<point x="104" y="98" type="line"/>
			<point x="104" y="0" type="line"/>
			<point x="238" y="4"/>
			<point x="264" y="6"/>
			<point x="348" y="6" type="curve" smooth="yes"/>
			<point x="446" y="6"/>
			<point x="472" y="4"/>
			<point x="584" y="0" type="curve"/>
			<point x="584" y="98" type="line"/>
			<point x="543" y="98"/>
			<point x="503" y="98"/>
			<point x="462" y="98" type="curve"/>
		</contour>
	</outline>
</glyph>
<glyph name="OE" format="2">
	<unicode hex="0152"/>
	<advance width="2404"/>
	<outline>
		<contour>
			<point x="2336" y="552" type="line"/>
			<point x="2234" y="552" type="line"/>
			<point x="2188" y="292"/>
			<point x="2148" y="98"/>
			<point x="1772" y="98" type="curve" smooth="yes"/>
			<point x="1472" y="98" type="line"/>
			<point x="1472" y="98"/>
			<point x="1472" y="98"/>
			<point x="1472" y="98" type="curve"/>
			<point x="1472" y="662" type="line"/>
			<point x="1658" y="662" type="line" smooth="yes"/>
			<point x="1840" y="662"/>
			<point x="1904" y="612"/>
			<point x="1904" y="428" type="curve"/>
			<point x="2006" y="428" type="line"/>
			<point x="2006" y="994" type="line"/>
			<point x="1904" y="994" type="line"/>
			<point x="1904" y="810"/>
			<point x="1838" y="760"/>
			<point x="1658" y="760" type="curve" smooth="yes"/>
			<point x="1472" y="760" type="line"/>
			<point x="1472" y="1274" type="line"/>
			<point x="1472" y="1274"/>
			<point x="1472" y="1274"/>
			<point x="1472" y="1274" type="curve"/>
			<point x="1770" y="1274" type="line" smooth="yes"/>
			<point x="2094" y="1274"/>
			<point x="2138" y="1120"/>
			<point x="2168" y="886" type="curve"/>
			<point x="2270" y="886" type="line"/>
			<point x="2208" y="1372" type="line"/>
			<point x="1334" y="1372" type="line" smooth="yes"/>
			<point x="1312" y="1372"/>
			<point x="1284" y="1372"/>
			<point x="1152" y="1384" type="curve" smooth="yes"/>
			<point x="1074" y="1390"/>
			<point x="1020" y="1396"/>
			<point x="956" y="1396" type="curve" smooth="yes"/>
			<point x="446" y="1396"/>
			<point x="170" y="1080"/>
			<point x="170" y="678" type="curve" smooth="yes"/>
			<point x="170" y="282"/>
			<point x="450" y="-24"/>
			<point x="956" y="-24" type="curve" smooth="yes"/>
			<point x="1018" y="-24"/>
			<point x="1058" y="-20"/>
			<point x="1150" y="-12" type="curve" smooth="yes"/>
			<point x="1192" y="-8"/>
			<point x="1282" y="0"/>
			<point x="1334" y="0" type="curve" smooth="yes"/>
			<point x="2242" y="0" type="line"/>
		</contour>
		<contour>
			<point x="472" y="710" type="curve" smooth="yes"/>
			<point x="472" y="1106"/>
			<point x="682" y="1316"/>
			<point x="966" y="1316" type="curve" smooth="yes"/>
			<point x="1146" y="1316"/>
			<point x="1220" y="1276"/>
			<point x="1220" y="978" type="curve" smooth="yes"/>
			<point x="1220" y="879"/>
			<point x="1220" y="781"/>
			<point x="1220" y="682" type="curve"/>
			<point x="1220" y="586"/>
			<point x="1220" y="490"/>
			<point x="1220" y="394" type="curve" smooth="yes"/>
			<point x="1220" y="100"/>
			<point x="1148" y="56"/>
			<point x="968" y="56" type="curve" smooth="yes"/>
			<point x="666" y="56"/>
			<point x="472" y="308"/>
		</contour>
	</outline>
</glyph>
<glyph name="oe" format="2">
	<unicode hex="0153"/>
	<advance width="1840"/>
	<outline>
		<contour>
			<point x="586" y="-12" type="curve" smooth="yes"/>
			<point x="820" y="-12"/>
			<point x="942" y="92"/>
			<point x="986" y="138" type="curve"/>
			<point x="1028" y="100"/>
			<point x="1148" y="-12"/>
			<point x="1392" y="-12" type="curve" smooth="yes"/>
			<point x="1682" y="-12"/>
			<point x="1772" y="192"/>
			<point x="1772" y="232" type="curve" smooth="yes"/>
			<point x="1772" y="272"/>
			<point x="1732" y="272"/>
			<point x="1720" y="272" type="curve" smooth="yes"/>
			<point x="1684" y="272"/>
			<point x="1678" y="260"/>
			<point x="1668" y="232" type="curve" smooth="yes"/>
			<point x="1634" y="144"/>
			<point x="1538" y="74"/>
			<point x="1404" y="74" type="curve" smooth="yes"/>
			<point x="1114" y="74"/>
			<point x="1104" y="348"/>
			<point x="1102" y="430" type="curve"/>
			<point x="1706" y="430" type="line" smooth="yes"/>
			<point x="1750" y="430"/>
			<point x="1772" y="430"/>
			<point x="1772" y="488" type="curve" smooth="yes"/>
			<point x="1772" y="562"/>
			<point x="1766" y="906"/>
			<point x="1362" y="906" type="curve" smooth="yes"/>
			<point x="1192" y="906"/>
			<point x="1060" y="844"/>
			<point x="984" y="760" type="curve"/>
			<point x="936" y="806"/>
			<point x="822" y="906"/>
			<point x="586" y="906" type="curve" smooth="yes"/>
			<point x="242" y="906"/>
			<point x="66" y="696"/>
			<point x="66" y="448" type="curve" smooth="yes"/>
			<point x="66" y="196"/>
			<point x="248" y="-12"/>
		</contour>
		<contour>
			<point x="586" y="68" type="curve" smooth="yes"/>
			<point x="308" y="68"/>
			<point x="308" y="344"/>
			<point x="308" y="458" type="curve" smooth="yes"/>
			<point x="308" y="572"/>
			<point x="308" y="826"/>
			<point x="586" y="826" type="curve" smooth="yes"/>
			<point x="868" y="826"/>
			<point x="868" y="568"/>
			<point x="868" y="446" type="curve" smooth="yes"/>
			<point x="868" y="220"/>
			<point x="794" y="68"/>
		</contour>
		<contour>
			<point x="1102" y="502" type="line"/>
			<point x="1104" y="552"/>
			<point x="1110" y="826"/>
			<point x="1362" y="826" type="curve" smooth="yes"/>
			<point x="1564" y="826"/>
			<point x="1572" y="586"/>
			<point x="1576" y="502" type="curve"/>
		</contour>
	</outline>
</glyph>
<glyph name="circumflex" format="2">
	<unicode hex="02C6"/>
	<advance width="1182"/>
	<outline>
		<contour>
			<point x="592" y="1388" type="line"/>
			<point x="266" y="1136" type="line"/>
			<point x="326" y="1054" type="line"/>
			<point x="590" y="1214" type="line"/>
			<point x="856" y="1054" type="line"/>
			<point x="916" y="1136" type="line"/>
		</contour>
	</outline>
</glyph>
<glyph name="caron" format="2">
	<unicode hex="02C7"/>
	<advance width="1182"/>
	<outline>
		<contour>
			<point x="592" y="1206" type="line"/>
			<point x="318" y="1310" type="line"/>
			<point x="274" y="1218" type="line"/>
			<point x="590" y="1032" type="line"/>
			<point x="908" y="1218" type="line"/>
			<point x="864" y="1310" type="line"/>
		</contour>
	</outline>
</glyph>
<glyph name="breve" format="2">
	<unicode hex="02D8"/>
	<advance width="1182"/>
	<outline>
		<contour>
			<point x="880" y="1388" type="line"/>
			<point x="872" y="1210"/>
			<point x="706" y="1144"/>
			<point x="592" y="1144" type="curve" smooth="yes"/>
			<point x="470" y="1144"/>
			<point x="310" y="1214"/>
			<point x="302" y="1388" type="curve"/>
			<point x="222" y="1388" type="line"/>
			<point x="226" y="1154"/>
			<point x="408" y="1012"/>
			<point x="590" y="1012" type="curve" smooth="yes"/>
			<point x="780" y="1012"/>
			<point x="956" y="1160"/>
			<point x="960" y="1388" type="curve"/>
		</contour>
	</outline>
</glyph>
<glyph name="dotaccent" format="2">
	<unicode hex="02D9"/>
	<advance width="656"/>
	<outline>
		<contour>
			<point x="484" y="1232" type="curve" smooth="yes"/>
			<point x="484" y="1326"/>
			<point x="408" y="1390"/>
			<point x="328" y="1390" type="curve" smooth="yes"/>
			<point x="244" y="1390"/>
			<point x="172" y="1322"/>
			<point x="172" y="1234" type="curve" smooth="yes"/>
			<point x="172" y="1140"/>
			<point x="248" y="1076"/>
			<point x="328" y="1076" type="curve" smooth="yes"/>
			<point x="412" y="1076"/>
			<point x="484" y="1144"/>
		</contour>
	</outline>
</glyph>
<glyph name="ring" format="2">
	<unicode hex="02DA"/>
	<advance width="892"/>
	<outline>
		<contour>
			<point x="570" y="619" type="curve" smooth="yes"/>
			<point x="570" y="660"/>
			<point x="536" y="703"/>
			<point x="446" y="703" type="curve" smooth="yes"/>
			<point x="352" y="703"/>
			<point x="322" y="657"/>
			<point x="322" y="620" type="curve" smooth="yes"/>
			<point x="322" y="579"/>
			<point x="356" y="536"/>
			<point x="446" y="536" type="curve" smooth="yes"/>
			<point x="540" y="536"/>
			<point x="570" y="582"/>
		</contour>
		<contour>
			<point x="446" y="576" type="curve" smooth="yes"/>
			<point x="402" y="576"/>
			<point x="373" y="578"/>
			<point x="373" y="619" type="curve" smooth="yes"/>
			<point x="373" y="660"/>
			<point x="399" y="663"/>
			<point x="446" y="663" type="curve" smooth="yes"/>
			<point x="490" y="663"/>
			<point x="519" y="661"/>
			<point x="519" y="620" type="curve" smooth="yes"/>
			<point x="519" y="579"/>
			<point x="493" y="576"/>
		</contour>
	</outline>
</glyph>
<glyph name="tilde" format="2">
	<unicode hex="02DC"/>
	<advance width="1182"/>
	<outline>
		<contour>
			<point x="256" y="1156" type="line"/>
			<point x="304" y="1208"/>
			<point x="358" y="1230"/>
			<point x="414" y="1230" type="curve" smooth="yes"/>
			<point x="458" y="1230"/>
			<point x="504" y="1218"/>
			<point x="582" y="1190" type="curve" smooth="yes"/>
			<point x="644" y="1166"/>
			<point x="692" y="1156"/>
			<point x="728" y="1156" type="curve" smooth="yes"/>
			<point x="814" y="1156"/>
			<point x="850" y="1194"/>
			<point x="930" y="1274" type="curve"/>
			<point x="948" y="1294"/>
			<point x="974" y="1322"/>
			<point x="984" y="1332" type="curve"/>
			<point x="926" y="1388" type="line"/>
			<point x="878" y="1336"/>
			<point x="824" y="1314"/>
			<point x="768" y="1314" type="curve" smooth="yes"/>
			<point x="724" y="1314"/>
			<point x="678" y="1326"/>
			<point x="600" y="1354" type="curve" smooth="yes"/>
			<point x="538" y="1378"/>
			<point x="490" y="1388"/>
			<point x="454" y="1388" type="curve" smooth="yes"/>
			<point x="368" y="1388"/>
			<point x="332" y="1350"/>
			<point x="252" y="1270" type="curve"/>
			<point x="234" y="1250"/>
			<point x="208" y="1222"/>
			<point x="198" y="1212" type="curve"/>
		</contour>
	</outline>
</glyph>
<glyph name="hungarumlaut" format="2">
	<unicode hex="02DD"/>
	<advance width="1182"/>
	<outline>
		<contour>
			<point x="286" y="1084" type="line"/>
			<point x="372" y="1026" type="line"/>
			<point x="437" y="1085"/>
			<point x="501" y="1143"/>
			<point x="566" y="1202" type="curve" smooth="yes"/>
			<point x="580" y="1214"/>
			<point x="616" y="1246"/>
			<point x="616" y="1296" type="curve" smooth="yes"/>
			<point x="616" y="1362"/>
			<point x="548" y="1420"/>
			<point x="482" y="1420" type="curve" smooth="yes"/>
			<point x="426" y="1420"/>
			<point x="392" y="1382"/>
			<point x="374" y="1332" type="curve" smooth="yes"/>
		</contour>
		<contour>
			<point x="680" y="1084" type="line"/>
			<point x="709" y="1065"/>
			<point x="737" y="1045"/>
			<point x="766" y="1026" type="curve"/>
			<point x="831" y="1085"/>
			<point x="895" y="1143"/>
			<point x="960" y="1202" type="curve" smooth="yes"/>
			<point x="974" y="1214"/>
			<point x="1010" y="1246"/>
			<point x="1010" y="1296" type="curve" smooth="yes"/>
			<point x="1010" y="1362"/>
			<point x="942" y="1420"/>
			<point x="876" y="1420" type="curve" smooth="yes"/>
			<point x="820" y="1420"/>
			<point x="786" y="1382"/>
			<point x="768" y="1332" type="curve" smooth="yes"/>
		</contour>
	</outline>
</glyph>
<glyph name="Gamma" format="2">
  <advance width="710"/>
  <unicode hex="0393"/>
  <outline>
    <contour>
      <point x="630" y="680" type="line"/>
      <point x="42" y="680" type="line"/>
      <point x="42" y="631" type="line"/>
      <point x="150" y="631" type="line"/>
      <point x="150" y="49" type="line"/>
      <point x="42" y="49" type="line"/>
      <point x="42" y="0" type="line"/>
      <point x="77" y="3"/>
      <point x="186" y="3"/>
      <point x="228" y="3" type="curve" smooth="yes"/>
      <point x="275" y="3"/>
      <point x="389" y="3"/>
      <point x="430" y="0" type="curve"/>
      <point x="430" y="49" type="line"/>
      <point x="295" y="49" type="line"/>
      <point x="295" y="631" type="line"/>
      <point x="416" y="631" type="line" smooth="yes"/>
      <point x="579" y="631"/>
      <point x="595" y="551"/>
      <point x="610" y="437" type="curve"/>
      <point x="661" y="437" type="line"/>
    </contour>
  </outline>
</glyph>
<glyph name="endash" format="2">
	<unicode hex="2013"/>
	<advance width="591"/>
	<outline>
		<contour>
			<point x="591" y="254" type="line"/>
			<point x="591" y="294" type="line"/>
			<point x="0" y="294" type="line"/>
			<point x="0" y="254" type="line"/>
		</contour>
	</outline>
</glyph>
<glyph name="emdash" format="2">
	<unicode hex="2014"/>
	<advance width="2366"/>
	<outline>
		<contour>
			<point x="2364" y="508" type="line"/>
			<point x="2364" y="588" type="line"/>
			<point x="0" y="588" type="line"/>
			<point x="0" y="508" type="line"/>
		</contour>
	</outline>
</glyph>
<glyph name="quoteleft" format="2">
	<unicode hex="2018"/>
	<advance width="656"/>
	<outline>
		<contour>
			<point x="330" y="686" type="curve" smooth="yes"/>
			<point x="430" y="686"/>
			<point x="486" y="764"/>
			<point x="486" y="842" type="curve" smooth="yes"/>
			<point x="486" y="922"/>
			<point x="432" y="1000"/>
			<point x="328" y="1000" type="curve" smooth="yes"/>
			<point x="264" y="1000"/>
			<point x="226" y="966"/>
			<point x="222" y="962" type="curve"/>
			<point x="230" y="1112"/>
			<point x="302" y="1230"/>
			<point x="412" y="1314" type="curve" smooth="yes"/>
			<point x="422" y="1322"/>
			<point x="432" y="1328"/>
			<point x="432" y="1344" type="curve" smooth="yes"/>
			<point x="432" y="1364"/>
			<point x="408" y="1388"/>
			<point x="388" y="1388" type="curve" smooth="yes"/>
			<point x="358" y="1388"/>
			<point x="140" y="1218"/>
			<point x="140" y="938" type="curve" smooth="yes"/>
			<point x="140" y="796"/>
			<point x="216" y="686"/>
		</contour>
	</outline>
</glyph>
<glyph name="quoteright" format="2">
	<unicode hex="2019"/>
	<advance width="656"/>
	<outline>
		<contour>
			<point x="270" y="686" type="curve" smooth="yes"/>
			<point x="300" y="686"/>
			<point x="518" y="856"/>
			<point x="518" y="1136" type="curve" smooth="yes"/>
			<point x="518" y="1278"/>
			<point x="442" y="1388"/>
			<point x="328" y="1388" type="curve" smooth="yes"/>
			<point x="228" y="1388"/>
			<point x="172" y="1310"/>
			<point x="172" y="1232" type="curve" smooth="yes"/>
			<point x="172" y="1152"/>
			<point x="226" y="1074"/>
			<point x="330" y="1074" type="curve" smooth="yes"/>
			<point x="394" y="1074"/>
			<point x="432" y="1108"/>
			<point x="436" y="1112" type="curve"/>
			<point x="428" y="962"/>
			<point x="356" y="844"/>
			<point x="246" y="760" type="curve" smooth="yes"/>
			<point x="236" y="752"/>
			<point x="226" y="746"/>
			<point x="226" y="730" type="curve" smooth="yes"/>
			<point x="226" y="710"/>
			<point x="250" y="686"/>
		</contour>
	</outline>
</glyph>
<glyph name="quotedblleft" format="2">
	<unicode hex="201C"/>
	<advance width="1234"/>
	<outline>
		<contour>
			<point x="488" y="686" type="curve" smooth="yes"/>
			<point x="588" y="686"/>
			<point x="644" y="764"/>
			<point x="644" y="842" type="curve" smooth="yes"/>
			<point x="644" y="922"/>
			<point x="590" y="1000"/>
			<point x="486" y="1000" type="curve" smooth="yes"/>
			<point x="422" y="1000"/>
			<point x="384" y="966"/>
			<point x="380" y="962" type="curve"/>
			<point x="388" y="1112"/>
			<point x="460" y="1230"/>
			<point x="570" y="1314" type="curve" smooth="yes"/>
			<point x="580" y="1322"/>
			<point x="590" y="1328"/>
			<point x="590" y="1344" type="curve" smooth="yes"/>
			<point x="590" y="1364"/>
			<point x="566" y="1388"/>
			<point x="546" y="1388" type="curve" smooth="yes"/>
			<point x="516" y="1388"/>
			<point x="298" y="1218"/>
			<point x="298" y="938" type="curve" smooth="yes"/>
			<point x="298" y="796"/>
			<point x="374" y="686"/>
		</contour>
		<contour>
			<point x="1000" y="686" type="curve" smooth="yes"/>
			<point x="1100" y="686"/>
			<point x="1156" y="764"/>
			<point x="1156" y="842" type="curve" smooth="yes"/>
			<point x="1156" y="922"/>
			<point x="1102" y="1000"/>
			<point x="998" y="1000" type="curve" smooth="yes"/>
			<point x="934" y="1000"/>
			<point x="896" y="966"/>
			<point x="892" y="962" type="curve"/>
			<point x="900" y="1112"/>
			<point x="972" y="1230"/>
			<point x="1082" y="1314" type="curve" smooth="yes"/>
			<point x="1092" y="1322"/>
			<point x="1102" y="1328"/>
			<point x="1102" y="1344" type="curve" smooth="yes"/>
			<point x="1102" y="1364"/>
			<point x="1078" y="1388"/>
			<point x="1058" y="1388" type="curve" smooth="yes"/>
			<point x="1028" y="1388"/>
			<point x="810" y="1218"/>
			<point x="810" y="938" type="curve" smooth="yes"/>
			<point x="810" y="796"/>
			<point x="886" y="686"/>
		</contour>
	</outline>
</glyph>
<glyph name="quotedblright" format="2">
	<unicode hex="201D"/>
	<advance width="1234"/>
	<outline>
		<contour>
			<point x="176" y="686" type="curve" smooth="yes"/>
			<point x="206" y="686"/>
			<point x="424" y="856"/>
			<point x="424" y="1136" type="curve" smooth="yes"/>
			<point x="424" y="1278"/>
			<point x="348" y="1388"/>
			<point x="234" y="1388" type="curve" smooth="yes"/>
			<point x="134" y="1388"/>
			<point x="78" y="1310"/>
			<point x="78" y="1232" type="curve" smooth="yes"/>
			<point x="78" y="1152"/>
			<point x="132" y="1074"/>
			<point x="236" y="1074" type="curve" smooth="yes"/>
			<point x="300" y="1074"/>
			<point x="338" y="1108"/>
			<point x="342" y="1112" type="curve"/>
			<point x="334" y="962"/>
			<point x="262" y="844"/>
			<point x="152" y="760" type="curve" smooth="yes"/>
			<point x="142" y="752"/>
			<point x="132" y="746"/>
			<point x="132" y="730" type="curve" smooth="yes"/>
			<point x="132" y="710"/>
			<point x="156" y="686"/>
		</contour>
		<contour>
			<point x="688" y="686" type="curve" smooth="yes"/>
			<point x="718" y="686"/>
			<point x="936" y="856"/>
			<point x="936" y="1136" type="curve" smooth="yes"/>
			<point x="936" y="1278"/>
			<point x="860" y="1388"/>
			<point x="746" y="1388" type="curve" smooth="yes"/>
			<point x="646" y="1388"/>
			<point x="590" y="1310"/>
			<point x="590" y="1232" type="curve" smooth="yes"/>
			<point x="590" y="1152"/>
			<point x="644" y="1074"/>
			<point x="748" y="1074" type="curve" smooth="yes"/>
			<point x="812" y="1074"/>
			<point x="850" y="1108"/>
			<point x="854" y="1112" type="curve"/>
			<point x="846" y="962"/>
			<point x="774" y="844"/>
			<point x="664" y="760" type="curve" smooth="yes"/>
			<point x="654" y="752"/>
			<point x="644" y="746"/>
			<point x="644" y="730" type="curve" smooth="yes"/>
			<point x="644" y="710"/>
			<point x="668" y="686"/>
		</contour>
	</outline>
</glyph>
<glyph name="Omega" format="2">
  <advance width="854"/>
  <unicode hex="2126"/>
  <outline>
    <contour>
      <point x="801" y="202" type="line"/>
      <point x="750" y="202" type="line"/>
      <point x="743" y="164"/>
      <point x="739" y="143"/>
      <point x="733" y="128" type="curve" smooth="yes"/>
      <point x="728" y="115"/>
      <point x="724" y="105"/>
      <point x="664" y="105" type="curve" smooth="yes"/>
      <point x="593" y="105" type="line"/>
      <point x="610" y="140"/>
      <point x="627" y="165"/>
      <point x="670" y="218" type="curve" smooth="yes"/>
      <point x="729" y="291"/>
      <point x="788" y="364"/>
      <point x="788" y="457" type="curve" smooth="yes"/>
      <point x="788" y="566"/>
      <point x="695" y="698"/>
      <point x="427" y="698" type="curve" smooth="yes"/>
      <point x="158" y="698"/>
      <point x="66" y="565"/>
      <point x="66" y="457" type="curve" smooth="yes"/>
      <point x="66" y="372"/>
      <point x="115" y="304"/>
      <point x="167" y="240" type="curve" smooth="yes"/>
      <point x="223" y="170"/>
      <point x="240" y="148"/>
      <point x="261" y="105" type="curve"/>
      <point x="190" y="105" type="line" smooth="yes"/>
      <point x="131" y="105"/>
      <point x="127" y="115"/>
      <point x="122" y="125" type="curve"/>
      <point x="116" y="140"/>
      <point x="112" y="163"/>
      <point x="104" y="202" type="curve"/>
      <point x="53" y="202" type="line"/>
      <point x="91" y="0" type="line"/>
      <point x="288" y="0" type="line" smooth="yes"/>
      <point x="309" y="0"/>
      <point x="321" y="0"/>
      <point x="321" y="28" type="curve" smooth="yes"/>
      <point x="321" y="100"/>
      <point x="290" y="189"/>
      <point x="275" y="234" type="curve" smooth="yes"/>
      <point x="245" y="319"/>
      <point x="223" y="387"/>
      <point x="223" y="457" type="curve" smooth="yes"/>
      <point x="223" y="494"/>
      <point x="228" y="558"/>
      <point x="272" y="602" type="curve" smooth="yes"/>
      <point x="322" y="653"/>
      <point x="392" y="658"/>
      <point x="427" y="658" type="curve" smooth="yes"/>
      <point x="504" y="658"/>
      <point x="553" y="630"/>
      <point x="575" y="610" type="curve" smooth="yes"/>
      <point x="591" y="594"/>
      <point x="631" y="556"/>
      <point x="631" y="457" type="curve" smooth="yes"/>
      <point x="631" y="385"/>
      <point x="607" y="315"/>
      <point x="579" y="233" type="curve" smooth="yes"/>
      <point x="565" y="192"/>
      <point x="533" y="100"/>
      <point x="533" y="29" type="curve" smooth="yes"/>
      <point x="533" y="0"/>
      <point x="545" y="0"/>
      <point x="567" y="0" type="curve" smooth="yes"/>
      <point x="763" y="0" type="line"/>
    </contour>
  </outline>
</glyph>
<glyph name="a.alt" format="2">
	<advance width="1150"/>
	<outline>
		<contour>
			<point x="66" y="224" type="curve" smooth="yes"/>
			<point x="66" y="26"/>
			<point x="316" y="-12"/>
			<point x="460" y="-12" type="curve" smooth="yes"/>
			<point x="612" y="-12"/>
			<point x="716" y="54"/>
			<point x="770" y="148" type="curve"/>
			<point x="770" y="96"/>
			<point x="770" y="0"/>
			<point x="984" y="0" type="curve" smooth="yes"/>
			<point x="1017" y="0"/>
			<point x="1049" y="0"/>
			<point x="1082" y="0" type="curve" smooth="yes"/>
			<point x="1120" y="0"/>
			<point x="1148" y="0"/>
			<point x="1148" y="50" type="curve" smooth="yes"/>
			<point x="1148" y="98"/>
			<point x="1116" y="98"/>
			<point x="1096" y="98" type="curve" smooth="yes"/>
			<point x="968" y="100"/>
			<point x="968" y="120"/>
			<point x="968" y="168" type="curve" smooth="yes"/>
			<point x="968" y="596" type="line" smooth="yes"/>
			<point x="968" y="696"/>
			<point x="922" y="782"/>
			<point x="826" y="838" type="curve" smooth="yes"/>
			<point x="752" y="881"/>
			<point x="650" y="906"/>
			<point x="516" y="906" type="curve" smooth="yes"/>
			<point x="402" y="906"/>
			<point x="146" y="902"/>
			<point x="146" y="718" type="curve" smooth="yes"/>
			<point x="146" y="628"/>
			<point x="214" y="586"/>
			<point x="276" y="586" type="curve" smooth="yes"/>
			<point x="344" y="586"/>
			<point x="406" y="634"/>
			<point x="406" y="716" type="curve" smooth="yes"/>
			<point x="406" y="774"/>
			<point x="372" y="808"/>
			<point x="366" y="814" type="curve"/>
			<point x="386" y="818"/>
			<point x="434" y="826"/>
			<point x="508" y="826" type="curve" smooth="yes"/>
			<point x="652" y="826"/>
			<point x="734" y="754"/>
			<point x="734" y="596" type="curve" smooth="yes"/>
			<point x="734" y="532" type="line"/>
			<point x="603" y="532"/>
			<point x="471" y="519"/>
			<point x="359" y="489" type="curve" smooth="yes"/>
			<point x="189" y="443"/>
			<point x="66" y="358"/>
		</contour>
		<contour>
			<point x="734" y="278" type="line" smooth="yes"/>
			<point x="734" y="199"/>
			<point x="701" y="150"/>
			<point x="660" y="119" type="curve" smooth="yes"/>
			<point x="592" y="68"/>
			<point x="499" y="68"/>
			<point x="494" y="68" type="curve" smooth="yes"/>
			<point x="392" y="68"/>
			<point x="308" y="134"/>
			<point x="308" y="224" type="curve" smooth="yes"/>
			<point x="308" y="290"/>
			<point x="344" y="446"/>
			<point x="734" y="464" type="curve"/>
		</contour>
	</outline>
</glyph>
<glyph name="dotlessj" format="2">
  <advance width="361"/>
  <outline>
    <contour>
      <point x="164" y="353" type="curve" smooth="yes"/>
      <point x="164" y="-40" type="line" smooth="yes"/>
      <point x="164" y="-95"/>
      <point x="145" y="-160"/>
      <point x="87" y="-160" type="curve" smooth="yes"/>
      <point x="80" y="-160"/>
      <point x="52" y="-158"/>
      <point x="52" y="-155" type="curve"/>
      <point x="58" y="-148"/>
      <point x="72" y="-134"/>
      <point x="72" y="-106" type="curve" smooth="yes"/>
      <point x="72" y="-67"/>
      <point x="43" y="-41"/>
      <point x="7" y="-41" type="curve" smooth="yes"/>
      <point x="-29" y="-41"/>
      <point x="-58" y="-67"/>
      <point x="-58" y="-106" type="curve" smooth="yes"/>
      <point x="-58" y="-170"/>
      <point x="11" y="-200"/>
      <point x="89" y="-200" type="curve" smooth="yes"/>
      <point x="175" y="-200"/>
      <point x="275" y="-149"/>
      <point x="275" y="-39" type="curve" smooth="yes"/>
      <point x="275" y="450" type="line"/>
      <point x="89" y="442" type="line"/>
      <point x="89" y="393" type="line"/>
      <point x="156" y="393"/>
      <point x="164" y="393"/>
    </contour>
  </outline>
</glyph>
<glyph name="ff" format="2">
  <advance width="690"/>
  <outline>
    <contour>
      <point x="547" y="395" type="line"/>
      <point x="667" y="395" type="line"/>
      <point x="667" y="444" type="line"/>
      <point x="541" y="444" type="line"/>
      <point x="541" y="543" type="line" smooth="yes"/>
      <point x="541" y="656"/>
      <point x="625" y="660"/>
      <point x="645" y="660" type="curve" smooth="yes"/>
      <point x="648" y="660"/>
      <point x="658" y="660"/>
      <point x="658" y="658" type="curve"/>
      <point x="653" y="650"/>
      <point x="640" y="636"/>
      <point x="640" y="611" type="curve" smooth="yes"/>
      <point x="640" y="569"/>
      <point x="674" y="547"/>
      <point x="703" y="547" type="curve" smooth="yes"/>
      <point x="736" y="547"/>
      <point x="767" y="571"/>
      <point x="767" y="611" type="curve" smooth="yes"/>
      <point x="767" y="656"/>
      <point x="727" y="700"/>
      <point x="650" y="700" type="curve" smooth="yes"/>
      <point x="601" y="700"/>
      <point x="547" y="690"/>
      <point x="505" y="665" type="curve"/>
      <point x="462" y="700"/>
      <point x="404" y="700"/>
      <point x="383" y="700" type="curve" smooth="yes"/>
      <point x="254" y="700"/>
      <point x="109" y="660"/>
      <point x="109" y="542" type="curve" smooth="yes"/>
      <point x="109" y="444" type="line"/>
      <point x="32" y="444" type="line"/>
      <point x="32" y="395" type="line"/>
      <point x="109" y="395" type="line"/>
      <point x="109" y="49" type="line"/>
      <point x="86.356" y="49.0"/>
      <point x="63.711999999999996" y="49.0"/>
      <point x="41" y="49" type="curve"/>
      <point x="41" y="0" type="line"/>
      <point x="109" y="3"/>
      <point x="121" y="3"/>
      <point x="164" y="3" type="curve" smooth="yes"/>
      <point x="208" y="3"/>
      <point x="234" y="2"/>
      <point x="288" y="0" type="curve"/>
      <point x="288" y="49" type="line"/>
      <point x="265.356" y="49.0"/>
      <point x="242.712" y="49.0"/>
      <point x="220" y="49" type="curve"/>
      <point x="220" y="395" type="line"/>
      <point x="436" y="395" type="line"/>
      <point x="436" y="49" type="line"/>
      <point x="413.356" y="49.0"/>
      <point x="390.712" y="49.0"/>
      <point x="368" y="49" type="curve"/>
      <point x="368" y="0" type="line"/>
      <point x="442" y="3"/>
      <point x="448" y="3"/>
      <point x="496" y="3" type="curve" smooth="yes"/>
      <point x="521" y="3"/>
      <point x="579" y="3"/>
      <point x="632" y="0" type="curve"/>
      <point x="632" y="49" type="line"/>
      <point x="632" y="49" type="line"/>
      <point x="603.695" y="49.0"/>
      <point x="575.39" y="49.0"/>
      <point x="547" y="49" type="curve"/>
    </contour>
    <contour>
      <point x="214" y="444" type="line"/>
      <point x="214" y="540" type="line" smooth="yes"/>
      <point x="214" y="645"/>
      <point x="318" y="660"/>
      <point x="375" y="660" type="curve" smooth="yes"/>
      <point x="393" y="660"/>
      <point x="411" y="659"/>
      <point x="436" y="651" type="curve"/>
      <point x="419" y="639"/>
      <point x="410" y="619"/>
      <point x="410" y="598" type="curve" smooth="yes"/>
      <point x="410" y="567"/>
      <point x="427" y="552"/>
      <point x="436" y="546" type="curve"/>
      <point x="436.0" y="546.0"/>
      <point x="436.0" y="546.0"/>
      <point x="436" y="546" type="curve"/>
      <point x="436" y="444" type="line"/>
    </contour>
  </outline>
</glyph>
